<?xml version="1.0"?>
<svg xmlns="http://www.w3.org/2000/svg" xmlns:xlink="http://www.w3.org/1999/xlink" xmlns:svgjs="http://svgjs.com/svgjs" version="1.1" width="512" height="512" x="0" y="0" viewBox="0 0 512 512" style="enable-background:new 0 0 512 512" xml:space="preserve"><g><g xmlns="http://www.w3.org/2000/svg"><path d="m80 326.818v163.182h48v-170.182h-41c-3.866 0-7 3.134-7 7z" fill="#eb5569" data-original="#eb5569" style=""/><path d="m128 319.818v170.182h48l10-10v-147l-10-13.182z" fill="#f07281" data-original="#f07281" style=""/><path d="m176 319.818v170.182h48v-218.091z" fill="#6ea2f2" data-original="#6ea2f2" style=""/><path d="m224 271.909v218.091h48l10-10v-241.5l-10-14.5z" fill="#88b4f5" data-original="#88b4f5" style=""/><path d="m272 224h48v266h-48z" fill="#fbd94f" data-original="#fbd94f" style=""/><path d="m320 224v266h48l10-10.5v-243.5l-10-12z" fill="#fee97d" data-original="#fee97d" style=""/><path d="m368 224v266h48v-298z" fill="#87d469" data-original="#87d469" style=""/><path d="m416 192v298h48v-316.92c0-5.591-6.231-8.926-10.883-5.824z" fill="#ade194" data-original="#ade194" style=""/><path d="m374.282 71.71h-108.564c-3.983 0-7.211 3.229-7.211 7.211v63.871c0 3.983 3.229 7.211 7.211 7.211h33.448c1.913 0 3.747.76 5.099 2.112l10.636 10.636c2.816 2.816 7.382 2.816 10.198 0l10.636-10.636c1.352-1.352 3.187-2.112 5.099-2.112h33.448c3.983 0 7.211-3.229 7.211-7.211v-63.87c0-3.983-3.228-7.212-7.211-7.212z" fill="#ffb850" data-original="#ffb850" style=""/><circle cx="81.112" cy="32" fill="#f07281" r="7.71" data-original="#f07281" style=""/><circle cx="305.347" cy="109.596" fill="#eaf6ff" r="7.71" data-original="#eaf6ff" style=""/><circle cx="334.653" cy="109.596" fill="#eaf6ff" r="7.71" data-original="#eaf6ff" style=""/><g><path d="m182.598 39.727h-73.809c-4.267 0-7.726-3.459-7.726-7.726s3.459-7.726 7.726-7.726h73.809c4.267 0 7.726 3.459 7.726 7.726s-3.459 7.726-7.726 7.726z" fill="#5680a6" data-original="#5680a6" style=""/></g><circle cx="81.112" cy="64" fill="#ade194" r="7.71" data-original="#ade194" style=""/><g><path d="m182.598 71.726h-73.809c-4.267 0-7.726-3.459-7.726-7.726s3.459-7.726 7.726-7.726h73.809c4.267 0 7.726 3.459 7.726 7.726s-3.459 7.726-7.726 7.726z" fill="#5680a6" data-original="#5680a6" style=""/></g><path d="m32 480v-480h-32v512h512v-32z" fill="#5680a6" data-original="#5680a6" style=""/></g></g></svg>
