<svg xmlns="http://www.w3.org/2000/svg" xmlns:xlink="http://www.w3.org/1999/xlink" width="479.158" height="957.906" viewBox="0 0 479.158 957.906"><defs><style>.a{fill:url(#a);}.b{fill:url(#b);}.c{fill:url(#c);}.d{fill:#fff;}.e{fill:#1f1723;}.f{fill:#a7a9ac;}.g{fill:#f2f2f2;}</style><linearGradient id="a" x1="1.84" y1="0.5" x2="-6.115" y2="0.5" gradientUnits="objectBoundingBox"><stop offset="0.044" stop-color="#1f1723"/><stop offset="0.286" stop-color="#ded9d6"/><stop offset="0.304" stop-color="#cfcac8"/><stop offset="0.34" stop-color="#a8a4a6"/><stop offset="0.363" stop-color="#8b878d"/><stop offset="0.437" stop-color="#e5e2df"/><stop offset="0.501" stop-color="#eeeeed"/><stop offset="0.522" stop-color="#f3f4f4"/><stop offset="0.561" stop-color="#e4e5e5"/><stop offset="0.634" stop-color="#bfbec0"/><stop offset="0.734" stop-color="#847f84"/><stop offset="0.741" stop-color="#807b80"/><stop offset="0.873" stop-color="#ded9d6"/><stop offset="0.886" stop-color="#cfccca"/><stop offset="0.912" stop-color="#a8aaad"/><stop offset="0.913" stop-color="#a7a9ac"/><stop offset="1" stop-color="#1f1723"/></linearGradient><linearGradient id="b" x1="1.433" y1="0.494" x2="-3.479" y2="0.524" xlink:href="#a"/><linearGradient id="c" x1="0.3" y1="0.532" x2="-0.217" y2="0.616" xlink:href="#a"/></defs><g transform="translate(-2394.384 -3895.558)"><path class="a" d="M3461.756,4208.088a15.546,15.546,0,0,0-15.56,15.531v112.1a15.56,15.56,0,0,0,31.12,0v-112.1A15.546,15.546,0,0,0,3461.756,4208.088Z" transform="translate(-603.774 -179.402)"/><path class="b" d="M3464.844,4592.746h-6.177A12.461,12.461,0,0,0,3446.2,4605.2v67.074a12.461,12.461,0,0,0,12.472,12.449h6.177a12.46,12.46,0,0,0,12.471-12.449V4605.2A12.46,12.46,0,0,0,3464.844,4592.746Z" transform="translate(-603.774 -400.208)"/><path class="c" d="M2811.983,3895.558H2449.4a54.969,54.969,0,0,0-55.019,54.918v848.07a54.968,54.968,0,0,0,55.019,54.917h362.581A54.968,54.968,0,0,0,2867,4798.546v-848.07A54.969,54.969,0,0,0,2811.983,3895.558Z" transform="translate(0 0)"/><path class="d" d="M2815,3900.8H2452.419a52.791,52.791,0,0,0-52.779,52.683v848.069a52.791,52.791,0,0,0,52.779,52.683H2815a52.791,52.791,0,0,0,52.78-52.683V3953.488A52.791,52.791,0,0,0,2815,3900.8Z" transform="translate(-3.017 -3.012)"/><path class="d" d="M2818.083,3906.164H2455.5a50.5,50.5,0,0,0-50.492,50.4v848.072a50.5,50.5,0,0,0,50.492,50.4h362.581a50.5,50.5,0,0,0,50.492-50.4V3956.563A50.5,50.5,0,0,0,2818.083,3906.164Z" transform="translate(-6.1 -6.088)"/><path class="e" d="M2821.1,3911.41H2458.518a48.264,48.264,0,0,0-48.253,48.166v848.07a48.264,48.264,0,0,0,48.253,48.165H2821.1a48.264,48.264,0,0,0,48.254-48.165v-848.07A48.264,48.264,0,0,0,2821.1,3911.41Z" transform="translate(-9.116 -9.1)"/><path class="e" d="M2822.328,3913.546H2459.747a47.352,47.352,0,0,0-47.342,47.256v848.07a47.352,47.352,0,0,0,47.342,47.256h362.581a47.353,47.353,0,0,0,47.342-47.256V3960.8A47.352,47.352,0,0,0,2822.328,3913.546Z" transform="translate(-10.345 -10.326)"/><path class="e" d="M2824.138,3916.694H2461.557a46.009,46.009,0,0,0-46,45.915v848.07a46.009,46.009,0,0,0,46,45.915h362.581a46.01,46.01,0,0,0,46-45.915v-848.07A46.009,46.009,0,0,0,2824.138,3916.694Z" transform="translate(-12.155 -12.133)"/><path class="f" d="M2827.22,3922.053H2464.639a43.721,43.721,0,0,0-43.711,43.631v848.071a43.721,43.721,0,0,0,43.711,43.631H2827.22a43.72,43.72,0,0,0,43.711-43.631V3965.684A43.721,43.721,0,0,0,2827.22,3922.053Z" transform="translate(-15.237 -15.209)"/><path class="f" d="M2830.237,3927.3H2467.656a41.482,41.482,0,0,0-41.473,41.4v848.071a41.482,41.482,0,0,0,41.473,41.4h362.581a41.481,41.481,0,0,0,41.473-41.4V3968.7A41.482,41.482,0,0,0,2830.237,3927.3Z" transform="translate(-18.254 -18.22)"/><path class="g" d="M2833.254,3932.545H2470.673a39.243,39.243,0,0,0-39.234,39.163v848.071a39.243,39.243,0,0,0,39.234,39.162h362.581a39.243,39.243,0,0,0,39.234-39.162V3971.708A39.243,39.243,0,0,0,2833.254,3932.545Z" transform="translate(-21.271 -21.232)"/></g></svg>