<svg xmlns="http://www.w3.org/2000/svg" width="379.314" height="139.191" viewBox="0 0 379.314 139.191">
  <g id="Group_729" data-name="Group 729" transform="translate(0 -620.319)">
    <g id="_4for_literacy_01" data-name="4for literacy 01" transform="translate(-698.093 867.372)">
      <g id="Group_340" data-name="Group 340" transform="translate(698.093 -247.053)">
        <g id="Group_239" data-name="Group 239" transform="translate(257.395 8.836)">
          <path id="Path_312" data-name="Path 312" d="M400.995,163.235c-5.526-6.7-10.683-14.908-11.926-23.5s3.6-18.684,12.161-20.113c7.267-1.212,13.926,3.873,19.537,8.646-14.7-18.525-19.172-45.491-8.61-66.651s36.913-33.966,59.408-26.669c23.871,7.744,37.4,34.787,36.537,59.867s-11.379,47.512-25.257,68.421Z" transform="translate(-388.876 -32.884)" fill="#f1f2f3"/>
        </g>
        <g id="Group_243" data-name="Group 243" transform="translate(349.146 72.428)">
          <g id="Group_240" data-name="Group 240" transform="translate(4.098)">
            <path id="Path_313" data-name="Path 313" d="M1063.346,466.851H1041.42l0-.974h.078l21.844-.057Zm-21.77-.156h21.613v-.72l-21.61.057Z" transform="translate(-1041.42 -465.82)"/>
          </g>
          <g id="Group_241" data-name="Group 241" transform="translate(0 0.934)">
            <path id="Path_314" data-name="Path 314" d="M1015.244,538.009h-1.724l6.858-65.818.156.016-6.841,65.647h1.429l16.3-65.673.15.038Z" transform="translate(-1013.52 -472.18)"/>
          </g>
          <g id="Group_242" data-name="Group 242" transform="translate(12.117 0.934)">
            <path id="Path_315" data-name="Path 315" d="M1114.061,538.009h-1.724l-.015-.059-16.312-65.732.151-.038,16.3,65.673h1.431l-6.841-65.647.154-.016Z" transform="translate(-1096.01 -472.18)"/>
          </g>
        </g>
        <g id="Group_257" data-name="Group 257" transform="translate(18.15 11.949)">
          <g id="Group_244" data-name="Group 244" transform="translate(0.019 31.346)">
            <rect id="Rectangle_222" data-name="Rectangle 222" width="16.896" height="26.654" fill="#d4e5e0"/>
          </g>
          <g id="Group_245" data-name="Group 245" transform="translate(18.638 31.346)">
            <rect id="Rectangle_223" data-name="Rectangle 223" width="16.896" height="26.654" fill="#d4e5e0"/>
          </g>
          <g id="Group_246" data-name="Group 246" transform="translate(18.638 3.254)">
            <rect id="Rectangle_224" data-name="Rectangle 224" width="16.896" height="26.654" fill="#d4e5e0"/>
          </g>
          <g id="Group_247" data-name="Group 247" transform="translate(0.019 3.254)">
            <rect id="Rectangle_225" data-name="Rectangle 225" width="16.896" height="26.654" fill="#d4e5e0"/>
          </g>
          <g id="Group_248" data-name="Group 248" transform="translate(0 3.254)">
            <path id="Path_316" data-name="Path 316" d="M143.66,97.637l.178-.225L160.574,76.23v3.3L143.66,101.32" transform="translate(-143.66 -76.23)" fill="#d4eef2"/>
          </g>
          <g id="Group_249" data-name="Group 249" transform="translate(0.596 8.558)">
            <path id="Path_317" data-name="Path 317" d="M164.038,112.34,147.72,133.69h1.088l15.229-20Z" transform="translate(-147.72 -112.34)" fill="#d4eef2"/>
          </g>
          <g id="Group_250" data-name="Group 250" transform="translate(18.63 3.254)">
            <path id="Path_318" data-name="Path 318" d="M270.49,97.637l.178-.225L287.4,76.23v3.3L270.49,101.32" transform="translate(-270.49 -76.23)" fill="#d4eef2"/>
          </g>
          <g id="Group_251" data-name="Group 251" transform="translate(19.226 8.558)">
            <path id="Path_319" data-name="Path 319" d="M290.868,112.34,274.55,133.69h1.087l15.231-20Z" transform="translate(-274.55 -112.34)" fill="#d4eef2"/>
          </g>
          <g id="Group_252" data-name="Group 252" transform="translate(0 31.346)">
            <path id="Path_320" data-name="Path 320" d="M143.66,288.887l.178-.226,16.736-21.181v3.295l-16.914,21.8" transform="translate(-143.66 -267.48)" fill="#d4eef2"/>
          </g>
          <g id="Group_253" data-name="Group 253" transform="translate(0.596 36.65)">
            <path id="Path_321" data-name="Path 321" d="M164.038,303.59,147.72,324.94h1.088l15.229-20Z" transform="translate(-147.72 -303.59)" fill="#d4eef2"/>
          </g>
          <g id="Group_254" data-name="Group 254" transform="translate(18.63 31.346)">
            <path id="Path_322" data-name="Path 322" d="M270.49,288.887l.178-.226L287.4,267.48v3.295l-16.914,21.8" transform="translate(-270.49 -267.48)" fill="#d4eef2"/>
          </g>
          <g id="Group_255" data-name="Group 255" transform="translate(19.226 36.65)">
            <path id="Path_323" data-name="Path 323" d="M290.868,303.59,274.55,324.94h1.087l15.231-20Z" transform="translate(-274.55 -303.59)" fill="#d4eef2"/>
          </g>
          <g id="Group_256" data-name="Group 256" transform="translate(0.019)">
            <rect id="Rectangle_226" data-name="Rectangle 226" width="35.516" height="1.817" fill="#e18554"/>
          </g>
        </g>
        <g id="Group_267" data-name="Group 267" transform="translate(61.711 27.939)">
          <g id="Group_258" data-name="Group 258" transform="translate(0 16.494)">
            <path id="Path_324" data-name="Path 324" d="M330.331,300.309s2.923-16.326-7.96-25.079C322.372,275.23,319.131,286.868,330.331,300.309Z" transform="translate(-321.936 -275.23)" fill="#008d3d"/>
          </g>
          <g id="Group_259" data-name="Group 259" transform="translate(10.953)">
            <path id="Path_325" data-name="Path 325" d="M400.421,215.178s-8.558-16.733-.372-30.158C400.049,185.02,411.119,198.292,400.421,215.178Z" transform="translate(-396.504 -185.02)" fill="#008d3d"/>
          </g>
          <g id="Group_260" data-name="Group 260" transform="translate(20.342 25.09) rotate(-13)">
            <path id="Path_326" data-name="Path 326" d="M.761,18.9S-3.5,5.908,8.157,0C8.158,0,10.234,11.535.761,18.9Z" transform="translate(0 0)" fill="#008d3d"/>
          </g>
          <g id="Group_266" data-name="Group 266" transform="translate(5.803 18.102)">
            <g id="Group_261" data-name="Group 261" transform="translate(2.994 64.032)">
              <path id="Path_327" data-name="Path 327" d="M392.236,751.227h-7.618l-.007-.071L381.82,722.11h12.9l-.007.084Zm-7.477-.156h7.333l2.459-28.806H381.99Z" transform="translate(-381.82 -722.11)"/>
            </g>
            <g id="Group_262" data-name="Group 262" transform="translate(3.487 68.349)">
              <path id="Path_328" data-name="Path 328" d="M385.18,751.5h11.961l-.126,1.473-11.789-1.008Z" transform="translate(-385.18 -751.5)" fill="#39302a"/>
            </g>
            <g id="Group_263" data-name="Group 263" transform="translate(0 13.071)">
              <path id="Path_329" data-name="Path 329" d="M368.78,426.213c-.006-.087-.567-8.838-1.748-19.448-1.09-9.79-2.944-23.211-5.592-31.548l.148-.047c2.653,8.349,4.508,21.78,5.6,31.579,1.181,10.614,1.742,19.367,1.748,19.455Z" transform="translate(-361.44 -375.17)"/>
            </g>
            <g id="Group_264" data-name="Group 264" transform="translate(8.236)">
              <path id="Path_330" data-name="Path 330" d="M418.641,350.292c-.007-.543-.67-54.474-1.131-64.1l.156-.007c.461,9.633,1.125,63.565,1.131,64.11Z" transform="translate(-417.51 -286.18)"/>
            </g>
            <g id="Group_265" data-name="Group 265" transform="translate(11.19 16.391)">
              <path id="Path_331" data-name="Path 331" d="M437.776,445.495l-.156-.012c.023-.307,2.419-30.911,8.563-47.713l.145.053C440.193,414.6,437.8,445.188,437.776,445.495Z" transform="translate(-437.62 -397.77)"/>
            </g>
          </g>
        </g>
        <g id="Group_269" data-name="Group 269" transform="translate(312.483 86.441)">
          <g id="Group_268" data-name="Group 268">
            <path id="Path_332" data-name="Path 332" d="M770.2,561.22s-8.111,1.074-5.908,10.765c1.717,7.553,18.151,36.656,18.151,36.656h3.835s-6.592-32.718-13.345-35.93c0,0,27.2.156,29.366,0s9.471-2.1,10.4-11.184Z" transform="translate(-763.917 -561.22)" fill="#c9d9e8"/>
          </g>
        </g>
        <g id="Group_272" data-name="Group 272" transform="translate(312.484 86.368)">
          <g id="Group_271" data-name="Group 271">
            <g id="Group_270" data-name="Group 270">
              <path id="Path_333" data-name="Path 333" d="M786.385,560.837s-7.327-.636-10.231,9.38c-2.932,10.113-12.234,38-12.234,38h4.305s16.813-24.84,17.043-35.657c0,0,10.962,3.458,22.261,1.074,7.2-1.519,8.641-10.482,7.391-12.531-.442-.726-3.9-.179-7.942-.228C795.639,560.742,786.385,560.837,786.385,560.837Z" transform="translate(-763.92 -560.725)" fill="#c9d9e8"/>
            </g>
          </g>
        </g>
        <g id="Group_273" data-name="Group 273" transform="translate(283.816 133.862)">
          <path id="Path_334" data-name="Path 334" d="M729.532,884.06l-1.66,2.772s-5.137,1.52-5.192,2.479h8.668a.793.793,0,0,0,.577-.7c.056-.577.656-4.552.656-4.552Z" transform="translate(-722.68 -884.06)" fill="#39302a"/>
        </g>
        <g id="Group_275" data-name="Group 275" transform="translate(333.107 53.603)">
          <g id="Group_274" data-name="Group 274">
            <path id="Path_335" data-name="Path 335" d="M933.815,361.249c.7-7.337-4.918-17.353-5.445-18.273l-.009-.016-.035-.06h0a9.833,9.833,0,0,0-3.638-3.979,14.056,14.056,0,0,0-9.113-.868,5.979,5.979,0,0,0-3.917,2.637,10.219,10.219,0,0,0-1.431,2.974,43.613,43.613,0,0,0-1.238,5.893c-.367-3.925-.892-7.494-.892-7.494l-2.543-.031c-1.807,8.7-2.428,23.79,3.964,23.243a3.445,3.445,0,0,0,1.842-.773v2.09l.783.012c.311,1.829.727,3.453,1.3,3.893l21.255.307C934.953,370.033,934.63,366.438,933.815,361.249Zm-22.067,2.913.037-.037c0,.009,0,.018,0,.026Z" transform="translate(-904.325 -337.658)" fill="#f7603b"/>
          </g>
        </g>
        <g id="Group_277" data-name="Group 277" transform="translate(286.315 66.319)">
          <g id="Group_276" data-name="Group 276">
            <path id="Path_336" data-name="Path 336" d="M739.451,439.562h-19.4L716.81,424.23h19.4Z" transform="translate(-716.81 -424.23)" fill="#e4dfe5"/>
          </g>
        </g>
        <g id="Group_279" data-name="Group 279" transform="translate(291.075 81.651)">
          <g id="Group_278" data-name="Group 278">
            <rect id="Rectangle_227" data-name="Rectangle 227" width="25.339" height="0.918" fill="#e4dfe5"/>
          </g>
        </g>
        <g id="Group_281" data-name="Group 281" transform="translate(291.075 81.651)">
          <g id="Group_280" data-name="Group 280">
            <rect id="Rectangle_228" data-name="Rectangle 228" width="25.339" height="0.458" fill="#39302a"/>
          </g>
        </g>
        <g id="Group_283" data-name="Group 283" transform="translate(328.283 81.88)">
          <g id="Group_282" data-name="Group 282">
            <path id="Path_337" data-name="Path 337" d="M871.48,530.4v.458h5.472v-.687Z" transform="translate(-871.48 -530.17)" fill="#39302a"/>
          </g>
        </g>
        <g id="Group_284" data-name="Group 284" transform="translate(334.202 96.65)">
          <path id="Path_338" data-name="Path 338" d="M937.651,632.477l.911-1.757h0a1.57,1.57,0,0,1,1.409,2.262l-.757,1.539H911.78v-2.043h25.871Z" transform="translate(-911.78 -630.72)" fill="#0e0654"/>
        </g>
        <g id="Group_286" data-name="Group 286" transform="translate(8.844 86.441)">
          <g id="Group_285" data-name="Group 285">
            <path id="Path_339" data-name="Path 339" d="M117.509,561.22s8.11,1.074,5.908,10.765c-1.717,7.553-17.828,36.656-17.828,36.656h-3.835s7.579-33.054,13.02-35.93c0,0-21.905.156-24.07,0s-9.471-2.1-10.4-11.184Z" transform="translate(-80.3 -561.22)" fill="#425eaa"/>
          </g>
        </g>
        <g id="Group_289" data-name="Group 289" transform="translate(6.233 86.368)">
          <g id="Group_288" data-name="Group 288">
            <g id="Group_287" data-name="Group 287">
              <path id="Path_340" data-name="Path 340" d="M91.464,560.837s9.276-.986,10.367,11.72c.859,10.015,2.071,35.661,2.071,35.661H99.6s-6.785-24.84-7.015-35.657c0,0-10.962,3.458-22.261,1.074-7.2-1.519-8.641-10.482-7.391-12.531.442-.726,3.9-.179,7.942-.228C82.211,560.742,91.464,560.837,91.464,560.837Z" transform="translate(-62.527 -560.725)" fill="#425eaa"/>
            </g>
          </g>
        </g>
        <g id="Group_290" data-name="Group 290" transform="translate(43.85 133.862)">
          <path id="Path_341" data-name="Path 341" d="M321.669,884.06l1.316,2.772s5.137,1.52,5.192,2.479H319.51a.793.793,0,0,1-.577-.7c-.056-.577-.313-4.552-.313-4.552Z" transform="translate(-318.62 -884.06)" fill="#39302a"/>
        </g>
        <g id="Group_291" data-name="Group 291" transform="translate(29.283 133.862)">
          <path id="Path_342" data-name="Path 342" d="M223.808,884.06l-.3,2.772s1.491,1.52,1.547,2.479h-5.024a.793.793,0,0,1-.577-.7,34.886,34.886,0,0,1,1.307-4.552Z" transform="translate(-219.449 -884.06)" fill="#39302a"/>
        </g>
        <g id="Group_292" data-name="Group 292" transform="translate(328.516 133.862)">
          <path id="Path_343" data-name="Path 343" d="M876.1,884.06l.3,2.772s-3.283,1.52-3.339,2.479H879.7a.793.793,0,0,0,.577-.7,37.89,37.89,0,0,0-1.119-4.552Z" transform="translate(-873.07 -884.06)" fill="#39302a"/>
        </g>
        <g id="Group_293" data-name="Group 293" transform="translate(0 53.657)">
          <path id="Path_344" data-name="Path 344" d="M57,343.2s-6.719,10.657-7.5,15.593a74.293,74.293,0,0,0-2.255-14.821c-.464-1.556-1.647-4.142-4.013-5.1a5.242,5.242,0,0,0-1.533-.511s-6.24-1.225-10.57.965a4.618,4.618,0,0,0-1.619,1.463s0,0,0,0-10.357,14.148-9.342,21.2c.448,3.108,3.089,4.483,6.125,4.8a24.438,24.438,0,0,0,.438,4.333l21.254-.307c.311-1.623.551-3.23.723-4.843,5.856.476,8.941-12.734,10.494-21.7ZM26.2,360.684c0,.253,0,.5-.006.746a2.559,2.559,0,0,0-.345.069S25.98,361.2,26.2,360.684Z" transform="translate(-20.093 -338.025)" fill="#ffcf62"/>
        </g>
        <g id="Group_295" data-name="Group 295" transform="translate(61.294 66.319)">
          <g id="Group_294" data-name="Group 294">
            <path id="Path_345" data-name="Path 345" d="M324.09,439.562h17.051l2.851-15.332H326.941Z" transform="translate(-324.09 -424.23)" fill="#e4dfe5"/>
          </g>
        </g>
        <g id="Group_297" data-name="Group 297" transform="translate(36.365 81.65)">
          <g id="Group_296" data-name="Group 296" transform="translate(0)">
            <rect id="Rectangle_229" data-name="Rectangle 229" width="25.339" height="0.918" transform="translate(25.339 0.918) rotate(180)" fill="#e4dfe5"/>
          </g>
        </g>
        <g id="Group_299" data-name="Group 299" transform="translate(36.364 81.651)">
          <g id="Group_298" data-name="Group 298">
            <rect id="Rectangle_230" data-name="Rectangle 230" width="25.339" height="0.458" fill="#39302a"/>
          </g>
        </g>
        <g id="Group_301" data-name="Group 301" transform="translate(36.364 81.88)">
          <g id="Group_300" data-name="Group 300">
            <path id="Path_346" data-name="Path 346" d="M271.79,530.4v.458h-4.13v-.687Z" transform="translate(-267.66 -530.17)" fill="#39302a"/>
          </g>
        </g>
        <g id="Group_303" data-name="Group 303" transform="translate(21.723 80.291)">
          <g id="Group_302" data-name="Group 302">
            <path id="Path_347" data-name="Path 347" d="M168,519.35a23.843,23.843,0,0,1,3.1.577,8.678,8.678,0,0,1,1.892,1.7h-3.032s-1.619.079-1.962-.544C168,521.08,167.957,519.957,168,519.35Z" transform="translate(-167.981 -519.35)" fill="#f79673"/>
          </g>
        </g>
        <g id="Group_305" data-name="Group 305" transform="translate(335.13 80.291)">
          <g id="Group_304" data-name="Group 304">
            <path id="Path_348" data-name="Path 348" d="M923.112,519.35a22.269,22.269,0,0,0-3.114.864,13.788,13.788,0,0,0-1.9,1.412h3.032s1.636.075,1.98-.548C923.112,521.076,923.131,520.015,923.112,519.35Z" transform="translate(-918.1 -519.35)" fill="#f79673"/>
          </g>
        </g>
        <g id="Group_307" data-name="Group 307" transform="translate(7.564 96.65)">
          <path id="Path_349" data-name="Path 349" d="M74.073,632.477l-.911-1.757h0a1.57,1.57,0,0,0-1.409,2.262l.756,1.539H99.944v-2.043H74.073Z" transform="translate(-71.591 -630.72)" fill="#0e0654"/>
        </g>
        <g id="Group_308" data-name="Group 308" transform="translate(299.819 98.768)">
          <path id="Path_350" data-name="Path 350" d="M811.251,658.811l4.025-12.682h0a10.606,10.606,0,0,0-.881-.989c-.448,2.2-3.245,13.477-3.245,13.477l.1.2S811.251,658.812,811.251,658.811Z" transform="translate(-811.15 -645.14)" fill="#39302a"/>
        </g>
        <g id="Group_309" data-name="Group 309" transform="translate(323.547 86.442)">
          <path id="Path_351" data-name="Path 351" d="M840.411,570.648c2.905-10.016,10.231-9.38,10.231-9.38h.209l.025-.037h-5.889c-4.392,1.841-5.746,11.5-5.746,11.5l.552,0C840.02,571.976,840.227,571.279,840.411,570.648Z" transform="translate(-839.24 -561.23)" fill="#39302a"/>
        </g>
        <g id="Group_310" data-name="Group 310" transform="translate(324.331 112.377)">
          <path id="Path_352" data-name="Path 352" d="M849.493,737.806c-1.513,3.152-3.236,6.341-4.909,9.264l0,.009.085.159s3.979-4.835,5.5-7.355c0,0-.576-1.744-.667-2.093Z" transform="translate(-844.58 -737.79)" fill="#39302a"/>
        </g>
        <g id="Group_313" data-name="Group 313" transform="translate(340.142 64.662)">
          <g id="Group_311" data-name="Group 311" transform="translate(13.155)">
            <path id="Path_353" data-name="Path 353" d="M1041.781,412.954v0c0,.012,0,.026,0,.038Z" transform="translate(-1041.78 -412.95)" fill="#39302a"/>
          </g>
          <g id="Group_312" data-name="Group 312" transform="translate(0 0.198)">
            <path id="Path_354" data-name="Path 354" d="M969.071,426.849s-2.065-5.9-3.389-10.67a8.127,8.127,0,0,1-.3-1.879c.131,3.834,2.925,12.315,2.925,12.315-5.013-.194-16.086,3.03-16.086,3.03S966.029,426.017,969.071,426.849Z" transform="translate(-952.22 -414.3)" fill="#39302a"/>
          </g>
        </g>
        <g id="Group_314" data-name="Group 314" transform="translate(352.014 77.214)">
          <path id="Path_355" data-name="Path 355" d="M1043.627,498.4l-.006,0c-.013.134-.023.269-.04.4-.43,3.28-3.378,4.628-6.614,4.84-.984.065-2.377.1-3.928.123v.191s5.09.038,7.189-.642,3.45-2.195,3.63-3.4Z" transform="translate(-1033.04 -498.4)" fill="#39302a"/>
        </g>
        <g id="Group_315" data-name="Group 315" transform="translate(337.772 65.499)">
          <path id="Path_356" data-name="Path 356" d="M936.08,418.65s.665,7.312,0,9.476C936.08,428.126,937.522,428.274,936.08,418.65Z" transform="translate(-936.08 -418.65)" fill="#39302a"/>
        </g>
        <g id="Group_316" data-name="Group 316" transform="translate(339.14 59.606)">
          <path id="Path_357" data-name="Path 357" d="M945.752,378.53a94.439,94.439,0,0,0,.645,16.56S944.666,385.243,945.752,378.53Z" transform="translate(-945.394 -378.53)" fill="#39302a"/>
        </g>
        <g id="Group_317" data-name="Group 317" transform="translate(36.68 108.549)">
          <path id="Path_358" data-name="Path 358" d="M270.649,711.74v-.01s-.541,1.507-.837,2.393c0,0,1.848,7.159,3.472,11.741l.228-.433h0C272.51,721.166,271.443,716.276,270.649,711.74Z" transform="translate(-269.81 -711.73)" fill="#39302a"/>
        </g>
        <g id="Group_318" data-name="Group 318" transform="translate(36.025 86.441)">
          <path id="Path_359" data-name="Path 359" d="M274.862,572.98c.261,3.039.554,7.518.836,12.281h0l.336-.692s.574-14.58-2.058-18.932a9.533,9.533,0,0,0-5.065-4.417l-3.562.031C267.672,561.368,273.975,562.643,274.862,572.98Z" transform="translate(-265.35 -561.22)" fill="#39302a"/>
        </g>
        <g id="Group_319" data-name="Group 319" transform="translate(6.197 82.416)">
          <path id="Path_360" data-name="Path 360" d="M62.769,533.861c-.154-.01-.307-.025-.46-.041H62.28s.019.416.035.7c0,0,5.207-.032,8.988-.163v-.352C68.2,534.017,64.749,533.992,62.769,533.861Z" transform="translate(-62.28 -533.82)" fill="#39302a"/>
        </g>
        <g id="Group_322" data-name="Group 322" transform="translate(6.109 64.584)">
          <g id="Group_320" data-name="Group 320" transform="translate(0 0.163)">
            <path id="Path_361" data-name="Path 361" d="M66.248,413.53a8.4,8.4,0,0,1-.357,1.253c-1.359,3.64-3.4,8.431-4.211,10.316v.745h0c3.572-.5,15.633,3.146,15.633,3.146s-12.042-3.937-15.151-3.342A64.839,64.839,0,0,0,66.248,413.53Z" transform="translate(-61.68 -413.53)" fill="#39302a"/>
          </g>
          <g id="Group_321" data-name="Group 321" transform="translate(4.571)">
            <path id="Path_362" data-name="Path 362" d="M92.828,412.42l0,.009c-.009.047-.016.094-.025.141C92.809,412.52,92.819,412.47,92.828,412.42Z" transform="translate(-92.8 -412.42)" fill="#39302a"/>
          </g>
        </g>
        <g id="Group_323" data-name="Group 323" transform="translate(26.919 60.752)">
          <path id="Path_363" data-name="Path 363" d="M203.36,386.33a111.326,111.326,0,0,1,1.946,17.5A74.263,74.263,0,0,0,203.36,386.33Z" transform="translate(-203.36 -386.33)" fill="#39302a"/>
        </g>
        <g id="Group_325" data-name="Group 325" transform="translate(37.222 54.83)">
          <g id="Group_324" data-name="Group 324">
            <path id="Path_364" data-name="Path 364" d="M273.5,350.174a13.1,13.1,0,0,1,1.57-3,5.162,5.162,0,0,1,1.814-1.157,7.572,7.572,0,0,1-.914,1.309,3.294,3.294,0,0,1,.717,1.348,2.881,2.881,0,0,1-1.556,2.284Z" transform="translate(-273.5 -346.013)" fill="#f79673"/>
          </g>
        </g>
        <g id="Group_326" data-name="Group 326" transform="translate(331.779 52.702)">
          <path id="Path_365" data-name="Path 365" d="M900.029,336.827a7.085,7.085,0,0,1,1.249-2.2c.579-.427-.781-.047-1.249.618,0,0-2.994-3.675-3.149-3.715a16.784,16.784,0,0,0,1.088,2.241s-1.983-2.137-2.137-2.177a27,27,0,0,0,1.554,2.618,22.761,22.761,0,0,0-2.008-1.782,18.9,18.9,0,0,0,1.62,2.118s-1.645,0-1.71.026a12.557,12.557,0,0,0,1.516.519c.182.038.933,1.379,1.309,1.714Z" transform="translate(-895.285 -331.527)" fill="#f79673"/>
        </g>
        <g id="Group_327" data-name="Group 327" transform="translate(14.792 42.82)">
          <path id="Path_366" data-name="Path 366" d="M127.749,275.369l-.013,0a18.612,18.612,0,0,1-.944-5.386v-.245a3.758,3.758,0,0,0,.342-.953,10.673,10.673,0,0,0-.363-4.53l-4.408.016h0l-.7,0,.006,1.629a.918.918,0,0,0-.081.073,1.01,1.01,0,0,0,.085,1.31l.01,2.563a27.659,27.659,0,0,1-.871,5.4H120.8l0,.018s0,.009,0,.015h.007c.751,3.994,6.218,5.993,7.441,4.125S127.749,275.369,127.749,275.369Z" transform="translate(-120.8 -264.25)" fill="#f79673"/>
        </g>
        <g id="Group_328" data-name="Group 328" transform="translate(20.775 48.327)">
          <path id="Path_367" data-name="Path 367" d="M161.53,301.74s2.632,3.693,2.359,6.178a7.361,7.361,0,0,0-1.323-.47S161.661,306.427,161.53,301.74Z" transform="translate(-161.53 -301.74)" fill="#39302a"/>
        </g>
        <g id="Group_329" data-name="Group 329" transform="translate(342.714 42.952)">
          <path id="Path_368" data-name="Path 368" d="M977.4,276.062a.147.147,0,0,1,0-.015.077.077,0,0,1,0-.018h-.009a27.572,27.572,0,0,1-1.282-5.319l-.187-2.556a1.009,1.009,0,0,0-.015-1.313c-.028-.025-.057-.046-.085-.066l-.117-1.625-.7.051h0l-4.4.322a10.651,10.651,0,0,0-.015,4.545A3.751,3.751,0,0,0,971,271l.018.235a18.631,18.631,0,0,1-.529,5.442l-.013.006s-1.556,2.29-.188,4.064,6.661-.643,7.1-4.683C977.4,276.064,977.4,276.062,977.4,276.062Z" transform="translate(-969.73 -265.15)" fill="#f79673"/>
        </g>
        <g id="Group_332" data-name="Group 332" transform="translate(294.653 8.093)">
          <g id="Group_330" data-name="Group 330" transform="translate(0 10.353)">
            <path id="Path_369" data-name="Path 369" d="M783.4,110.374H766.01l.078-.12,7.745-11.943h1.742l.023.035Zm-17.1-.154h16.816l-7.62-11.752h-1.573Z" transform="translate(-766.01 -98.31)"/>
          </g>
          <g id="Group_331" data-name="Group 331" transform="translate(8.616)">
            <rect id="Rectangle_232" data-name="Rectangle 232" width="0.156" height="10.43"/>
          </g>
        </g>
        <g id="Group_335" data-name="Group 335" transform="translate(338.691 0)">
          <g id="Group_333" data-name="Group 333" transform="translate(0 14.09)">
            <path id="Path_370" data-name="Path 370" d="M966,114.729H942.34l.106-.164L952.988,98.31h2.371l.032.048Zm-23.276-.21h22.887l-10.372-16H953.1Z" transform="translate(-942.34 -98.31)"/>
          </g>
          <g id="Group_334" data-name="Group 334" transform="translate(11.727)">
            <rect id="Rectangle_233" data-name="Rectangle 233" width="0.212" height="14.196" transform="translate(0)"/>
          </g>
        </g>
        <g id="Group_336" data-name="Group 336" transform="translate(17.426 48.327)">
          <path id="Path_371" data-name="Path 371" d="M142.079,301.74s-.98,1.921-3.349.649c0,0,1.072,3.211,3.587,2.366A22.93,22.93,0,0,1,142.079,301.74Z" transform="translate(-138.73 -301.74)" fill="#d07c61"/>
        </g>
        <g id="Group_337" data-name="Group 337" transform="translate(10.792 40.948)">
          <path id="Path_372" data-name="Path 372" d="M103.558,252.6a4.37,4.37,0,0,0-4.577-.777c-1.924.777-2.078,3.005-2.156,5.364-.066,1.989-4.3,4.6-3.019,8.336a13.087,13.087,0,0,1,3.757-1.112,8.152,8.152,0,0,0,1.18-4.135c-.009-1.489-.022-2.786.041-3.586a1.066,1.066,0,0,1-.436-1.588c.561-.588,1.215.044,1.215.044.031.057.057.113.082.17a2.847,2.847,0,0,0,.554-.721,19.656,19.656,0,0,0,3.646,0A2.426,2.426,0,0,0,103.558,252.6Z" transform="translate(-93.565 -251.507)" fill="#39302a"/>
        </g>
        <g id="Group_338" data-name="Group 338" transform="translate(343.929 48.813)">
          <path id="Path_373" data-name="Path 373" d="M978.066,305.05s1.124,1.84,3.389.392c0,0-.883,3.27-3.455,2.619A17.8,17.8,0,0,0,978.066,305.05Z" transform="translate(-978 -305.05)" fill="#d07c61"/>
        </g>
        <g id="Group_339" data-name="Group 339" transform="translate(342.964 41.205)">
          <path id="Path_374" data-name="Path 374" d="M977.2,254.326c-.207-.336-1.14-.427-2.242-.4s-1.58-.8-2.642-.648c-1.011.148-1.163,1.608-.454,2.362,0,0,0,0,0,0a.735.735,0,0,0,.029.677s.063-.455.087-.564c.839.712,2.271-.065,2.945.441a3.01,3.01,0,0,0,1.409.48.765.765,0,0,1,1.022.024,1.03,1.03,0,0,1-.079,1.423c.113.507.172.946.172.946.41-.15.523-2.576.614-3.561A1.088,1.088,0,0,0,977.2,254.326Z" transform="translate(-971.427 -253.257)" fill="#39302a"/>
        </g>
      </g>
      <path id="Path_375" data-name="Path 375" d="M132.408,277.5a8.808,8.808,0,0,1-3.223.251c-.141-.269-.686-1.262-1.237-1.47l.051.107a2.249,2.249,0,0,1,.538.524,5.365,5.365,0,0,1,.526.828h0a1.453,1.453,0,0,1-.247,1.44c-.338-.272-1.251-1.011-1.647-1.354-.035-.031-.342-.269-.332-.254a22.756,22.756,0,0,0,1.976,1.752c1.868,2.008,2.9,1.014,2.9,1.014C133.075,279.354,132.408,277.5,132.408,277.5Z" transform="translate(586.751 -478.746)" fill="#fff"/>
      <path id="Path_376" data-name="Path 376" d="M979.1,276.909s-.2.307-.266.386c-.247.322-.874,1.036-1.231,1.437a2.446,2.446,0,0,1-.521-1.331,5.094,5.094,0,0,1,1.043-1.7,1.385,1.385,0,0,0-.275.157,6.1,6.1,0,0,0-.856,1.472,5.546,5.546,0,0,1-3.618-.022c-.485,2.578,1.265,3.293,1.265,3.293,1.147.527,2.615-1.251,2.955-1.691A12.619,12.619,0,0,0,979.1,276.909Z" transform="translate(68.039 -478.251)" fill="#fff"/>
    </g>
    <g id="Group_306" data-name="Group 306" transform="translate(15.22 702.887)">
      <rect id="Rectangle_231" data-name="Rectangle 231" width="336.794" height="3.873" fill="#7c3b14"/>
    </g>
  </g>
</svg>
