<svg xmlns="http://www.w3.org/2000/svg" width="870.1" height="844.437" viewBox="0 0 870.1 844.437"><defs><style>.a{fill:#4baf96;}.b{fill:#39302a;}.c{fill:#778d3c;}</style></defs><g transform="translate(-612.07 -180)"><g transform="translate(612.07 955.598)"><path class="a" d="M556.546,928.192c-6.394,1.485-10.3,8.465-12.68,16.761-4.606-19.412-14.039-31.667-19.1-21.539-4.866,9.731,2.713,29.264,8.869,42.186-3.893-6.284-9.01-12.552-13.92-12.51-9.831.087,15.161,25.12,15.161,25.12h11.052S574.188,924.1,556.546,928.192Z" transform="translate(-517.421 -909.373)"/><path class="a" d="M1426.992,923.308c-7.34,0-14.02,11.779-18.986,24.045-.112-27.969-8.5-49.463-16.851-38.879-10.955,13.877,8.083,66.091,8.083,66.091h6.221S1442.3,923.308,1426.992,923.308Z" transform="translate(-743.293 -905.727)"/></g><g transform="translate(1110.698 268.407)"><g transform="translate(150.085 437.532)"><path d="M1354.237,989.789h-64.359l-.145-.427c-16.67-48.89-36.866-314.7-37.068-317.38l-.052-.678H1391.5l-.052.678c-.2,2.681-20.4,268.49-37.066,317.38Zm-63.453-1.263h62.549c16.174-48.594,35.658-300.942,36.807-315.96H1253.973C1255.123,687.584,1274.606,939.932,1290.783,988.526Z" transform="translate(-1252.612 -671.304)"/></g><g transform="translate(153.266 469.654)"><path class="b" d="M1255.868,704.186H1388.4l-1.052,12.715-131.476-6.357Z" transform="translate(-1255.868 -704.186)"/></g><g transform="translate(0 167.442)"><path class="c" d="M1217.9,400.809c6.357,23.494,6.377,41.5,6.377,41.5-1.547-15.918-7.891-33.993-11.556-43.4-16.2-5.3-34.017-4.885-50.665-1.921l3.826,13.441-8.58-12.523c-31.927,6.662-58.329,21.773-58.329,21.773,19.125,1.612,38.762,16.741,63.012,38.7,8.891-4.6,24.457-11.264,41.775-12.282,0,0-22.1,6.535-37.182,16.462,6.16,5.651,12.619,11.7,19.445,18.037a105.986,105.986,0,0,0,31.469,20.186c4.871-2.383,10.256-5.13,10.256-5.13l-3.973,7.528c24.052,8.4,44.153,6.446,44.153,6.446C1267.6,442.835,1245.77,412.391,1217.9,400.809Z" transform="translate(-1098.976 -394.825)"/></g><g transform="translate(165.088)"><path class="c" d="M1330.453,393.212l14.406-5.873c7.88-34.322,5.523-67.71,1.621-91.1-16.755,5.639-34.965,16.171-34.965,16.171A200.564,200.564,0,0,1,1345.38,290.1c-1.6-8.384-3.316-15.155-4.625-19.7a293.064,293.064,0,0,1-9.67-46.983,197.981,197.981,0,0,0-32.674,34.694l6.476,16.1-8.907-12.638a154.639,154.639,0,0,0-27.338,75.072c10.356,4.991,27.535,14.11,34,22.474,0,0-17.043-11.847-34.327-18.3-4.358,68.127,34.524,124.939,34.524,124.939,22.307-22.78,34.765-49.153,41.228-75.172Z" transform="translate(-1267.969 -223.421)"/></g><g transform="translate(249.593 159.779)"><path class="c" d="M1407.152,506.963a4.959,4.959,0,0,1-1.785-.127l1.785.127c4.5-.065,16.685-1.146,26.754-2.108,16.576-21.029,23.757-44.519,27.087-61.109-13.485.408-33.2,1.6-47.419,5.012a228.581,228.581,0,0,1,48.3-9.7c.826-4.76,1.334-8.768,1.677-11.682,2.945-25.02,12.625-36.39,12.625-36.39a130.024,130.024,0,0,0-34.319-3.962c-3.731,5.865-8.031,13.967-8.4,20.382a75.827,75.827,0,0,1,1.407-19.935c-25,2.593-42.364,14.92-54.356,31.733,1.406,24.978-3.551,56.382-3.551,56.382,1.358-15.055-.048-37.029-1.058-49.279-28.477,48.291-20.356,123.839-20.356,123.839,35.587-6.825,59.322-22.932,75.238-41.5Z" transform="translate(-1354.474 -386.98)"/></g><g transform="translate(109.022 212.525)"><path d="M1317.548,666.659c-.029-.387-2.987-39.1-17.611-85.938-13.487-43.188-39.937-102.314-89.36-138.731l.75-1.016c49.7,36.625,76.282,96.021,89.823,139.4,14.665,46.971,17.629,85.807,17.656,86.192Z" transform="translate(-1210.577 -440.974)"/></g><g transform="translate(199.149 130.016)"><path d="M1310.09,664.7c-.128-2.257-12.945-226.626-4.2-308.184l1.258.136c-8.732,81.454,4.079,305.718,4.21,307.974Z" transform="translate(-1302.837 -356.513)"/></g><g transform="translate(224.087 226.369)"><path d="M1329.611,667.028l-1.247-.178c.21-1.489,21.636-149.741,70.835-211.7l.987.784C1351.2,517.626,1329.823,665.541,1329.611,667.028Z" transform="translate(-1328.364 -455.146)"/></g></g><path d="M1238.115,225.257H1155.83a.632.632,0,0,0-.631.631v52.975a.632.632,0,0,0,.631.632h82.285a.632.632,0,0,0,.631-.632V225.888A.632.632,0,0,0,1238.115,225.257ZM1183.426,244.4l-26.965,18.714V227.047Zm-25.449-17.886h77.991l-39,25.105Zm79.506.527v36.159l-27.03-18.758Zm-81.022,51.185V264.657l28.115-19.511,12.054,7.759a.63.63,0,0,0,.686,0l11.988-7.717,28.18,19.555v13.489Z" transform="translate(243.423 64.944)"/><g transform="translate(1225.158 180)"><path d="M1155.356,202.54a.643.643,0,0,1-.186-.027.633.633,0,0,1-.447-.6V113.08a.632.632,0,0,1,.632-.631h153.265a.631.631,0,0,1,.631.631V169.7a.631.631,0,0,1-.631.631H1177.4l-21.518,31.935A.628.628,0,0,1,1155.356,202.54Zm.631-88.828v86.13l20.551-30.5a.632.632,0,0,1,.524-.279h130.928V113.711Z" transform="translate(-1154.724 -112.449)"/><g transform="translate(24.597 33.893)"><path class="b" d="M1184.864,149.624a2.48,2.48,0,1,1-2.48-2.48A2.48,2.48,0,0,1,1184.864,149.624Z" transform="translate(-1179.903 -147.144)"/></g><g transform="translate(61.509 33.893)"><path class="b" d="M1222.648,149.624a2.48,2.48,0,1,1-2.48-2.48A2.481,2.481,0,0,1,1222.648,149.624Z" transform="translate(-1217.688 -147.144)"/></g><g transform="translate(98.421 33.893)"><path class="b" d="M1260.434,149.624a2.48,2.48,0,1,1-2.481-2.48A2.481,2.481,0,0,1,1260.434,149.624Z" transform="translate(-1255.473 -147.144)"/></g><g transform="translate(135.331 33.893)"><path class="b" d="M1298.219,149.624a2.481,2.481,0,1,1-2.48-2.48A2.481,2.481,0,0,1,1298.219,149.624Z" transform="translate(-1293.257 -147.144)"/></g></g></g></svg>