<svg xmlns="http://www.w3.org/2000/svg" width="346.925" height="267.715" viewBox="0 0 346.925 267.715"><defs><style>.a{fill:#dce9e7;}.b{fill:#f78801;}.c{fill:#e0dfde;}.d{fill:#9bc3ce;}.e{fill:#3c45b2;}.f{fill:#3e2138;}.g{fill:#2e3e8f;}.h{fill:#23388b;}.i{fill:#2b3c9c;}.j{fill:#5c5866;}.k{fill:#39302a;}.l{fill:#b1d4e4;}.m{fill:#91b5c1;}.n{fill:none;stroke:#f1f4f7;stroke-miterlimit:10;stroke-width:0.25px;}.o{fill:#da7036;}.p{fill:#db6e36;}.q{fill:#b35022;}.r{fill:#f2f0ef;}.s{fill:#d2d0cf;}.t{fill:#ff5653;}.u{fill:#c05b29;}</style></defs><g transform="translate(29.602 -50.85)"><g transform="translate(-29.602 147.461)"><path class="a" d="M93.065,449.98c.094-1.722.177-3.587.244-5.58.68-2.1,2.048-8.034,4.34-14.839.125-.375.25-.744.375-1.109q6.825-6.944,13.647-13.891c2.709-2.758,5.544-5.742,6.3-9.536s-1.621-8.46-5.489-8.585c-2.743-.088-5.038,2.024-6.744,4.172a37.861,37.861,0,0,0-7.988,26.1q-.448,1.257-.893,2.587a118.865,118.865,0,0,0-3.471,12.361c.043-1.716.079-3.508.1-5.367.043-5.157-.006-10.825-.21-16.774-.219-5.946-.567-11.605-.975-16.747-.052-.6-.1-1.2-.152-1.786a91.944,91.944,0,0,0,3.1-29.419c-.3-5.336-1.926-11.712-7.043-13.263-4.474-1.359-9.3,2.2-10.819,6.623s-.546,9.3.884,13.751a71.1,71.1,0,0,0,13.19,23.863c.009.1.015.2.024.3.009.119.018.241.027.36-.079.259-.152.521-.232.78l.244-.646c.378,5,.713,10.472.923,16.217.2,5.934.253,11.593.222,16.738-.012,1.365-.034,2.694-.055,3.983-.165-1.009-.378-2.173-.646-3.471-.247-1.173-.527-2.456-.893-3.816-.329-1.371-.765-2.813-1.21-4.334-.942-3.026-2.1-6.315-3.511-9.692-.9-2.13-1.85-4.163-2.8-6.077a88.728,88.728,0,0,0-8.36-26.176c-1.512-3.014-3.279-6.031-6.007-8.012s-6.65-2.667-9.472-.823a8.131,8.131,0,0,0-3.307,7.189,15.267,15.267,0,0,0,2.886,7.653c6.239,9.274,17.49,14.031,24.546,22.656l.091.192c0,.027.009.058.012.085L84,415.7q.814,1.737,1.594,3.575c1.4,3.349,2.548,6.613,3.5,9.612.448,1.509.89,2.935,1.231,4.291.375,1.347.674,2.615.945,3.776.61,2.651,1.018,4.742,1.3,6.037-.058,2.514-.134,4.849-.222,6.961-.061,1.944-.162,3.7-.226,5.248s-.134,2.874-.183,3.962v.006H89.362a62.89,62.89,0,0,0-1.32-6.406A60.36,60.36,0,0,0,83.09,425.83c-1.637-3.742-4.87-7.909-8.838-6.936-2.941.719-4.5,4.105-4.44,7.132.1,5.013,3.334,9.347,6.424,13.294l10.722,13.7.314.055c.6,2.307,1.027,4.4,1.35,6.089H70.332l7.945,69.947h27.66l7.939-69.947H92.409c.11-1.079.226-2.4.329-3.931S92.979,451.93,93.065,449.98Z" transform="translate(-56.398 -358.007)"/></g><rect width="0.558" height="14.848" transform="translate(109.446 120.915)"/><rect width="7.497" height="0.558" transform="translate(160.326 79.492)"/><path d="M280.438,378.77h-49.7a.28.28,0,0,1-.28-.28V360.6h.558v17.612h49.421Z" transform="translate(-121.014 -215.349)"/><g transform="translate(128.323 176.632)"><path class="b" d="M305.337,482.13H293.22l-.82-18.56h13.757Z" transform="translate(-292.4 -463.57)"/><path class="b" d="M327.141,486.361H325.2a.82.82,0,0,1-.82-.82v-10.3a.82.82,0,0,1,.82-.82h2.685a3.74,3.74,0,0,1,3.691,4.358l-.744,4.453A3.73,3.73,0,0,1,327.141,486.361Zm-1.125-1.637h1.125a2.1,2.1,0,0,0,2.075-1.758l.744-4.453a2.1,2.1,0,0,0-2.076-2.453h-1.868Z" transform="translate(-314.634 -471.113)"/></g><path class="c" d="M380.794,354.5l-3.685-55.766H303.052l-.622.619.695.5,3.611,54.647H379.31l.866.619Z" transform="translate(-171.05 -172.335)"/><path class="d" d="M552.1,351.678l-13.977,7.805v4.7a75.027,75.027,0,0,0,17.49-4.885l9.612-62.367S557.332,303.034,552.1,351.678Z" transform="translate(-334.91 -171.084)"/><g transform="translate(193.896 235.284)"><path class="e" d="M509.989,736.429l13.626-80.409h-3.846L507.56,736.429Z" transform="translate(-507.56 -656.02)"/><path class="f" d="M548.643,656.02l-.549,3.237-4.535,4.949,1.237-8.186Z" transform="translate(-532.588 -656.02)"/></g><g transform="translate(233.832 235.284)"><path class="g" d="M641.029,736.429l13.626-80.409h-3.846L638.6,736.429Z" transform="translate(-638.6 -656.02)"/><path class="f" d="M679.683,656.02l-.549,3.237-4.535,4.949,1.237-8.186Z" transform="translate(-663.628 -656.02)"/></g><g transform="translate(235.649 235.284)"><path class="g" d="M658.183,736.429,644.56,656.02h3.846l12.206,80.409Z" transform="translate(-644.56 -656.02)"/><path class="f" d="M644.56,656.02l.546,3.237,4.535,4.949-1.234-8.186Z" transform="translate(-644.56 -656.02)"/></g><g transform="translate(268.972 235.284)"><path class="g" d="M767.526,736.429,753.9,656.02h3.846l12.209,80.409Z" transform="translate(-753.9 -656.02)"/><path class="f" d="M753.9,656.02l.549,3.237,4.535,4.949-1.237-8.186Z" transform="translate(-753.9 -656.02)"/></g><rect class="g" width="40.869" height="7.878" transform="translate(242.79 232.065) rotate(180)"/><rect class="h" width="37.965" height="3.221" transform="translate(241.339 235.284) rotate(180)"/><rect class="i" width="30.193" height="3.221" transform="translate(274.337 235.284) rotate(180)"/><path class="j" d="M499.762,525.715s-28.276-1.972-24.095,24.546c2.749,17.445,10.207,83.579,10.207,83.579h8.744s9.621-71.653.756-81.924c0,0,32.232.354,37.166,0s21.587-4.849,23.714-25.561Z" transform="translate(-291.198 -330.12)"/><path class="k" d="M499.385,880.57l-.707,6.321s-5.12,3.465-5.248,5.653H506.6a1.807,1.807,0,0,0,1.317-1.594c.128-1.317-1.579-10.38-1.579-10.38Z" transform="translate(-303.84 -576.851)"/><path class="k" d="M393.029,873.23l-4.258,4.6s-9.871.174-11.651,2.033l15.317,7.659a1.807,1.807,0,0,0,1.771-1.073c.555-1.2,5.269-10.508,5.269-10.508Z" transform="translate(-222.978 -571.748)"/><path class="j" d="M458.321,554.122c10.7-26.042,29.181-27.685,29.181-27.685s-.734.037,20.888-.2c9.308-.1,17.768-.183,18.109.518,2.24,4.617.1,23.458-13.909,27.889H484.823a51.505,51.505,0,0,1-8.323-.573c6.574,13.224-42.972,80.842-42.972,80.842l-8.338-3.5C425.184,631.413,445.466,585.409,458.321,554.122Z" transform="translate(-256.397 -330.461)"/><path class="l" d="M630.447,291.586c-.238-.533-.485-1.051-.741-1.548a.231.231,0,0,0-.012-.021h0c-1.576-3.048-3.483-5.358-5.806-6.531-9.874-4.992-21.126-2.2-21.126-2.2s-4.477.777-7.872,7.909c-3.051,6.406-7.726,35.194-7.686,47.333.009,2.584.018,5.172.107,7.753-2.085.536-3.331.866-3.331.866l.866,5.58,2.9-.055c.171,1.566.4,3.133.695,4.693l48.461.594a44.98,44.98,0,0,0,.881-9.021,13.718,13.718,0,0,0,5.218-8.744C645.7,325.147,633.629,298.33,630.447,291.586Z" transform="translate(-366.794 -159.666)"/><path class="m" d="M623.848,370.761c1.112,11.051,5.041,21.821,6.431,25.362-5.656-1.448-46.309,9.253-46.309,9.253s29.69-8.3,44.1-10.078c0,0-5.3-14.943-4.318-28.157l0,.006A24.877,24.877,0,0,0,623.848,370.761Z" transform="translate(-366.787 -219.896)"/><g transform="translate(286.13 315.776)"><path class="n" d="M810.2,920.13" transform="translate(-810.2 -920.13)"/></g><path class="o" d="M561.19,492.61s-4.349.686-6.394,2.67a22.656,22.656,0,0,0-3.6,4.949h1.365s1.8-1.332,2.417-1.713l-.125,1.713h4.34a4.246,4.246,0,0,0,2.856-2.039Z" transform="translate(-344.004 -307.127)"/><path class="o" d="M514.336,502.18s-4.319.226-6.985,1.993a23.856,23.856,0,0,0-3.441,2.706h10.426Z" transform="translate(-311.126 -313.781)"/><path class="g" d="M713.3,427.024c.043-.3.073-.591.1-.887.006-.076.015-.149.021-.226.027-.29.049-.576.064-.863,0-.052,0-.1.006-.155.012-.238.018-.475.021-.713,0-.094,0-.189,0-.283,0-.262,0-.521-.012-.78,0-.107-.009-.213-.015-.32-.009-.171-.018-.338-.03-.509l-.027-.384c-.018-.226-.043-.451-.067-.674-.018-.155-.04-.308-.061-.46-.015-.1-.031-.2-.046-.308q-.123-.823-.308-1.628c-.009-.046-.021-.091-.034-.137q-.2-.859-.466-1.691s0-.009,0-.012h0a22.88,22.88,0,0,0-13.492-14.354c2.194,7.579,3.535,15.159,2.435,20.465a13.735,13.735,0,0,1-5.218,8.744,44.982,44.982,0,0,1-.881,9.021c1.5,3.081,1.036,12.5-3.6,19.74a37.5,37.5,0,0,0-23.714,8.152v7.878h31.854a7.651,7.651,0,0,0,7.65-7.65v-.229h0l1.231-8.838L713.3,427.03Z" transform="translate(-425.194 -244.577)"/><rect width="133.712" height="0.372" transform="translate(183.61 315.379)"/><rect width="113.519" height="0.372" transform="translate(67.047 315.587)"/><path class="m" d="M637.073,501.263c-8.728.311-30.76.759-39.741.939l-1.012.021.043.393c21.614.265,33.737.433,40.808.323,7.906-.122,9.079-2,9.079-2,.073-1.21.1-2.447.1-2.447l-.021,0A16.5,16.5,0,0,1,637.073,501.263Z" transform="translate(-375.373 -311.215)"/><path class="k" d="M491.817,584.046l.034.277c4.389-10.265,8.841-20.812,12.648-30.074,5.556-13.522,13.205-20.456,19.279-24.009-.683-1.4-1.5-3.02-1.923-3.871l-.987-.009a63.7,63.7,0,0,0-15.726,20.974c-5.678,12.48-12.465,31.375-13.532,34.969h0C491.68,582.885,491.747,583.464,491.817,584.046Z" transform="translate(-302.575 -330.591)"/><g transform="translate(95.585 195.191)"><rect class="p" width="208.593" height="3.398" transform="translate(208.593 3.398) rotate(180)"/><rect class="p" width="178.924" height="4.885" transform="translate(193.76 8.284) rotate(180)"/><g transform="translate(12.206 8.268)"><path class="p" d="M225.03,670.827,242.612,561.66h4.59L227.459,670.827Z" transform="translate(-225.03 -558.592)"/><path class="k" d="M281.295,561.66l-.625,3.867,4.133,2.088,1.082-5.955Z" transform="translate(-263.713 -558.592)"/><path class="p" d="M326.532,670.827,308.953,561.66H304.36l19.746,109.167Z" transform="translate(-280.183 -558.592)"/><path class="k" d="M308.953,561.66l.622,3.867-4.133,2.088-1.082-5.955Z" transform="translate(-280.183 -558.592)"/><rect class="q" width="30.12" height="3.069" transform="translate(38.234 3.069) rotate(180)"/></g><g transform="translate(148.835 8.266)"><path class="p" d="M774.842,670.827,757.26,561.66h-4.59l19.743,109.167Z" transform="translate(-728.493 -558.591)"/><path class="k" d="M757.26,561.66l.622,3.867-4.129,2.088-1.082-5.955Z" transform="translate(-728.493 -558.591)"/><path class="p" d="M673.34,670.827,690.919,561.66h4.59L675.766,670.827Z" transform="translate(-673.34 -558.591)"/><path class="k" d="M729.6,561.66l-.622,3.867,4.133,2.088,1.079-5.955Z" transform="translate(-712.023 -558.591)"/><rect class="q" width="30.12" height="3.069" transform="translate(8.113)"/></g><path class="q" d="M233.66,535.62H412.584v1.4l-178.924-.561Z" transform="translate(-218.824 -532.221)"/></g><g transform="translate(131.38 127.014)"><path class="r" d="M380.175,356.526H306.118L302.43,300.76h74.058Z" transform="translate(-302.43 -300.76)"/></g><path class="c" d="M393.155,417.77,389.239,441.2a6,6,0,0,0,5.922,6.991h10.767V417.77Z" transform="translate(-231.345 -255.096)"/><rect class="c" width="16.68" height="2.091" transform="translate(163.096 193.099)"/><rect class="c" width="35.901" height="2.091" transform="translate(183.092 193.099)"/><path class="s" d="M406.5,517.6l13.471,2.094h3.209V517.6Z" transform="translate(-243.404 -324.501)"/><g transform="translate(67.047 50.85)"><rect class="r" width="89.756" height="60.551" transform="translate(0 4.715)"/><rect class="c" width="82.612" height="0.36" transform="translate(3.572 10.527)"/><rect class="t" width="19.057" height="0.972" transform="translate(15.57 10.222)"/><path class="t" d="M181.1,55.565H91.34V53.194a2.344,2.344,0,0,1,2.344-2.344h85.072a2.344,2.344,0,0,1,2.344,2.344Z" transform="translate(-91.34 -50.85)"/><rect class="c" width="31.055" height="29.206" transform="translate(3.572 16.524)"/><rect class="c" width="14.751" height="13.873" transform="translate(39.165 16.524)"/><rect class="c" width="22.315" height="0.326" transform="translate(57.168 30.068)"/><rect class="c" width="29.02" height="0.326" transform="translate(57.168 27.511)"/><rect class="c" width="29.02" height="0.326" transform="translate(57.168 24.954)"/><rect class="c" width="22.315" height="0.326" transform="translate(57.168 45.404)"/><rect class="c" width="29.02" height="0.326" transform="translate(57.168 42.844)"/><rect class="c" width="29.02" height="0.326" transform="translate(57.168 40.287)"/><rect class="c" width="29.02" height="0.326" transform="translate(3.572 54.05)"/><rect class="c" width="29.02" height="0.326" transform="translate(3.572 51.493)"/><rect class="c" width="16.137" height="0.326" transform="translate(36.13 54.05)"/><rect class="c" width="16.137" height="0.326" transform="translate(36.13 51.493)"/><rect class="c" width="30.647" height="0.326" transform="translate(55.54 54.05)"/><rect class="c" width="30.647" height="0.326" transform="translate(55.54 51.493)"/><rect class="c" width="21.526" height="0.326" transform="translate(3.572 60.17)"/><rect class="c" width="21.526" height="0.326" transform="translate(3.572 57.613)"/><rect class="c" width="24.369" height="0.326" transform="translate(27.898 60.17)"/><rect class="c" width="24.369" height="0.326" transform="translate(27.898 57.613)"/><rect class="c" width="30.647" height="0.326" transform="translate(55.54 60.17)"/><rect class="c" width="30.647" height="0.326" transform="translate(55.54 57.613)"/><rect class="c" width="14.751" height="13.873" transform="translate(39.165 31.857)"/><circle class="t" cx="10.13" cy="10.13" r="10.13" transform="matrix(0.257, -0.966, 0.966, 0.257, 6.709, 38.316)"/><path class="r" d="M152.271,143.776l-7.531-4.346v8.695Z" transform="translate(-128.466 -112.434)"/><path class="r" d="M104.334,57.137a.637.637,0,1,1-.637-.637A.637.637,0,0,1,104.334,57.137Z" transform="translate(-99.488 -54.778)"/><path class="r" d="M114.874,57.137a.637.637,0,1,1-.637-.637A.637.637,0,0,1,114.874,57.137Z" transform="translate(-106.816 -54.778)"/><path class="r" d="M125.414,57.137a.637.637,0,1,1-.637-.637A.637.637,0,0,1,125.414,57.137Z" transform="translate(-114.144 -54.778)"/></g><path d="M229.19,329.86a.96.96,0,1,1,.96-.96A.962.962,0,0,1,229.19,329.86Zm0-1.362a.4.4,0,1,0,.4.4A.4.4,0,0,0,229.19,328.5Z" transform="translate(-119.464 -192.643)"/><path d="M422.07,144.52a.96.96,0,1,1,.96-.96A.962.962,0,0,1,422.07,144.52Zm0-1.362a.4.4,0,1,0,.4.4A.4.4,0,0,0,422.07,143.158Z" transform="translate(-253.561 -63.788)"/><path d="M229.19,357.14a.96.96,0,1,1,.96-.96A.962.962,0,0,1,229.19,357.14Zm0-1.365a.4.4,0,1,0,.4.4A.4.4,0,0,0,229.19,355.775Z" transform="translate(-119.464 -211.609)"/><path class="o" d="M655.744,212.369l-.219-3.16h0l-.177-2.551a2.3,2.3,0,0,0-.027-3,2.151,2.151,0,0,0-.192-.155l-.225-3.234-1.6.113v0l-10.027.7s-1.381,5.989-.064,10.362a8.572,8.572,0,0,0,.917,2.1,41.938,41.938,0,0,1-2.185,12.395s-3.968,6.333,2.728,6.086,13.12-6.36,13.12-6.36A94.8,94.8,0,0,1,655.744,212.369Z" transform="translate(-406.283 -103.882)"/><path class="u" d="M650.273,242.26s2.234,4.383,7.637,1.481c0,0-2.578,7.278-8.311,5.352A41.271,41.271,0,0,0,650.273,242.26Z" transform="translate(-412.415 -133.075)"/><path class="k" d="M658.542,191.4a1.626,1.626,0,0,0-1.368-.7h-.567v-.271a.959.959,0,0,0-1.219-.923,28.105,28.105,0,0,1-5.861,1.195c-1.615-.1-1.243-2.426-3.477-2.752-2.715-.4-3.477,3.672-1.134,5.952l.262-1.4s0,2.63,5.15,2.094a6.535,6.535,0,0,1,4.313.619,1.842,1.842,0,0,1,2.581-.137,2.443,2.443,0,0,1-.777,3.718l.981,1.832c-.061-1.091.3-2.069,1.32-5.51A4.294,4.294,0,0,0,658.542,191.4Z" transform="translate(-408.188 -95.296)"/></g></svg>