<svg xmlns="http://www.w3.org/2000/svg" width="36.25" height="31.434" viewBox="0 0 36.25 31.434">
  <path id="Icon_awesome-list-ul" data-name="Icon awesome-list-ul" d="M41.451,3.334A3.589,3.589,0,0,0,37.9,6.961a3.55,3.55,0,1,0,7.1,0A3.589,3.589,0,0,0,41.451,3.334Zm0,12.09A3.628,3.628,0,1,0,45,19.051,3.589,3.589,0,0,0,41.451,15.424Zm0,12.09A3.628,3.628,0,1,0,45,31.141a3.589,3.589,0,0,0-3.549-3.627Zm-7.858,1.264H9.933A1.2,1.2,0,0,0,8.75,29.987V32.4a1.2,1.2,0,0,0,1.183,1.209h23.66A1.2,1.2,0,0,0,34.776,32.4V29.987A1.2,1.2,0,0,0,33.593,28.778Zm0-24.18H9.933A1.2,1.2,0,0,0,8.75,5.807V8.225A1.2,1.2,0,0,0,9.933,9.434h23.66a1.2,1.2,0,0,0,1.183-1.209V5.807A1.2,1.2,0,0,0,33.593,4.6Zm0,12.09H9.933A1.2,1.2,0,0,0,8.75,17.9v2.418a1.2,1.2,0,0,0,1.183,1.209h23.66a1.2,1.2,0,0,0,1.183-1.209V17.9A1.2,1.2,0,0,0,33.593,16.688Z" transform="translate(-8.75 -3.334)" fill="#fff"/>
</svg>
