<svg xmlns="http://www.w3.org/2000/svg" width="1538.734" height="760.212" viewBox="0 0 1538.734 760.212"><defs><style>.a{fill:#f1f2f3;}.b{fill:#d4e5e0;}.c{fill:#d4eef2;}.d{fill:#e18554;}.e{fill:#c9d9e8;}.f{fill:#39302a;}.g{fill:#f7603b;}.h{fill:#e4dfe5;}.i{fill:#0e0654;}.j{fill:#425eaa;}.k{fill:#ffcf62;}.l{fill:#f79673;}.m{fill:#7c3b14;}.n{fill:#d07c61;}.o{fill:#fff;}</style></defs><g transform="translate(-698.093 16.372)"><g transform="translate(1570.947 31.885)"><path class="a" d="M455.064,744.815c-30.18-36.574-58.347-81.42-65.134-128.351s19.647-102.045,66.418-109.851c39.687-6.619,76.061,21.155,106.706,47.22-80.288-101.179-104.709-248.455-47.027-364.026S717.63,4.3,840.494,44.152c130.372,42.294,204.251,190,199.55,326.97S977.894,630.616,902.1,744.815Z" transform="translate(-388.876 -32.884)"/></g><g transform="translate(2072.063 379.204)"><g transform="translate(22.383)"><path d="M1161.171,471.452H1041.42l.024-5.319h.425l119.3-.313Zm-118.9-.85h118.042V466.67l-118.026.313Z" transform="translate(-1041.42 -465.82)"/></g><g transform="translate(0 5.102)"><path d="M1022.938,831.713h-9.418l37.457-359.477.85.088-37.36,358.539h7.806l89.009-358.683.818.209Z" transform="translate(-1013.52 -472.18)"/></g><g transform="translate(66.177 5.102)"><path d="M1194.6,831.713h-9.418l-.08-.321-89.089-359,.826-.209,89,358.683h7.814l-37.36-358.539.842-.088Z" transform="translate(-1096.01 -472.18)"/></g></g><g transform="translate(797.224 48.889)"><g transform="translate(0.104 171.199)"><rect class="b" width="92.282" height="145.575"/></g><g transform="translate(101.797 171.199)"><rect class="b" width="92.282" height="145.575"/></g><g transform="translate(101.797 17.77)"><rect class="b" width="92.282" height="145.575"/></g><g transform="translate(0.104 17.77)"><rect class="b" width="92.282" height="145.575"/></g><g transform="translate(0 17.77)"><path class="c" d="M143.66,193.149l.971-1.227L236.038,76.23v18L143.66,213.261" transform="translate(-143.66 -76.23)"/></g><g transform="translate(3.257 46.739)"><path class="c" d="M236.841,112.34,147.72,228.946h5.945L236.841,119.7Z" transform="translate(-147.72 -112.34)"/></g><g transform="translate(101.748 17.77)"><path class="c" d="M270.49,193.149l.971-1.227L362.868,76.23v18L270.49,213.261" transform="translate(-270.49 -76.23)"/></g><g transform="translate(105.006 46.739)"><path class="c" d="M363.671,112.34,274.55,228.946h5.937L363.671,119.7Z" transform="translate(-274.55 -112.34)"/></g><g transform="translate(0 171.199)"><path class="c" d="M143.66,384.4l.971-1.235L236.038,267.48v17.994L143.66,404.511" transform="translate(-143.66 -267.48)"/></g><g transform="translate(3.257 200.168)"><path class="c" d="M236.841,303.59,147.72,420.2h5.945l83.177-109.249Z" transform="translate(-147.72 -303.59)"/></g><g transform="translate(101.748 171.199)"><path class="c" d="M270.49,384.4l.971-1.235L362.868,267.48v17.994L270.49,404.511" transform="translate(-270.49 -267.48)"/></g><g transform="translate(105.006 200.168)"><path class="c" d="M363.671,303.59,274.55,420.2h5.937l83.185-109.249Z" transform="translate(-274.55 -303.59)"/></g><g transform="translate(0.104)"><rect class="d" width="193.974" height="9.924"/></g></g><g transform="translate(1871.82 455.738)"><path class="e" d="M798.255,561.22s-44.3,5.864-32.266,58.8c9.378,41.251,99.133,200.2,99.133,200.2h20.947s-36-178.692-72.884-196.237c0,0,148.567.85,160.384,0s51.729-11.464,56.823-61.083Z" transform="translate(-763.917 -561.22)"/></g><g transform="translate(1871.823 455.341)"><path class="e" d="M886.615,561.339s-40.016-3.474-55.876,51.231C814.726,667.8,763.92,820.118,763.92,820.118h23.514s91.825-135.667,93.084-194.745c0,0,59.871,18.885,121.58,5.864,39.318-8.3,47.2-57.248,40.369-68.439-2.415-3.963-21.292-.979-43.377-1.243C937.156,560.817,886.615,561.339,886.615,561.339Z" transform="translate(-763.92 -560.725)"/></g><g transform="translate(1838.739 714.734)"><path class="f" d="M760.1,884.06,751.039,899.2s-28.054,8.3-28.359,13.542h47.34a4.329,4.329,0,0,0,3.153-3.819c.3-3.153,3.586-24.861,3.586-24.861Z" transform="translate(-722.68 -884.06)"/></g><g transform="translate(1984.462 276.387)"><path class="g" d="M1065.387,466.508c3.819-40.072-26.859-94.777-29.739-99.8-.016-.032-.032-.056-.048-.088l-.193-.329h-.008c-5.937-10.269-12.6-18.05-19.872-21.733-23.65-11.961-49.771-4.741-49.771-4.741a32.656,32.656,0,0,0-21.4,14.4,55.8,55.8,0,0,0-7.814,16.245,238.178,238.178,0,0,0-6.763,32.186c-2.006-21.436-4.87-40.93-4.87-40.93l-13.887-.168c-9.868,47.5-13.261,129.931,21.653,126.947a18.816,18.816,0,0,0,10.06-4.22v11.416l4.276.064c1.7,9.988,3.971,18.861,7.124,21.259l116.085,1.677C1071.6,514.482,1069.84,494.843,1065.387,466.508ZM944.866,482.416l.2-.2c.008.048.008.1.016.144A2.162,2.162,0,0,0,944.866,482.416Z" transform="translate(-904.325 -337.658)"/></g><g transform="translate(1834.029 345.839)"><path class="h" d="M840.468,507.968H734.532L716.81,424.23H822.754Z" transform="translate(-716.81 -424.23)"/></g><g transform="translate(1849.601 429.577)"><rect class="h" width="138.395" height="5.014"/></g><g transform="translate(1849.601 429.577)"><rect class="f" width="138.395" height="2.503"/></g><g transform="translate(1958.112 430.829)"><path class="f" d="M871.48,531.422v2.5h29.884V530.17Z" transform="translate(-871.48 -530.17)"/></g><g transform="translate(1990.443 511.494)"><path class="i" d="M1053.079,640.315l4.974-9.595h0a8.574,8.574,0,0,1,7.693,12.355l-4.131,8.407H911.78V640.323h141.3Z" transform="translate(-911.78 -630.72)"/></g><g transform="translate(746.394 455.738)"><path class="j" d="M283.524,561.22s44.292,5.864,32.266,58.8c-9.378,41.251-97.368,200.2-97.368,200.2H197.476s41.4-180.529,71.111-196.237c0,0-119.639.85-131.464,0S85.394,612.515,80.3,562.9Z" transform="translate(-80.3 -561.22)"/></g><g transform="translate(732.135 455.341)"><path class="j" d="M220.571,561.339s50.662-5.383,56.622,64.011c4.693,54.7,11.312,194.769,11.312,194.769H264.991s-37.056-135.667-38.315-194.745c0,0-59.871,18.885-121.58,5.864-39.318-8.3-47.2-57.248-40.369-68.439,2.415-3.963,21.292-.979,43.377-1.243C170.038,560.817,220.571,561.339,220.571,561.339Z" transform="translate(-62.527 -560.725)"/></g><g transform="translate(937.584 714.734)"><path class="f" d="M335.275,884.06l7.188,15.138s28.054,8.3,28.359,13.542h-47.34a4.329,4.329,0,0,1-3.153-3.819c-.3-3.153-1.709-24.861-1.709-24.861Z" transform="translate(-318.62 -884.06)"/></g><g transform="translate(858.025 714.734)"><path class="f" d="M243.26,884.06,241.6,899.2s8.143,8.3,8.448,13.542H222.611a4.329,4.329,0,0,1-3.153-3.819c-.3-3.153,7.14-24.861,7.14-24.861Z" transform="translate(-219.449 -884.06)"/></g><g transform="translate(1959.388 714.734)"><path class="f" d="M889.644,884.06,891.3,899.2s-17.93,8.3-18.235,13.542h36.189a4.329,4.329,0,0,0,3.153-3.819c.3-3.153-6.113-24.861-6.113-24.861Z" transform="translate(-873.07 -884.06)"/></g><g transform="translate(698.093 276.682)"><path class="k" d="M221.638,366.316s-36.695,58.2-40.947,85.166c0,0-2.11-46.739-12.314-80.946-2.535-8.5-8.993-22.623-21.917-27.854a28.625,28.625,0,0,0-8.375-2.792s-34.079-6.691-57.729,5.271a25.219,25.219,0,0,0-8.841,7.99c0-.008-.016-.024-.016-.024S14.932,430.4,20.476,468.9c2.447,16.975,16.871,24.484,33.454,26.193.586,12.724,1.548,21.075,2.391,23.666L172.4,517.082c1.7-8.865,3.008-17.641,3.947-26.45,31.985,2.6,48.833-69.546,57.312-118.491ZM53.456,461.783c-.016,1.38-.024,2.736-.032,4.075a13.969,13.969,0,0,0-1.885.377C51.531,466.227,52.245,464.591,53.456,461.783Z" transform="translate(-20.093 -338.025)"/></g><g transform="translate(941.973 345.839)"><path class="h" d="M324.09,507.968h93.124l15.572-83.738H339.662Z" transform="translate(-324.09 -424.23)"/></g><g transform="translate(896.705 429.571)"><rect class="h" width="138.395" height="5.014" transform="translate(138.395 5.014) rotate(180)"/></g><g transform="translate(896.702 429.577)"><rect class="f" width="138.395" height="2.503"/></g><g transform="translate(896.702 430.829)"><path class="f" d="M290.219,531.422v2.5H267.66V530.17Z" transform="translate(-267.66 -530.17)"/></g><g transform="translate(816.735 422.148)"><path class="l" d="M168.085,519.35s13.405,1.741,16.943,3.153,10.333,9.274,10.333,9.274H178.8s-8.841.433-10.718-2.968C168.085,528.8,167.852,522.663,168.085,519.35Z" transform="translate(-167.981 -519.35)"/></g><g transform="translate(1995.513 422.148)"><path class="l" d="M945.473,519.35s-12.948,2.736-17.008,4.717c-3.426,1.669-10.365,7.71-10.365,7.71h16.558s8.937.409,10.814-2.992C945.473,528.776,945.577,522.984,945.473,519.35Z" transform="translate(-918.1 -519.35)"/></g><g transform="translate(781.219 434.583)"><rect class="m" width="1306.504" height="21.155"/></g><g transform="translate(739.407 511.494)"><path class="i" d="M85.148,640.315l-4.974-9.595h0a8.574,8.574,0,0,0-7.694,12.355l4.132,8.407H226.447V640.323H85.148Z" transform="translate(-71.591 -630.72)"/></g><g transform="translate(1909.713 523.063)"><path class="f" d="M811.7,719.8l21.981-69.266h0a57.931,57.931,0,0,0-4.813-5.4c-2.447,11.994-17.722,73.606-17.722,73.606l.545,1.075C811.7,719.813,811.7,719.813,811.7,719.8Z" transform="translate(-811.15 -645.14)"/></g><g transform="translate(1932.248 455.746)"><path class="f" d="M845.634,612.67c15.868-54.7,55.876-51.231,55.876-51.231s.4-.008,1.139-.008l.136-.2H870.624c-23.987,10.052-31.384,62.816-31.384,62.816l3.016.016C843.5,619.922,844.631,616.111,845.634,612.67Z" transform="translate(-839.24 -561.23)"/></g><g transform="translate(1936.532 597.391)"><path class="f" d="M871.415,737.878c-8.263,17.216-17.673,34.633-26.811,50.6l-.024.048.465.866s21.733-26.41,30.06-40.168c0,0-3.145-9.523-3.642-11.432Z" transform="translate(-844.58 -737.79)"/></g><g transform="translate(2087.723 405.342)"><path class="f" d="M1090.866,498.4l-.032.024c-.072.73-.128,1.468-.217,2.19-2.351,17.914-18.452,25.279-36.125,26.434-5.375.353-12.98.562-21.452.674v1.043s27.8.209,39.262-3.506,18.845-11.986,19.823-18.572Z" transform="translate(-1033.04 -498.4)"/></g><g transform="translate(2009.937 341.362)"><path class="f" d="M936.08,418.65s3.634,39.936,0,51.753C936.08,470.4,943.958,471.213,936.08,418.65Z" transform="translate(-936.08 -418.65)"/></g><g transform="translate(2017.409 309.177)"><path class="f" d="M947.348,378.53s-2.816,33.55,3.522,90.445C950.87,468.975,941.42,415.193,947.348,378.53Z" transform="translate(-945.394 -378.53)"/></g><g transform="translate(898.427 576.484)"><path class="f" d="M274.391,711.786l-.008-.056s-2.952,8.231-4.573,13.069c0,0,10.092,39.1,18.965,64.123l1.243-2.367v-.008C284.555,763.266,278.731,736.559,274.391,711.786Z" transform="translate(-269.81 -711.73)"/></g><g transform="translate(894.849 455.738)"><path class="f" d="M317.3,625.448c1.428,16.6,3.024,41.059,4.565,67.076h0l1.837-3.779s3.137-79.631-11.239-103.4C300.392,565.368,284.8,561.22,284.8,561.22l-19.454.169C278.033,562.03,312.458,568.994,317.3,625.448Z" transform="translate(-265.35 -561.22)"/></g><g transform="translate(731.937 433.757)"><path class="f" d="M64.951,534.045c-.842-.056-1.677-.136-2.511-.225h-.16s.1,2.27.193,3.827c0,0,28.44-.176,49.089-.89v-1.925C94.626,534.9,75.766,534.759,64.951,534.045Z" transform="translate(-62.28 -533.82)"/></g><g transform="translate(731.456 336.365)"><g transform="translate(0 0.89)"><path class="f" d="M86.63,413.53a45.913,45.913,0,0,1-1.949,6.843c-7.421,19.88-18.572,46.049-23,56.342v4.067h0c19.511-2.712,85.383,17.184,85.383,17.184s-65.768-21.5-82.751-18.251C64.311,479.715,81.07,442.964,86.63,413.53Z" transform="translate(-61.68 -413.53)"/></g><g transform="translate(24.966)"><path class="f" d="M92.952,412.42l-.016.048c-.048.257-.088.513-.136.77C92.848,412.966,92.9,412.693,92.952,412.42Z" transform="translate(-92.8 -412.42)"/></g></g><g transform="translate(845.118 315.435)"><path class="f" d="M203.36,386.33s10.156,50.894,10.63,95.6C213.99,481.933,215.763,442.535,203.36,386.33Z" transform="translate(-203.36 -386.33)"/></g><g transform="translate(901.387 283.09)"><path class="l" d="M273.5,368.738s5.062-12.972,8.576-16.358,9.683-6.8,9.908-6.322-3.979,5.969-4.99,7.148c0,0,3.642,4.252,3.915,7.365.337,3.835-4.1,10.806-8.5,12.475Z" transform="translate(-273.5 -346.013)"/></g><g transform="translate(1977.21 271.469)"><path class="l" d="M921.194,360.474s3.658-9.7,6.819-12.034-4.268-.257-6.819,3.377c0,0-16.35-20.072-17.2-20.289s5.945,12.242,5.945,12.242-10.83-11.673-11.673-11.889,8.488,14.3,8.488,14.3-10.116-9.747-10.967-9.731,8.849,11.568,8.849,11.568-8.985,0-9.338.144,7.284,2.615,8.279,2.832,5.094,7.533,7.148,9.362Z" transform="translate(-895.285 -331.527)"/></g><g transform="translate(778.885 217.496)"><path class="l" d="M158.754,324.98l-.072-.024c-.594-1.6-4.533-12.908-5.158-29.418l-.008-1.34a20.528,20.528,0,0,0,1.869-5.207c2.367-10.678-1.982-24.741-1.982-24.741l-24.075.088h0l-3.835.016.032,8.9a4.987,4.987,0,0,0-.441.4c-1.532,1.6-1.556,4.846.465,7.156l.056,14a151.062,151.062,0,0,1-4.757,29.5.171.171,0,0,1-.048.008l.024.1c-.008.024-.016.048-.024.08a.163.163,0,0,0,.04.008c4.1,21.813,33.959,32.732,40.642,22.527C168.18,336.8,158.754,324.98,158.754,324.98Z" transform="translate(-120.8 -264.25)"/></g><g transform="translate(811.56 247.572)"><path class="f" d="M161.53,301.74s14.376,20.168,12.884,33.742a40.186,40.186,0,0,0-7.228-2.567C167.194,332.915,162.244,327.34,161.53,301.74Z" transform="translate(-161.53 -301.74)"/></g><g transform="translate(2036.933 218.219)"><path class="l" d="M1011.623,324.749c-.008-.024-.016-.048-.024-.08a.4.4,0,0,1,.016-.1.171.171,0,0,1-.048-.008,150.61,150.61,0,0,1-7-29.049l-1.019-13.959c1.845-2.455,1.572-5.688-.08-7.172-.152-.136-.313-.249-.465-.361l-.642-8.873-3.827.281h0l-24.019,1.757s-3.265,14.352-.08,24.821a20.488,20.488,0,0,0,2.262,5.1l.1,1.284c.642,16.51-2.423,28.079-2.888,29.723a.283.283,0,0,0-.072.032s-8.5,12.507-1.027,22.2c7.445,9.667,36.382-3.514,38.8-25.576C1011.6,324.757,1011.623,324.749,1011.623,324.749Z" transform="translate(-969.73 -265.15)"/></g><g transform="translate(1873.5 27.83)"><g transform="translate(0 56.542)"><path d="M860.98,164.2H766.01l.425-.658,42.3-65.23h9.515l.128.193Zm-93.405-.842h91.841l-41.62-64.187H809.2Z" transform="translate(-766.01 -98.31)"/></g><g transform="translate(47.06)"><rect width="0.85" height="56.967"/></g></g><g transform="translate(2014.959 27.83)"><g transform="translate(0 32.754)"><path d="M1071.586,187.987H942.34l.579-.9,57.575-88.781h12.95l.175.262ZM944.458,186.84h125L1012.81,99.478h-11.705Z" transform="translate(-942.34 -98.31)"/></g><g transform="translate(64.05 -44.202)"><rect width="1.157" height="77.535" transform="translate(0)"/></g></g><g transform="translate(793.269 247.572)"><path class="n" d="M157.021,301.74s-5.351,10.493-18.291,3.546c0,0,5.856,17.537,19.591,12.924A125.224,125.224,0,0,1,157.021,301.74Z" transform="translate(-138.73 -301.74)"/></g><g transform="translate(757.035 207.273)"><path class="f" d="M148.146,257.47c-3.522-4.533-15.01-8.279-25-4.244-10.509,4.244-11.352,16.414-11.777,29.3-.361,10.862-23.49,25.11-16.486,45.527a71.475,71.475,0,0,1,20.521-6.073,44.524,44.524,0,0,0,6.442-22.583c-.048-8.135-.12-15.219.225-19.583-3.883-2.094-4.308-6.675-2.383-8.672,3.065-3.209,6.635.241,6.635.241.168.313.313.618.449.931a15.546,15.546,0,0,0,3.024-3.939s12.25,1.131,19.912,0C149.71,268.372,151.667,262,148.146,257.47Z" transform="translate(-93.565 -251.507)"/></g><g transform="translate(2043.567 250.228)"><path class="n" d="M978.361,305.05s6.137,10.052,18.508,2.142c0,0-4.821,17.858-18.869,14.3A97.177,97.177,0,0,0,978.361,305.05Z" transform="translate(-978 -305.05)"/></g><g transform="translate(2038.294 208.678)"><path class="f" d="M1002.974,259.092c-1.131-1.837-6.225-2.335-12.242-2.19s-8.632-4.388-14.432-3.538c-5.519.81-6.354,8.785-2.479,12.9-.008,0-.008-.008-.016,0a4.016,4.016,0,0,0,.16,3.7s.345-2.487.473-3.081c4.581,3.891,12.4-.353,16.085,2.407a16.439,16.439,0,0,0,7.694,2.623,4.176,4.176,0,0,1,5.584.128c1.789,1.6,1.966,5.271-.433,7.774.618,2.768.939,5.166.939,5.166,2.238-.818,2.856-14.071,3.353-19.446C1008.14,260.151,1002.974,259.092,1002.974,259.092Z" transform="translate(-971.427 -253.257)"/></g><path class="o" d="M157.261,282.939c-5.9,2.182-15.074,1.588-17.6,1.372-.77-1.468-3.746-6.891-6.755-8.03l.281.586a12.283,12.283,0,0,1,2.936,2.864,29.285,29.285,0,0,1,2.872,4.525h0a7.935,7.935,0,0,1-1.348,7.862c-1.845-1.484-6.835-5.519-8.993-7.4-.193-.168-1.869-1.468-1.813-1.388,1.3,1.781,9.138,8.223,10.79,9.571,10.2,10.967,15.828,5.535,15.828,5.535C160.9,293.071,157.261,282.939,157.261,282.939Z" transform="translate(655.89 -49.133)"/><path class="o" d="M1005.019,282.3s-1.115,1.677-1.452,2.11c-1.348,1.757-4.773,5.656-6.723,7.846A13.356,13.356,0,0,1,994,284.99c.554-1.38,2.912-6.971,5.7-9.29a7.573,7.573,0,0,0-1.5.858c-1.757,1.637-4.035,6.594-4.677,8.038-12.9,3.305-19.759-.12-19.759-.12-2.647,14.079,6.907,17.986,6.907,17.986,6.266,2.88,14.28-6.835,16.141-9.234C998.97,290.7,1004.5,284.14,1005.019,282.3Z" transform="translate(1066.498 -49.018)"/></g></svg>