<svg xmlns="http://www.w3.org/2000/svg" width="1180.73" height="887.456" viewBox="0 0 1180.73 887.456">
  <g id="רקע" transform="translate(-20.093 -32.884)">
    <g id="Group_678" data-name="Group 678">
      <g id="Group_239" data-name="Group 239">
        <path id="Path_312" data-name="Path 312" d="M471.38,920.31c-37.62-45.59-72.73-101.49-81.19-159.99s24.49-127.2,82.79-136.93c49.47-8.25,94.81,26.37,133.01,58.86-100.08-126.12-130.52-309.7-58.62-453.76S798.67-2.75,951.82,46.93c162.51,52.72,254.6,236.83,248.74,407.57s-77.47,323.46-171.95,465.81Z" fill="#f1f2f3"/>
      </g>
      <g id="Group_257" data-name="Group 257">
        <g id="Group_244" data-name="Group 244">
          <rect id="Rectangle_222" data-name="Rectangle 222" width="115.03" height="181.46" transform="translate(143.79 267.48)" fill="#d4e5e0"/>
        </g>
        <g id="Group_245" data-name="Group 245">
          <rect id="Rectangle_223" data-name="Rectangle 223" width="115.03" height="181.46" transform="translate(270.55 267.48)" fill="#d4e5e0"/>
        </g>
        <g id="Group_246" data-name="Group 246">
          <rect id="Rectangle_224" data-name="Rectangle 224" width="115.03" height="181.46" transform="translate(270.55 76.23)" fill="#d4e5e0"/>
        </g>
        <g id="Group_247" data-name="Group 247">
          <rect id="Rectangle_225" data-name="Rectangle 225" width="115.03" height="181.46" transform="translate(143.79 76.23)" fill="#d4e5e0"/>
        </g>
        <g id="Group_248" data-name="Group 248">
          <path id="Path_316" data-name="Path 316" d="M143.66,221.97l1.21-1.53L258.81,76.23V98.67L143.66,247.04" fill="#d4eef2"/>
        </g>
        <g id="Group_249" data-name="Group 249">
          <path id="Path_317" data-name="Path 317" d="M258.81,112.34,147.72,257.69h7.41L258.81,121.51Z" fill="#d4eef2"/>
        </g>
        <g id="Group_250" data-name="Group 250">
          <path id="Path_318" data-name="Path 318" d="M270.49,221.97l1.21-1.53L385.64,76.23V98.67L270.49,247.04" fill="#d4eef2"/>
        </g>
        <g id="Group_251" data-name="Group 251">
          <path id="Path_319" data-name="Path 319" d="M385.64,112.34,274.55,257.69h7.4L385.64,121.51Z" fill="#d4eef2"/>
        </g>
        <g id="Group_252" data-name="Group 252">
          <path id="Path_320" data-name="Path 320" d="M143.66,413.22l1.21-1.54,113.94-144.2v22.43L143.66,438.29" fill="#d4eef2"/>
        </g>
        <g id="Group_253" data-name="Group 253">
          <path id="Path_321" data-name="Path 321" d="M258.81,303.59,147.72,448.94h7.41L258.81,312.76Z" fill="#d4eef2"/>
        </g>
        <g id="Group_254" data-name="Group 254">
          <path id="Path_322" data-name="Path 322" d="M270.49,413.22l1.21-1.54,113.94-144.2v22.43L270.49,438.29" fill="#d4eef2"/>
        </g>
        <g id="Group_255" data-name="Group 255">
          <path id="Path_323" data-name="Path 323" d="M385.64,303.59,274.55,448.94h7.4L385.64,312.76Z" fill="#d4eef2"/>
        </g>
        <g id="Group_256" data-name="Group 256">
          <rect id="Rectangle_226" data-name="Rectangle 226" width="241.79" height="12.37" transform="translate(143.79 54.08)" fill="#e18554"/>
        </g>
      </g>
      <g id="Group_286" data-name="Group 286">
        <g id="Group_285" data-name="Group 285">
          <path id="Path_339" data-name="Path 339" d="M333.62,561.22s55.21,7.31,40.22,73.29c-11.69,51.42-121.37,249.55-121.37,249.55H226.36S277.96,659.03,315,639.45c0,0-149.13,1.06-163.87,0S86.65,625.16,80.3,563.31Z" fill="#425eaa"/>
        </g>
      </g>
      <g id="Group_289" data-name="Group 289">
        <g id="Group_288" data-name="Group 288">
          <g id="Group_287" data-name="Group 287">
            <path id="Path_340" data-name="Path 340" d="M259.53,561.49s63.15-6.71,70.58,79.79c5.85,68.18,14.1,242.78,14.1,242.78H314.9s-46.19-169.11-47.76-242.75c0,0-74.63,23.54-151.55,7.31-49.01-10.34-58.83-71.36-50.32-85.31,3.01-4.94,26.54-1.22,54.07-1.55C196.54,560.84,259.53,561.49,259.53,561.49Z" fill="#425eaa"/>
          </g>
        </g>
      </g>
      <g id="Group_290" data-name="Group 290">
        <path id="Path_341" data-name="Path 341" d="M339.38,884.06l8.96,18.87s34.97,10.35,35.35,16.88H324.68a5.4,5.4,0,0,1-3.93-4.76c-.38-3.93-2.13-30.99-2.13-30.99Z" fill="#39302a"/>
      </g>
      <g id="Group_291" data-name="Group 291">
        <path id="Path_342" data-name="Path 342" d="M249.13,884.06l-2.07,18.87s10.15,10.35,10.53,16.88h-34.2a5.4,5.4,0,0,1-3.93-4.76c-.38-3.93,8.9-30.99,8.9-30.99Z" fill="#39302a"/>
      </g>
      <g id="Group_293" data-name="Group 293">
        <path id="Path_344" data-name="Path 344" d="M271.32,373.29s-45.74,72.55-51.04,106.16c0,0-2.63-58.26-15.35-100.9-3.16-10.59-11.21-28.2-27.32-34.72a35.681,35.681,0,0,0-10.44-3.48s-42.48-8.34-71.96,6.57a31.436,31.436,0,0,0-11.02,9.96c0-.01-.02-.03-.02-.03s-70.51,96.32-63.6,144.31c3.05,21.16,21.03,30.52,41.7,32.65.73,15.86,1.93,26.27,2.98,29.5l144.7-2.09c2.12-11.05,3.75-21.99,4.92-32.97,39.87,3.24,60.87-86.69,71.44-147.7Zm-209.64,119c-.02,1.72-.03,3.41-.04,5.08a17.416,17.416,0,0,0-2.35.47C59.28,497.83,60.17,495.79,61.68,492.29Z" fill="#ffcf62"/>
      </g>
      <g id="Group_295" data-name="Group 295">
        <g id="Group_294" data-name="Group 294">
          <path id="Path_345" data-name="Path 345" d="M324.09,528.61H440.17l19.41-104.38H343.5Z" fill="#e4dfe5"/>
        </g>
      </g>
      <g id="Group_297" data-name="Group 297">
        <g id="Group_296" data-name="Group 296">
          <rect id="Rectangle_229" data-name="Rectangle 229" width="172.51" height="6.25" transform="translate(440.174 534.853) rotate(180)" fill="#e4dfe5"/>
        </g>
      </g>
      <g id="Group_299" data-name="Group 299">
        <g id="Group_298" data-name="Group 298">
          <rect id="Rectangle_230" data-name="Rectangle 230" width="172.51" height="3.12" transform="translate(267.66 528.61)" fill="#39302a"/>
        </g>
      </g>
      <g id="Group_301" data-name="Group 301">
        <g id="Group_300" data-name="Group 300">
          <path id="Path_346" data-name="Path 346" d="M295.78,531.73v3.12H267.66v-4.68Z" fill="#39302a"/>
        </g>
      </g>
      <g id="Group_303" data-name="Group 303">
        <g id="Group_302" data-name="Group 302">
          <path id="Path_347" data-name="Path 347" d="M168.11,519.35s16.71,2.17,21.12,3.93,12.88,11.56,12.88,11.56H181.47s-11.02.54-13.36-3.7C168.11,531.13,167.82,523.48,168.11,519.35Z" fill="#f79673"/>
        </g>
      </g>
      <g id="Group_306" data-name="Group 306">
        <rect id="Rectangle_231" data-name="Rectangle 231" width="407.309" height="26.37" transform="translate(123.71 534.85)" fill="#7c3b14"/>
      </g>
      <g id="Group_307" data-name="Group 307">
        <path id="Path_349" data-name="Path 349" d="M88.49,642.68l-6.2-11.96h0a10.687,10.687,0,0,0-9.59,15.4l5.15,10.48H264.62V642.69H88.49Z" fill="#0e0654"/>
      </g>
      <g id="Group_317" data-name="Group 317">
        <path id="Path_358" data-name="Path 358" d="M275.52,711.8l-.01-.07s-3.68,10.26-5.7,16.29c0,0,12.58,48.74,23.64,79.93L295,805v-.01C288.19,775.97,280.93,742.68,275.52,711.8Z" fill="#39302a"/>
      </g>
      <g id="Group_318" data-name="Group 318">
        <path id="Path_359" data-name="Path 359" d="M330.11,641.28c1.78,20.69,3.77,51.18,5.69,83.61h0l2.29-4.71s3.91-99.26-14.01-128.89c-15.05-24.9-34.48-30.07-34.48-30.07l-24.25.21C281.16,562.23,324.07,570.91,330.11,641.28Z" fill="#39302a"/>
      </g>
      <g id="Group_319" data-name="Group 319">
        <path id="Path_360" data-name="Path 360" d="M65.61,534.1c-1.05-.07-2.09-.17-3.13-.28h-.2s.13,2.83.24,4.77c0,0,35.45-.22,61.19-1.11v-2.4C102.6,535.16,79.09,534.99,65.61,534.1Z" fill="#39302a"/>
      </g>
      <g id="Group_322" data-name="Group 322">
        <g id="Group_320" data-name="Group 320">
          <path id="Path_361" data-name="Path 361" d="M92.78,413.53a57.232,57.232,0,0,1-2.43,8.53c-9.25,24.78-23.15,57.4-28.67,70.23v5.07h0c24.32-3.38,106.43,21.42,106.43,21.42s-81.98-26.8-103.15-22.75C64.96,496.03,85.85,450.22,92.78,413.53Z" fill="#39302a"/>
        </g>
        <g id="Group_321" data-name="Group 321">
          <path id="Path_362" data-name="Path 362" d="M92.99,412.42l-.02.06c-.06.32-.11.64-.17.96C92.86,413.1,92.93,412.76,92.99,412.42Z" fill="#39302a"/>
        </g>
      </g>
      <g id="Group_323" data-name="Group 323">
        <path id="Path_363" data-name="Path 363" d="M203.36,386.33s12.66,63.44,13.25,119.16C216.61,505.5,218.82,456.39,203.36,386.33Z" fill="#39302a"/>
      </g>
      <g id="Group_325" data-name="Group 325">
        <g id="Group_324" data-name="Group 324">
          <path id="Path_364" data-name="Path 364" d="M273.5,374.34s6.31-16.17,10.69-20.39,12.07-8.48,12.35-7.88-4.96,7.44-6.22,8.91c0,0,4.54,5.3,4.88,9.18.42,4.78-5.11,13.47-10.59,15.55Z" fill="#f79673"/>
        </g>
      </g>
      <g id="Group_327" data-name="Group 327">
        <path id="Path_366" data-name="Path 366" d="M168.11,339.95l-.09-.03c-.74-2-5.65-16.09-6.43-36.67l-.01-1.67a25.587,25.587,0,0,0,2.33-6.49c2.95-13.31-2.47-30.84-2.47-30.84l-30.01.11h0l-4.78.02.04,11.09a6.222,6.222,0,0,0-.55.5c-1.91,2-1.94,6.04.58,8.92l.07,17.45a188.3,188.3,0,0,1-5.93,36.77.214.214,0,0,1-.06.01l.03.12c-.01.03-.02.06-.03.1a.2.2,0,0,0,.05.01c5.11,27.19,42.33,40.8,50.66,28.08C179.86,354.68,168.11,339.95,168.11,339.95Z" fill="#f79673"/>
      </g>
      <g id="Group_328" data-name="Group 328">
        <path id="Path_367" data-name="Path 367" d="M161.53,301.74s17.92,25.14,16.06,42.06a50.1,50.1,0,0,0-9.01-3.2C168.59,340.6,162.42,333.65,161.53,301.74Z" fill="#39302a"/>
      </g>
      <g id="Group_336" data-name="Group 336">
        <path id="Path_371" data-name="Path 371" d="M161.53,301.74s-6.67,13.08-22.8,4.42c0,0,7.3,21.86,24.42,16.11A156.091,156.091,0,0,1,161.53,301.74Z" fill="#d07c61"/>
      </g>
      <g id="Group_337" data-name="Group 337">
        <path id="Path_372" data-name="Path 372" d="M161.6,258.94c-4.39-5.65-18.71-10.32-31.16-5.29-13.1,5.29-14.15,20.46-14.68,36.52-.45,13.54-29.28,31.3-20.55,56.75a89.094,89.094,0,0,1,25.58-7.57,55.5,55.5,0,0,0,8.03-28.15c-.06-10.14-.15-18.97.28-24.41-4.84-2.61-5.37-8.32-2.97-10.81,3.82-4,8.27.3,8.27.3.21.39.39.77.56,1.16a19.378,19.378,0,0,0,3.77-4.91s15.27,1.41,24.82,0C163.55,272.53,165.99,264.59,161.6,258.94Z" fill="#39302a"/>
      </g>
    </g>
    <g id="אגרטל_גבעול" data-name="אגרטל, גבעול">
      <g id="Group_261" data-name="Group 261">
        <path id="Path_327" data-name="Path 327" d="M452.73,920.34H400.87l-.05-.48-19-197.75h87.83l-.05.57Zm-50.9-1.06h49.92l16.74-196.11H382.98Z"/>
      </g>
      <g id="Group_262" data-name="Group 262">
        <path id="Path_328" data-name="Path 328" d="M385.18,751.5h81.43l-.86,10.03-80.26-6.86Z" fill="#39302a"/>
      </g>
      <g id="Group_263" data-name="Group 263">
        <path id="Path_329" data-name="Path 329" d="M411.41,722.67c-.04-.59-3.86-60.17-11.9-132.4-7.42-66.65-20.04-158.02-38.07-214.78l1.01-.32c18.06,56.84,30.69,148.28,38.12,214.99,8.04,72.26,11.86,131.85,11.9,132.45Z"/>
      </g>
      <g id="Group_264" data-name="Group 264">
        <path id="Path_330" data-name="Path 330" d="M425.21,722.65c-.05-3.7-4.56-370.86-7.7-436.42l1.06-.05c3.14,65.58,7.66,432.75,7.7,436.46Z"/>
      </g>
      <g id="Group_265" data-name="Group 265">
        <path id="Path_331" data-name="Path 331" d="M438.68,722.68l-1.06-.08c.16-2.09,16.47-210.44,58.3-324.83l.99.36C455.14,512.38,438.84,720.59,438.68,722.68Z"/>
      </g>
    </g>
  </g>
</svg>
