<svg xmlns="http://www.w3.org/2000/svg" width="767.979" height="657.271" viewBox="0 0 767.979 657.271"><defs><style>.a{fill:#e3ded9;}.b{fill:#39302a;}.c{fill:#e4dfe5;}.d{fill:#778d3c;}.e{fill:#3485c7;}.f{fill:#51a9e5;}.g{fill:#90e3f7;}.h{fill:#ff684d;}.i{fill:#db9e70;}.j{fill:#2c3b4f;}.k{fill:#324058;}.l{fill:#4475b0;}.m{fill:#4baf96;}.n{fill:#c6885d;}</style></defs><g transform="translate(-975.16 -369.194)"><g transform="translate(1150.116 890.853)"><rect class="a" width="84.61" height="47.531"/></g><g transform="translate(1148.97 981.56)"><path class="b" d="M736.9,828.7l-16.159,18.223s-40.931-8.959-44.095-1.964l44.247,20.01,9.008-.458-1.7,3.762,11.569,5.232s4.855-12.359,5.125-15.66l7.337-13.472Z" transform="translate(-676.643 -828.698)"/></g><g transform="translate(1212.288 778.163)"><g transform="translate(0 6.221)"><path d="M796.857,662.257h-34.7V574.248a11.847,11.847,0,0,1,11.834-11.833h11.035a11.847,11.847,0,0,1,11.834,11.833ZM763.11,661.3H795.9V574.248a10.888,10.888,0,0,0-10.877-10.875H773.987a10.887,10.887,0,0,0-10.877,10.875Z" transform="translate(-762.153 -562.415)"/></g><g transform="translate(10.146)"><path d="M790.267,561.192H775.855v-7.178h14.412Zm-13.455-.957h12.5v-5.263h-12.5Z" transform="translate(-775.855 -554.014)"/></g><g transform="translate(17.759 6.658)"><path d="M788.847,601.046a1.09,1.09,0,0,1-.372-.065c-4.125-1.486-1.649-31.9-1.111-37.975l.954.084c-1.531,17.3-1.882,36.14.482,36.99,2.26-1.643,1.574-23.563.638-37l.953-.067c.252,3.611,2.364,35.341-.9,37.81A1.058,1.058,0,0,1,788.847,601.046Z" transform="translate(-786.136 -563.005)"/></g></g><g transform="translate(1399.081 575.927)"><path class="b" d="M1025.165,280.9s-17.888,30.209-7.519,32.483a39.044,39.044,0,0,1,5.43-2.1S1027.1,298.539,1025.165,280.9Z" transform="translate(-1014.413 -280.898)"/></g><g transform="translate(975.16 474.11)"><g transform="translate(0 19.748)"><path d="M782.406,409.237H442.4a.479.479,0,0,1-.478-.478V170.545a.479.479,0,0,1,.478-.479h340.01a.479.479,0,0,1,.479.479V408.758A.479.479,0,0,1,782.406,409.237Zm-339.532-.957H781.927V171.023H442.874Z" transform="translate(-441.917 -170.066)"/></g><g transform="translate(136.188 133.093)"><path d="M625.836,324.356V323.4l171.57-.264v.957Z" transform="translate(-625.836 -323.136)"/></g><g transform="translate(136.188 107.604)"><path d="M625.836,289.935v-.957l171.57-.264v.957Z" transform="translate(-625.836 -288.714)"/></g><g transform="translate(136.188 82.115)"><path d="M625.836,255.512v-.957l171.57-.264v.957Z" transform="translate(-625.836 -254.291)"/></g><g transform="translate(16.913 39.366)"><g transform="translate(0.479 22.763)"><path class="c" d="M465.4,270.051l33.93-42.75L547.4,298.875h-82Z" transform="translate(-465.404 -227.301)"/></g><g transform="translate(61.18 29.701)"><path class="c" d="M547.38,266.378l21.294-29.708,11.863,17.707v46.929h-9.71Z" transform="translate(-547.38 -236.67)"/></g><path d="M559.1,291.375h-93.86a.479.479,0,0,1-.478-.478V197.039a.479.479,0,0,1,.478-.479H559.1a.479.479,0,0,1,.478.479V290.9A.479.479,0,0,1,559.1,291.375Zm-93.382-.957h92.9v-92.9h-92.9Z" transform="translate(-464.757 -196.56)"/></g><path d="M782.406,164.1H442.4a.479.479,0,0,1-.478-.478V143.875a.479.479,0,0,1,.478-.478h340.01a.479.479,0,0,1,.479.478v19.749A.479.479,0,0,1,782.406,164.1Zm-339.532-.957H781.927v-18.79H442.874Z" transform="translate(-441.917 -143.397)"/><path d="M547.224,379.916a28.338,28.338,0,0,0-9.923-21.539c-.019-.059-.031-.095-.034-.1l-.061.021a28.392,28.392,0,1,0-1.488,44.432l.063.036c.026-.045.048-.093.074-.138A28.37,28.37,0,0,0,547.224,379.916Zm-55.823.479h5.612a54.471,54.471,0,0,0,.931,11.075c-2.467-.633-4.072-1.164-4.574-1.337A27.263,27.263,0,0,1,491.4,380.395Zm2-10.77c.547-.187,2.229-.738,4.782-1.386a78.022,78.022,0,0,0-1.151,11.2H491.4A27.284,27.284,0,0,1,493.4,369.625Zm52.856,9.812h-5.46a78.419,78.419,0,0,0-1.18-11.371q2.325.672,4.641,1.554A27.274,27.274,0,0,1,546.254,379.438Zm-6.408,0h-9.191c-.043-4.918-.217-9.465-.429-13.329a65.327,65.327,0,0,1,8.373,1.682A77.578,77.578,0,0,1,539.846,379.438ZM529.4,393.762a76.466,76.466,0,0,1-10.1.548V380.395h10.4C529.728,384.665,529.647,389.187,529.4,393.762Zm-21.287-13.367H518.35v13.9a89.046,89.046,0,0,1-9.944-.79C508.173,389.014,508.095,384.583,508.117,380.395Zm.006-.957c.043-4.861.214-9.358.423-13.188a88.777,88.777,0,0,1,9.8-.772v13.959Zm11.184,0V365.459a76.531,76.531,0,0,1,9.956.531c.215,3.885.393,8.478.437,13.448Zm10.865-14.3c-.3-5.146-.652-8.943-.814-10.558a27.452,27.452,0,0,1,7.114,4.343,75.261,75.261,0,0,1,1.931,7.82A66.553,66.553,0,0,0,530.172,365.14Zm-.964-.119a77.7,77.7,0,0,0-9.9-.515V352.489a27.282,27.282,0,0,1,9.05,1.7C528.481,355.364,528.876,359.361,529.208,365.02Zm-10.858-.5a90.055,90.055,0,0,0-9.75.756c.343-5.931.758-10.073.873-11.159a27.3,27.3,0,0,1,8.877-1.632Zm-10.715.886c-3.18.453-5.97,1.016-8.255,1.553a74.186,74.186,0,0,1,2.033-8.236,27.461,27.461,0,0,1,7.058-4.214C508.31,356.118,507.941,360.058,507.635,365.41Zm-.053.972c-.205,3.805-.372,8.253-.415,13.055h-9.189a77.552,77.552,0,0,1,1.21-11.447C501.473,367.44,504.322,366.854,507.582,366.382Zm-9.621,14.013h9.2c-.022,4.146.054,8.53.28,12.97-3.309-.484-6.2-1.085-8.484-1.642A52.944,52.944,0,0,1,497.961,380.395Zm9.531,13.943c.205,3.667.518,7.359.965,10.975a27.409,27.409,0,0,1-5.646-3.14,34.466,34.466,0,0,1-3.616-9.411C501.476,393.305,504.29,393.877,507.492,394.338Zm.965.135a90.009,90.009,0,0,0,9.894.775v12.095a27.308,27.308,0,0,1-8.881-1.633C509,402.013,508.67,398.231,508.457,394.473Zm10.85.791c.3,0,.6.008.9.008a77.021,77.021,0,0,0,9.147-.535c-.213,3.649-.534,7.318-.989,10.907a27.3,27.3,0,0,1-9.055,1.7Zm11.01-.65a66.227,66.227,0,0,0,8.261-1.628,34.467,34.467,0,0,1-3.46,8.994,27.4,27.4,0,0,1-5.742,3.264C529.806,401.741,530.114,398.167,530.317,394.614Zm.05-.971c.237-4.535.316-9.015.295-13.248h9.2a52.721,52.721,0,0,1-1.039,11.522A65.123,65.123,0,0,1,530.367,393.643Zm10.444-13.248h5.443a27.269,27.269,0,0,1-1.97,9.742q-2.211.848-4.436,1.5A54.266,54.266,0,0,0,540.811,380.395Zm2.918-11.983q-2.149-.783-4.307-1.388c-.558-2.952-1.165-5.346-1.594-6.875A27.575,27.575,0,0,1,543.729,368.412Zm-43.672-8.483c-.439,1.544-1.1,4.087-1.691,7.28-2.008.5-3.53.949-4.458,1.243A27.553,27.553,0,0,1,500.057,359.929Zm-6.183,31.378c.9.284,2.358.72,4.284,1.2a36.913,36.913,0,0,0,2.806,8.208A27.568,27.568,0,0,1,493.875,391.307Zm43.1,9.168a36.9,36.9,0,0,0,2.649-7.779q2.071-.59,4.138-1.341A27.557,27.557,0,0,1,536.972,400.474Z" transform="translate(-454.508 -197.409)"/><g transform="translate(136.188 209.702)"><path d="M625.836,427.815v-.957l171.57-.263v.957Z" transform="translate(-625.836 -426.595)"/></g></g><g transform="translate(1461.698 451.366)"><g transform="translate(113.764 331.647)"><path d="M1329.643,912.715h-48.784l-.11-.323c-12.635-37.059-27.944-238.541-28.1-240.573l-.039-.514h105.277l-.039.514c-.153,2.032-15.462,203.515-28.1,240.573Zm-48.1-.957h47.412c12.26-36.834,27.029-228.113,27.9-239.5H1253.643C1254.515,683.644,1269.283,874.923,1281.546,911.757Z" transform="translate(-1252.612 -671.304)"/></g><g transform="translate(116.175 355.996)"><path class="b" d="M1255.868,704.186h100.456l-.8,9.638L1255.868,709Z" transform="translate(-1255.868 -704.186)"/></g><g transform="translate(0 126.921)"><path class="d" d="M1189.122,399.36a134.036,134.036,0,0,1,4.834,31.458c-1.173-12.066-5.982-25.766-8.759-32.9-12.276-4.017-25.785-3.7-38.4-1.456l2.9,10.188-6.5-9.492a169.877,169.877,0,0,0-44.213,16.5c14.5,1.222,29.382,12.69,47.763,29.335,6.739-3.49,18.538-8.538,31.665-9.31,0,0-16.755,4.954-28.184,12.479,4.67,4.284,9.566,8.865,14.739,13.672a80.338,80.338,0,0,0,23.854,15.3c3.692-1.806,7.774-3.888,7.774-3.888l-3.012,5.706a86.56,86.56,0,0,0,33.468,4.886C1226.8,431.216,1210.245,408.14,1189.122,399.36Z" transform="translate(-1098.976 -394.825)"/></g><g transform="translate(125.136)"><path class="d" d="M1315.332,352.122l10.92-4.452c5.973-26.016,4.186-51.324,1.229-69.056-12.7,4.274-26.5,12.258-26.5,12.258a152.03,152.03,0,0,1,25.669-16.908c-1.215-6.355-2.513-11.488-3.506-14.93a222.144,222.144,0,0,1-7.33-35.613,150.069,150.069,0,0,0-24.767,26.3l4.909,12.2-6.752-9.58a117.217,117.217,0,0,0-20.722,56.9c7.85,3.783,20.872,10.7,25.769,17.035,0,0-12.918-8.98-26.02-13.868-3.3,51.64,26.169,94.7,26.169,94.7,16.909-17.267,26.352-37.258,31.25-56.98Z" transform="translate(-1267.969 -223.421)"/></g><g transform="translate(189.191 121.112)"><path class="d" d="M1394.4,477.927a3.757,3.757,0,0,1-1.353-.1l1.353.1c3.413-.049,12.647-.869,20.28-1.6,12.565-15.94,18.008-33.745,20.532-46.321-10.222.31-25.166,1.212-35.943,3.8a173.266,173.266,0,0,1,36.611-7.351c.626-3.608,1.011-6.646,1.271-8.855,2.233-18.965,9.57-27.584,9.57-27.584a98.558,98.558,0,0,0-26.014-3c-2.828,4.446-6.088,10.587-6.366,15.449a57.478,57.478,0,0,1,1.066-15.111c-18.953,1.965-32.112,11.309-41.2,24.054,1.065,18.933-2.692,42.737-2.692,42.737,1.029-11.412-.036-28.068-.8-37.353-21.585,36.6-15.429,93.87-15.429,93.87,26.975-5.173,44.966-17.383,57.03-31.459Z" transform="translate(-1354.474 -386.98)"/></g><g transform="translate(82.638 161.093)"><path d="M1291.661,612.042a324.952,324.952,0,0,0-13.349-65.141c-10.223-32.736-30.272-77.554-67.734-105.157l.569-.77c37.675,27.761,57.822,72.784,68.085,105.664a325.676,325.676,0,0,1,13.384,65.333Z" transform="translate(-1210.577 -440.974)"/></g><g transform="translate(150.954 98.552)"><path d="M1308.335,590.115c-.1-1.711-9.812-171.782-3.187-233.6l.954.1c-6.619,61.742,3.092,231.733,3.191,233.443Z" transform="translate(-1302.837 -356.513)"/></g><g transform="translate(169.857 171.587)"><path d="M1329.309,615.752l-.945-.135c.159-1.129,16.4-113.5,53.693-160.471l.748.595C1345.675,502.506,1329.47,614.625,1329.309,615.752Z" transform="translate(-1328.364 -455.146)"/></g></g><g transform="translate(1150.116 883.768)"><rect class="e" width="462.996" height="61.724" rx="4.377"/></g><g transform="translate(1252.733 894.576)"><rect class="f" width="253.928" height="40.087" transform="translate(253.928 40.087) rotate(180)"/></g><g transform="translate(1153.82 945.492)"><path class="g" d="M1107.354,779.988H694.4a12.808,12.808,0,0,0-11.208,6.607h383.471a33.879,33.879,0,0,1,0,67.758H683.193a12.808,12.808,0,0,0,11.208,6.607h412.953a40.486,40.486,0,0,0,0-80.973Z" transform="translate(-683.193 -779.988)"/></g><g transform="translate(1157.817 952.099)"><g transform="translate(0)"><path class="a" d="M688.591,795.118a12.748,12.748,0,0,1,1.607-6.208h377.867a33.879,33.879,0,0,1,33.879,33.879h0a33.879,33.879,0,0,1-33.879,33.879H690.2a12.748,12.748,0,0,1-1.607-6.207Z" transform="translate(-688.591 -788.911)"/></g></g><g transform="translate(1264.542 974.669)"><path class="h" d="M847.184,819.391h14.464v33.5l-14.464-9.516-14.464,9.516v-33.5Z" transform="translate(-832.72 -819.391)"/></g><g transform="translate(1376.321 883.746)"><path class="b" d="M983.676,696.6l3.654,7.107h72.677s24.723-.416,28.551-7.107Z" transform="translate(-983.676 -696.602)"/></g><g transform="translate(1173.006 945.492)"><path class="b" d="M1132.51,779.988S913.758,786.6,894.788,786.6l-164.916.243-20.77-6.85Z" transform="translate(-709.103 -779.988)"/></g><g transform="translate(1349.81 633.461)"><path class="i" d="M980.064,358.6s-34.337,89.443-32.085,167.434h14.5Z" transform="translate(-947.873 -358.597)"/></g><g transform="translate(1292.312 805.926)"><path class="j" d="M882.027,598.862a35.718,35.718,0,0,1,21.178-7.245v-.005l48.091-.1,2.592,77.147c29.487,57.5,53.391,100.677,53.391,100.677l-21.692,11.306S898.879,678.119,883.567,658.979,864.057,611.962,882.027,598.862Z" transform="translate(-870.224 -591.508)"/></g><path d="M1218.049,225.257h-62.372a.479.479,0,0,0-.478.478V265.89a.479.479,0,0,0,.478.479h62.372a.479.479,0,0,0,.479-.479V225.735A.479.479,0,0,0,1218.049,225.257Zm-41.454,14.514-20.439,14.185V226.614Zm-19.29-13.557h59.117l-29.559,19.03Zm60.265.4v27.408L1197.082,239.8Zm-61.415,38.8v-10.29l21.311-14.79,9.137,5.882a.477.477,0,0,0,.52,0l9.087-5.85,21.36,14.823v10.225Z" transform="translate(348.131 227.469)"/><g transform="translate(1207.681 805.082)"><path class="k" d="M840.562,631.682c29.033-43.8,61.023-40.539,61.023-40.539s14.383.252,96.329.252c24.9,0,46.164-3.067,48.889,1.4,7.442,12.2-.258,66.175-41.228,76.26H927.049c-9.755-2.717-52.688-5.266-52.688-5.266C871.662,693.454,772.8,782.52,772.8,782.52l-16.873-17.252S804.541,686.021,840.562,631.682Z" transform="translate(-755.931 -590.368)"/></g><g transform="translate(1365.437 603.475)"><path class="l" d="M971.32,520.5l130.773,1.635c1.754-5.372,2.809-32.65.169-72.166-3.436-51.437-7.015-110.658-33.582-124.089-26.659-13.479-56.093-5.347-56.093-5.347s-15.767,2.755-24.936,22.013c-8.24,17.3-18.622,93.589-18.622,127.4C969.028,486.929,968.43,513.375,971.32,520.5Z" transform="translate(-968.977 -318.101)"/></g><g transform="translate(1430.52 793.157)"><path class="b" d="M1108.556,579.217c-19.021,1.768-36.817,2.6-51.334,2.966l-.352.04,6.161,1.412s56.184,1.52,63.113-4.462c0,0,.173-3.956.261-4.909l-.049.006A48.69,48.69,0,0,1,1108.556,579.217Z" transform="translate(-1056.871 -574.263)"/></g><g transform="translate(1392.661 681.101)"><path class="b" d="M1074.182,422.934c4.7,18.455,22.363,84.619,22.363,84.619-37.152,2.2-90.8,23.6-90.8,23.6s64.49-22.5,95.413-22.5C1101.156,508.656,1082.325,452.266,1074.182,422.934Z" transform="translate(-1005.743 -422.934)"/></g><g transform="translate(1365.258 665.892)"><path class="b" d="M978.253,402.394s-9.7,55.133-9.338,106.813C968.915,509.206,966.65,460.19,978.253,402.394Z" transform="translate(-968.736 -402.394)"/></g><g transform="translate(1392.043 984.078)"><path class="b" d="M1011.745,867.258a78.388,78.388,0,0,1,14.058-15.486l-2.954-9.834,18.878-9.84,6.778,10.592c2.384,2.3,8.879,13.88,8.879,13.88l-11.374,5.645-1.836-3.7-5.652,7.586-8.853,7.37h-24.763A10.172,10.172,0,0,1,1011.745,867.258Z" transform="translate(-1004.908 -832.098)"/></g><g transform="translate(1031.07 956.598)"><path class="m" d="M556.546,928.192c-6.394,1.485-10.3,8.465-12.68,16.761-4.606-19.412-14.039-31.667-19.1-21.539-4.866,9.731,2.713,29.264,8.869,42.186-3.893-6.284-9.01-12.552-13.92-12.51-9.831.087,15.161,25.12,15.161,25.12h11.052S574.188,924.1,556.546,928.192Z" transform="translate(-517.421 -909.373)"/><path class="m" d="M1426.992,923.308c-7.34,0-14.02,11.779-18.986,24.045-.112-27.969-8.5-49.463-16.851-38.879-10.955,13.877,8.083,66.091,8.083,66.091h6.221S1442.3,923.308,1426.992,923.308Z" transform="translate(-743.293 -905.727)"/></g><g transform="translate(1502.978 369.194)"><path d="M1155.2,180.737a.487.487,0,0,1-.141-.021.48.48,0,0,1-.339-.458V112.927a.479.479,0,0,1,.479-.478h116.174a.479.479,0,0,1,.478.478v42.914a.478.478,0,0,1-.478.478H1171.91L1155.6,180.526A.476.476,0,0,1,1155.2,180.737Zm.478-67.332v65.286l15.577-23.118a.479.479,0,0,1,.4-.212H1270.9V113.406Z" transform="translate(-1154.724 -112.449)"/><g transform="translate(18.644 25.691)"><path class="b" d="M1183.663,149.024a1.88,1.88,0,1,1-1.88-1.88A1.88,1.88,0,0,1,1183.663,149.024Z" transform="translate(-1179.903 -147.144)"/></g><g transform="translate(46.623 25.691)"><path class="b" d="M1221.448,149.024a1.88,1.88,0,1,1-1.88-1.88A1.88,1.88,0,0,1,1221.448,149.024Z" transform="translate(-1217.688 -147.144)"/></g><g transform="translate(74.602 25.691)"><path class="b" d="M1259.233,149.024a1.88,1.88,0,1,1-1.88-1.88A1.881,1.881,0,0,1,1259.233,149.024Z" transform="translate(-1255.473 -147.144)"/></g><g transform="translate(102.581 25.691)"><path class="b" d="M1297.018,149.024a1.881,1.881,0,1,1-1.88-1.88A1.88,1.88,0,0,1,1297.018,149.024Z" transform="translate(-1293.257 -147.144)"/></g></g><path class="i" d="M1088.229,354.246c-1.679-3.511-8.554-16.03-14.1-20.062,0,0-26.167,37.168-3.313,88.489h0c8.888,28.936,20.247,62.951,20.247,62.951-30.923,0-95.413,22.5-95.413,22.5s-10.746,2.954-13.856,5.347-15.047,4.153-14.936,6.661c0,0,29.291.035,30.847-.319l.019.105a765.263,765.263,0,0,0,87.471-3.006c20.642-1.919,35.19-13.971,37.131-34.246C1127.113,432.667,1088.229,354.246,1088.229,354.246Z" transform="translate(397.01 281.2)"/><path class="i" d="M1064.112,297.194a294.832,294.832,0,0,1-8.209-32.714l-2.363-13.66h0l-3.836-22.174-4.262.738v0l-26.741,4.634s-2.064,16.46,2.664,27.846a22.884,22.884,0,0,0,3.1,5.469l.441,2.541a120.891,120.891,0,0,1-2.529,27.847l-2.335.713s-13.461,18.339-6.124,31.9,49.234,2.414,54.045-32.289Z" transform="translate(385.364 308.59)"/><path class="b" d="M1078.163,276.636c-12.887-13.637-19.246-39.678-21.33-49.268-2.073-9.537-22.445-8.9-36.076,4.416h-.006l-.082.085c-.047.046-.095.088-.141.134l.007.006-.007.007V232s-.116.113-.284.31l0,.005h0c-.787.926-2.763,3.763-.16,6.516a16.679,16.679,0,0,0,.49-6.39h0l.284-.205c2.088,1.492,13.9,9.655,22.827,10.23a13.025,13.025,0,0,1,.05-4.04s2.554-4.978,6.992-2.662c2.391,1.243,3.623,5.163,1.752,8.551.467,14.6,2.711,50.964,13.462,50.865a70.316,70.316,0,0,1,21.664,9.6S1091.05,290.274,1078.163,276.636Z" transform="translate(383.535 310.599)"/><g transform="translate(1263.151 706.742)"><path class="c" d="M953.355,551.936H848.393l-17.551-94.375H935.8Z" transform="translate(-830.842 -457.562)"/><g transform="translate(17.551 94.375)"><rect class="c" width="155.98" height="5.647"/></g><g transform="translate(17.551 94.375)"><rect class="b" width="155.98" height="2.824"/></g><g transform="translate(122.514 95.786)"><path class="b" d="M996.294,588.284v2.824l51.017.047v-4.235Z" transform="translate(-996.294 -586.919)"/></g></g><g transform="translate(1409.738 575.927)"><path class="n" d="M1028.9,280.9s8.239,11.075,21.327.169c0,0-2.261,22.211-21.422,17.132A75.486,75.486,0,0,0,1028.9,280.9Z" transform="translate(-1028.805 -280.898)"/></g><g transform="translate(1352.438 427.4)"><g transform="translate(14.898 36.574)"><path d="M1015.38,166.8l-43.839-22.131v-14.52l43.905,22.129,43.768-22.572v14.524l-.2.1Zm-43.1-22.586,43.1,21.755,43.1-22.19V130.923l-43.023,22.188-43.169-21.757Z" transform="translate(-971.542 -129.709)"/></g><path d="M1010.228,140.294l-.168-.086-58.638-29.9,58.806-29.989,58.663,29.989ZM953.052,110.3l57.175,29.158,57.036-29.158-57.036-29.157Z" transform="translate(-951.422 -80.316)"/><g transform="translate(58.575 29.655)"><path d="M1060.612,142.9h-.741v-7.8l-29.345-14.067.32-.667,29.766,14.268Z" transform="translate(-1030.527 -120.365)"/></g><g transform="translate(57.379 28.633)"><circle cx="1.356" cy="1.356" r="1.356"/></g><g transform="translate(86.384 50.286)"><circle cx="1.907" cy="1.907" r="1.907"/></g><g transform="translate(87.92 52.361)"><rect width="0.74" height="14.546"/></g><g transform="translate(88.411 52.38)"><rect width="0.74" height="14.529" transform="translate(0 0.042) rotate(-3.258)"/></g><g transform="translate(86.568 52.38)"><rect width="14.529" height="0.74" transform="translate(0 14.506) rotate(-86.754)"/></g></g></g></svg>