<svg xmlns="http://www.w3.org/2000/svg" width="534.015" height="508.767" viewBox="0 0 534.015 508.767"><defs><style>.a{fill:#ecebea;}.b{fill:#ff3d1f;}.c{fill:#9bc0be;}.d{fill:#eca72f;}.e{fill:#373535;}.f{fill:#64a489;}.g{fill:#39302a;}.h{fill:#d1beaa;}.i{fill:#ddcdb5;}.j{fill:#f69573;}.k{fill:#ce7c61;}.l{fill:#fff8f5;}.m{fill:#ea8e71;}.n{fill:#d2a481;}.o{fill:#e3dee4;}.p{fill:#cd5a2a;}.q{fill:#b44923;}</style></defs><g transform="translate(-2986.565 -51.834)"><g transform="translate(2986.979 153.847)"><rect class="a" width="319.735" height="243.118"/></g><g transform="translate(2986.979 52.247)"><rect class="a" width="447.565" height="33.029"/></g><g transform="translate(2999.141 63.748)"><path class="b" d="M3009.444,69.7a4.67,4.67,0,1,1-4.657-5.014A4.845,4.845,0,0,1,3009.444,69.7Z" transform="translate(-3000.13 -64.685)"/></g><g transform="translate(3019.096 63.748)"><path class="c" d="M3030.968,69.7a4.669,4.669,0,1,1-4.657-5.014A4.845,4.845,0,0,1,3030.968,69.7Z" transform="translate(-3021.654 -64.685)"/></g><g transform="translate(3039.051 63.748)"><path class="d" d="M3052.491,69.7a4.67,4.67,0,1,1-4.657-5.014A4.845,4.845,0,0,1,3052.491,69.7Z" transform="translate(-3043.177 -64.685)"/></g><g transform="translate(2986.979 84.863)"><rect class="e" width="447.565" height="0.827" transform="translate(0 0)"/></g><g transform="translate(3243.063 96.838)"><path class="f" d="M3263.229,100.376v72.633l16.463-21.841H3439.55V100.376Z" transform="translate(-3263.229 -100.376)"/></g><g transform="translate(3262.387 108.256)"><g transform="translate(0 0)"><rect class="e" width="0.827" height="142.552" transform="matrix(0.005, -1, 1, 0.005, 0, 0.827)"/></g><g transform="translate(0 13.472)"><rect class="e" width="0.827" height="142.552" transform="translate(0 0.827) rotate(-89.742)"/></g><g transform="translate(0 26.943)"><rect class="e" width="0.827" height="142.552" transform="matrix(0.005, -1, 1, 0.005, 0, 0.827)"/></g></g><g transform="translate(2990.729 414.269)"><g transform="translate(0 39.132)"><path class="f" d="M3038.469,591.759s-51.362-36.209-47.169-106.786c0,0,61.844,31.536,58.7,106.786Z" transform="translate(-2991.057 -484.973)"/></g><g transform="translate(58.94 76.518)"><path class="f" d="M3054.633,594.7s-1.048-48.437,47.168-69.4c0,0,1.541,53.373-35.13,69.4Z" transform="translate(-3054.631 -525.298)"/></g><g transform="translate(41.833 83.273)"><path class="g" d="M3041.758,595.23s-10.081-42-3.141-62.646l1.685,3.066S3036.179,567.626,3041.758,595.23Z" transform="translate(-3036.179 -532.584)"/></g><g transform="translate(44.593)"><path class="f" d="M3041.975,588.683s-18.169-92.81,37.734-145.919c0,0,29.325,86.391-20.277,145.919Z" transform="translate(-3039.156 -442.764)"/></g><g transform="translate(64.87 80.606)"><path class="g" d="M3061.027,595.02s28.742-23.49,33.026-65.313a72.276,72.276,0,0,0-6.142,3.841S3084.623,565.8,3061.027,595.02Z" transform="translate(-3061.027 -529.707)"/></g></g><g transform="translate(3022.848 101.821)"><g transform="translate(188.999 95.898)"><path class="h" d="M3360.326,214.034l-13.254-4.845S3308.018,274.375,3301,332.095c-48.941-101.116-71.444-119.272-71.444-119.272,4.278,15.427,13.893,114.54,13.893,114.54,13.505,25.969,27.2,47.93,55.99,45.643C3299.442,373.006,3354.24,373.171,3360.326,214.034Z" transform="translate(-3229.559 -209.189)"/></g><g transform="translate(55.682 84.413)"><path class="i" d="M3232.339,407.532H3092.218c-2.555-1.533-9.308-27.53-5.119-69.118s7.356-118.95,35.4-133.126c28.135-14.225,74.275-6.269,74.275-6.269s18.865,2.212,28.543,22.537c8.7,18.257,22.275,108.184,21.09,134.721C3245.6,374.179,3244.96,391.784,3232.339,407.532Z" transform="translate(-3085.76 -196.801)"/></g><g transform="translate(113.424 10.667)"><g transform="translate(5.647)"><path class="j" d="M3160.047,117.257l32.874,4.708-5.53,35.932-33.258.691Z" transform="translate(-3154.134 -117.257)"/></g><g transform="translate(0 26.577)"><path class="j" d="M3193.2,195.778c-12.746,6.3-45.152-.781-45.152-.781,4.2-25.627,5.647-34.32,5.647-34.32l33.5-14.754C3185.194,175.133,3193.2,195.778,3193.2,195.778Z" transform="translate(-3148.043 -145.924)"/></g><g transform="translate(10.364 0.642)"><path class="j" d="M3164.939,117.95l28.354,4.065s2.684,17.3-1.953,29.458c-2.513,6.589-6.647,11.608-14.891,11.4a19.317,19.317,0,0,1-17.016-16.1C3157.936,133.852,3164.939,117.95,3164.939,117.95Z" transform="translate(-3159.222 -117.95)"/></g><g transform="translate(19.824 40.64)"><path class="k" d="M3188.506,161.092s-7.626,9.131-19.081,2.227c0,0,2.753,20.538,20.866,15.7A126.676,126.676,0,0,1,3188.506,161.092Z" transform="translate(-3169.425 -161.092)"/></g><g transform="translate(0 73.106)"><path class="j" d="M3193.2,199.229s11.219,14.061,3.242,26.235-43.681-.924-48.394-27.016C3148.043,198.448,3174.3,192.7,3193.2,199.229Z" transform="translate(-3148.043 -196.111)"/></g></g><g transform="translate(0 104.155)"><path class="i" d="M3105.114,220.293s-55.59,107.558-79.412,188.791H3057.7s36.274-57.848,47.418-86.214S3125.081,202.812,3105.114,220.293Z" transform="translate(-3025.701 -218.096)"/></g><g transform="translate(90.225)"><path class="g" d="M3159.039,131.175s11.809,5.091,27.87-9.228a17.973,17.973,0,0,0,4.462,7.645l.054,3.491s6.135-9.784,3.589-16.665-8.106-4.017-8.106-4.017-14.168-8.273-24.031-6.364-16.453,8.91-16.658,29.91-31.629,37.586-21.008,62.7c0,0,11.111-5.039,21.008-6.582,0,0,7.612-35.054,8.544-49.917C3154.763,142.152,3159.338,137.061,3159.039,131.175Z" transform="translate(-3123.019 -105.752)"/></g><g transform="translate(120.982 20.39)"><path class="j" d="M3165.88,130.324s-3.6-4.68-7.766-1.431c-3.447,2.679-2.864,11.388,6.858,12.734a13.346,13.346,0,0,0,.907-11.3" transform="translate(-3156.195 -127.745)"/></g><g transform="translate(117.673 36.401)"><path class="g" d="M3156.921,145.014s5.256,13.614-4.213,28.365C3152.708,173.379,3151.671,158.378,3156.921,145.014Z" transform="translate(-3152.625 -145.014)"/></g><g transform="translate(152.329 47.907)"><path class="g" d="M3192.211,157.425s23.776,25.786,20.5,41.267c0,0-4.046-2.313-17.022-3.673,0,0-5.316-13.639-5.687-34.194A37.221,37.221,0,0,0,3192.211,157.425Z" transform="translate(-3190.006 -157.425)"/></g><g transform="translate(55.703 208.93)"><path class="g" d="M3085.79,377.583c-.074,2,.524,11.847.524,11.847,9.517-3.622,23.179-58.322,23.179-58.322-4.839,12.316-14.414,30.188-23.7,46.47Z" transform="translate(-3085.783 -331.108)"/></g><g transform="translate(201.61 130.796)"><path class="g" d="M3243.162,246.831s12.354,62.379,14.4,98.7C3257.566,345.532,3262.029,325.6,3243.162,246.831Z" transform="translate(-3243.162 -246.831)"/></g><g transform="translate(306.511 85.62)"><path class="j" d="M3356.31,208.459s5.066-10.594,16.051-10.351c0,0,21.971,1.478,26.993.547s0,4.35-9.416,4.064c0,0,9.614-1.939,11.4.457s-15.848,14.248-33.711,9.42Z" transform="translate(-3356.31 -198.104)"/></g></g><g transform="translate(3185.783 443.588)"><g transform="translate(0.414 0.414)"><rect class="l" width="113.732" height="116.186"/></g><path class="e" d="M3316.005,591.4H3201.446V474.388h114.559Zm-113.732-.827h112.906V475.215H3202.273Z" transform="translate(-3201.446 -474.388)"/></g><g transform="translate(3221.736 491.674)"><g transform="translate(0.413 0.413)"><rect class="l" width="179.556" height="68.1"/></g><path class="e" d="M3420.608,595.182H3240.225V526.255h180.383Zm-179.556-.827H3419.78V527.082H3241.052Z" transform="translate(-3240.225 -526.255)"/></g><g transform="translate(2986.565 51.834)"><path class="e" d="M3434.958,397.379H2986.565V51.834h448.393Zm-447.565-.827H3434.13V52.661H2987.393Z" transform="translate(-2986.565 -51.834)"/></g><g transform="translate(3252.446 220.316)"><g transform="translate(154.085 97.009)"><path class="m" d="M3485.316,338.2s-36.7,36.791-45.767,48.525l4.06,7.735s28.534-16.327,39.443-27.285Z" transform="translate(-3439.549 -338.198)"/></g><g transform="translate(23.625 159.066)"><path class="n" d="M3476.315,405.134,3298.833,573.352h17.819s82.332-28.74,99.515-73.924c0,0,116.8-43.671,118.206-75.491C3535.064,408.356,3476.315,405.134,3476.315,405.134Z" transform="translate(-3298.833 -405.134)"/></g><g transform="translate(164.334 214.652)"><g transform="translate(0.414 0.413)"><rect class="l" width="102.973" height="124.806"/></g><path class="e" d="M3554.4,590.724H3450.6V465.091h103.8Zm-102.973-.827h102.146V465.918H3451.431Z" transform="translate(-3450.604 -465.091)"/></g><g transform="translate(218.473 6.503)"><path class="j" d="M3527.877,240.65,3509,240.577l2.325,23.743,16.457.064Z" transform="translate(-3509 -240.577)"/></g><g transform="translate(216.741 18.696)"><path class="j" d="M3507.132,281.9c7.245,3.58,23.554.466,23.554.466-3.837-13.591-3.305-28.64-3.305-28.64l-16.275,10.14C3512.239,280.472,3507.132,281.9,3507.132,281.9Z" transform="translate(-3507.132 -253.728)"/></g><g transform="translate(216.655 6.503)"><path class="j" d="M3525.138,240.637l-16.281-.06s-2.942,9.508-1.341,16.728c.869,3.913,2.778,7.078,7.431,7.645a10.981,10.981,0,0,0,10.9-7.645C3527.761,250.161,3525.138,240.637,3525.138,240.637Z" transform="translate(-3507.039 -240.577)"/></g><g transform="translate(226.721 11.938)"><path class="j" d="M3518.839,247.526s2.411-2.334,4.485-.162c1.717,1.792.667,6.642-4.911,6.595a7.589,7.589,0,0,1,.426-6.432" transform="translate(-3517.896 -246.439)"/></g><g transform="translate(213.146 46.722)"><path class="j" d="M3530.4,284.572s-17.456,11.276-23.554,9.685-3.289-8.529,0-10.151A203.9,203.9,0,0,1,3530.4,284.572Z" transform="translate(-3503.254 -283.958)"/></g><g transform="translate(106.369 97.008)"><path class="o" d="M3434.411,396.149H3398.2L3388.083,338.2H3424.3Z" transform="translate(-3388.083 -338.198)"/></g><g transform="translate(116.42 154.959)"><rect class="o" width="65.678" height="3.254"/></g><g transform="translate(197.544 41.912)"><path class="p" d="M3491.763,395.923l56.362,1.091c1.021-.871,3.722-15.649,2.047-39.29s-2.943-67.616-14.158-75.673c-11.253-8.086-29.707,1.32-29.707,1.32a22.7,22.7,0,0,0-11.417,12.811c-3.609,10.33-8.909,56.612-8.436,71.7C3486.774,378.055,3486.715,386.971,3491.763,395.923Z" transform="translate(-3486.425 -278.77)"/></g><g transform="translate(149.259 50.758)"><path class="j" d="M3521.741,293.871c-1.671-6.443-7.107-5.627-8.369-5.4-11.658,2.407-13.445,11.259-14.138,18.756-1.849,20.021,4.012,52.673,4.012,52.673-31.425.954-68.9,24.546-68.9,24.546l.846,6.142c16.625,1.638,76.183-4.549,87.934-24.106C3532.241,351.305,3525.828,309.637,3521.741,293.871Z" transform="translate(-3434.344 -288.311)"/></g><g transform="translate(116.42 154.959)"><rect class="g" width="65.678" height="1.627"/></g><g transform="translate(167.449 155.773)"><path class="g" d="M3453.964,402.4v1.627h14.649v-2.441Z" transform="translate(-3453.964 -401.583)"/></g><g transform="translate(123.538 223.685)"><path class="g" d="M3411,525.309s5.319-35.047,5-50.475l-5.809,5.507-3.582,10.248,2.842,36.459S3410.738,525.593,3411,525.309Z" transform="translate(-3406.601 -474.834)"/></g><g transform="translate(90.52 157.961)"><path class="n" d="M3403.618,404.2s-34.537.784-32.548,41.576c1.737,35.616,14.213,127.493,14.213,127.493h15.273s14.316-77.961,3.33-126.486c0,0,65.067,24.056,109.419,9.706,24.341-7.875,31.74-42.24,26.328-50.347-1.674-2.508-13.659-.96-28-1.439C3471.809,403.371,3403.618,404.2,3403.618,404.2Z" transform="translate(-3370.987 -403.942)"/></g><g transform="translate(147.471 208.337)"><path class="g" d="M3432.415,459.845s14.1,12.5,17.277,13.782v-8.62l28.318-.149s-26.168-1.679-43.942-6.579Z" transform="translate(-3432.415 -458.279)"/></g><g transform="translate(211.938 48.965)"><path class="q" d="M3510.918,289.36s-12.893,4.213-7.759,41.2c0,0,21.839.955,31.624-5.728C3534.783,324.835,3536.453,273.692,3510.918,289.36Z" transform="translate(-3501.951 -286.377)"/></g><g transform="translate(201.744 155.799)"><path class="p" d="M3490.955,402.784s9.453,7.442,58.058,1.091C3549.013,403.875,3503.932,399.612,3490.955,402.784Z" transform="translate(-3490.955 -401.61)"/></g><g transform="translate(198.929 131.379)"><path class="g" d="M3487.925,392.168l-.006,0,.286,1.284s25.077-3.219,37.04-18.184C3518.5,383.177,3503.67,388.664,3487.925,392.168Z" transform="translate(-3487.919 -375.271)"/></g><g transform="translate(217.946)"><path class="g" d="M3508.959,240.066s-2.819,8.514,4.58,11.9c0,0-1.114,6.493,4.813,9.356,0,0,1.044,10.912,5.036,14.286a12.987,12.987,0,0,1,3.754,0c.955.35,5.827,15.751,16.755,13.7,0,0,6.314-4.989-2.6-15.5-6.544-7.717-10.7-11.136-10.52-18.932s3.2-19.092-1.572-20.842S3507.481,235.591,3508.959,240.066Z" transform="translate(-3508.432 -233.562)"/></g><g transform="translate(82.014 327.283)"><path class="j" d="M3386.87,586.577l-4.3,3.558s-20.524,4.934-20.763,9.03h36.99a3.381,3.381,0,0,0,2.466-2.984c.239-2.466-1.382-9.6-1.382-9.6Z" transform="translate(-3361.812 -586.577)"/></g><g transform="translate(0 327.283)"><path class="j" d="M3300.664,586.577l-6.552,3.558s-20.523,4.934-20.762,9.03h36.99a3.382,3.382,0,0,0,2.466-2.984c.239-2.466.875-9.6.875-9.6Z" transform="translate(-3273.35 -586.577)"/></g><g transform="translate(132.39 146.89)"><path class="j" d="M3433.018,392s-7.861,1.129-10.159,2.048-6.71,6.022-6.71,6.022h1.2l1.747-.6.045.6h7.767s5.74.281,6.96-1.927A22.536,22.536,0,0,0,3433.018,392Z" transform="translate(-3416.149 -392.001)"/></g></g></g></svg>