<svg xmlns="http://www.w3.org/2000/svg" width="625.845" height="535.682" viewBox="0 0 625.845 535.682"><defs><style>.a{fill:#dce9e7;}.b{fill:#f78801;}.c{fill:#e0dfde;}.d{fill:#9bc3ce;}.e{fill:#3c45b2;}.f{fill:#3e2138;}.g{fill:#2e3e8f;}.h{fill:#23388b;}.i{fill:#2b3c9c;}.j{fill:#5c5866;}.k{fill:#39302a;}.l{fill:#b1d4e4;}.m{fill:#91b5c1;}.n{fill:none;stroke:#f1f4f7;stroke-miterlimit:10;stroke-width:0.25px;}.o{fill:#da7036;}.p{fill:#db6e36;}.q{fill:#b35022;}.r{fill:#f2f0ef;}.s{fill:#d2d0cf;}.t{fill:#c05b29;}</style></defs><g transform="translate(-56.398 -151.048)"><g transform="translate(454.464 284.089)"><path class="a" d="M812.07,369.92,864.4,380.936V771.618H812.07Z" transform="translate(-657.742 -369.92)"/><rect class="a" width="154.336" height="401.698"/></g><g transform="translate(56.398 275.381)"><path class="a" d="M144.346,578.61c.227-4.13.424-8.6.585-13.385,1.63-5.029,4.912-19.269,10.409-35.592.3-.9.6-1.784.9-2.661q16.371-16.656,32.734-33.319c6.5-6.616,13.3-13.772,15.117-22.873s-3.889-20.293-13.165-20.592c-6.579-.212-12.083,4.854-16.177,10.007a90.812,90.812,0,0,0-19.159,62.6q-1.075,3.015-2.142,6.206a285.1,285.1,0,0,0-8.326,29.649c.1-4.116.19-8.414.241-12.873.1-12.368-.015-25.965-.5-40.234-.526-14.262-1.36-27.836-2.339-40.168-.124-1.447-.241-2.873-.365-4.284a220.535,220.535,0,0,0,7.434-70.563c-.731-12.8-4.62-28.092-16.893-31.813-10.731-3.26-22.3,5.278-25.95,15.885s-1.308,22.3,2.12,32.983A170.532,170.532,0,0,0,140.5,464.815c.022.241.037.475.058.716.022.285.044.577.066.863-.19.621-.365,1.25-.556,1.871l.585-1.55c.906,11.988,1.711,25.117,2.215,38.9.482,14.233.607,27.807.534,40.146-.029,3.275-.08,6.462-.132,9.554-.395-2.42-.906-5.212-1.55-8.326-.592-2.814-1.265-5.892-2.142-9.152-.789-3.289-1.835-6.747-2.9-10.395-2.259-7.259-5.044-15.146-8.421-23.246-2.164-5.11-4.437-9.985-6.725-14.576a212.82,212.82,0,0,0-20.051-62.785c-3.626-7.23-7.866-14.466-14.408-19.218s-15.95-6.4-22.719-1.974c-5.548,3.618-8.238,10.629-7.931,17.244s3.224,12.858,6.923,18.355c14.964,22.244,41.952,33.655,58.875,54.342l.219.461c.007.066.022.139.029.2l.132.139q1.952,4.167,3.823,8.575c3.348,8.034,6.111,15.863,8.385,23.056,1.075,3.618,2.135,7.039,2.953,10.292.9,3.231,1.616,6.272,2.266,9.057,1.462,6.36,2.442,11.374,3.121,14.481-.139,6.031-.322,11.63-.534,16.7-.146,4.664-.387,8.882-.541,12.588s-.322,6.893-.439,9.5v.015h-6.17a150.849,150.849,0,0,0-3.165-15.366,144.778,144.778,0,0,0-11.879-64.6c-3.925-8.977-11.681-18.969-21.2-16.638-7.054,1.725-10.8,9.847-10.651,17.105.241,12.025,8,22.42,15.409,31.886L129.7,585.905l.753.132c1.44,5.534,2.463,10.563,3.238,14.605H89.821l19.057,167.771h66.345l19.042-167.771H142.774c.263-2.588.541-5.753.789-9.43C143.819,587.506,144.141,583.288,144.346,578.61Z" transform="translate(-56.398 -358.007)"/></g><g transform="translate(228.915 352.547)"><path class="b" d="M323.431,508.088H294.366L292.4,463.57h33Z" transform="translate(-292.4 -463.57)"/><path class="b" d="M331,503.06h-4.656a1.967,1.967,0,0,1-1.966-1.966V476.386a1.967,1.967,0,0,1,1.966-1.966h6.44a8.972,8.972,0,0,1,8.852,10.453l-1.784,10.68A8.946,8.946,0,0,1,331,503.06Zm-2.7-3.925H331a5.029,5.029,0,0,0,4.978-4.218l1.784-10.68a5.045,5.045,0,0,0-4.978-5.885h-4.481Z" transform="translate(-301.003 -466.489)"/></g><path class="c" d="M490.391,432.488,481.554,298.73H303.921l-1.491,1.484,1.667,1.2,8.662,131.075H486.832l2.076,1.484Z" transform="translate(-66.183 -66.68)"/><path class="d" d="M571.644,428.246,538.12,446.967v11.272a179.955,179.955,0,0,0,41.952-11.718L603.128,296.93S584.2,311.572,571.644,428.246Z" transform="translate(-129.584 -66.196)"/><g transform="translate(386.196 493.228)"><path class="e" d="M513.386,848.887,546.069,656.02h-9.225L507.56,848.887Z" transform="translate(-507.56 -656.02)"/><path class="f" d="M555.753,656.02l-1.316,7.763L543.56,675.655l2.968-19.635Z" transform="translate(-517.244 -656.02)"/></g><g transform="translate(481.986 493.228)"><path class="g" d="M644.426,848.887,677.109,656.02h-9.225L638.6,848.887Z" transform="translate(-638.6 -656.02)"/><path class="f" d="M686.793,656.02l-1.316,7.763L674.6,675.655l2.968-19.635Z" transform="translate(-648.284 -656.02)"/></g><g transform="translate(486.343 493.228)"><path class="g" d="M677.236,848.887,644.56,656.02h9.225l29.276,192.867Z" transform="translate(-644.56 -656.02)"/><path class="f" d="M644.56,656.02l1.308,7.763,10.877,11.871-2.961-19.635Z" transform="translate(-644.56 -656.02)"/></g><g transform="translate(566.27 493.228)"><path class="g" d="M786.583,848.887,753.9,656.02h9.225l29.284,192.867Z" transform="translate(-753.9 -656.02)"/><path class="f" d="M753.9,656.02l1.316,7.763,10.877,11.871-2.968-19.635Z" transform="translate(-753.9 -656.02)"/></g><rect class="g" width="98.027" height="18.896" transform="translate(503.472 485.506) rotate(180)"/><rect class="h" width="91.06" height="7.727" transform="translate(499.992 493.228) rotate(180)"/><rect class="i" width="72.42" height="7.727" transform="translate(579.14 493.228) rotate(180)"/><path class="j" d="M534.05,525.761s-67.822-4.729-57.793,58.875c6.594,41.842,24.481,200.469,24.481,200.469h20.972s23.078-171.865,1.813-196.5c0,0,77.31.848,89.145,0s51.777-11.63,56.879-61.309Z" transform="translate(-112.671 -127.731)"/><path class="k" d="M507.714,880.57l-1.7,15.161s-12.281,8.311-12.588,13.56h31.594a4.335,4.335,0,0,0,3.158-3.823c.307-3.158-3.787-24.9-3.787-24.9Z" transform="translate(-117.563 -223.196)"/><path class="k" d="M415.278,873.23l-10.212,11.023s-23.677.417-27.946,4.876l36.74,18.37a4.334,4.334,0,0,0,4.247-2.573c1.33-2.88,12.639-25.2,12.639-25.2Z" transform="translate(-86.275 -221.222)"/><path class="j" d="M504.657,593.211c25.665-62.464,69.993-66.4,69.993-66.4s-1.762.088,50.1-.475c22.325-.241,42.617-.439,43.436,1.243,5.373,11.075.234,56.265-33.363,66.894h-66.6a123.551,123.551,0,0,1-19.964-1.374C564.028,624.812,445.19,787,445.19,787l-20-8.4C425.175,778.6,473.823,668.255,504.657,593.211Z" transform="translate(-99.206 -127.863)"/><path class="l" d="M695.435,307.081c-.57-1.279-1.162-2.522-1.776-3.713a.538.538,0,0,0-.029-.051h0c-3.779-7.31-8.355-12.851-13.925-15.665-23.684-11.974-50.673-5.278-50.673-5.278s-10.738,1.864-18.882,18.969c-7.317,15.366-18.531,84.416-18.436,113.531.022,6.2.044,12.405.256,18.6-5,1.287-7.99,2.076-7.99,2.076l2.076,13.385s2.58-.051,6.945-.132c.409,3.757.95,7.515,1.667,11.257L710.9,461.482c.8-2.456,1.747-10.066,2.113-21.638,6.542-4.722,10.621-11.835,12.515-20.972C732.029,387.578,703.067,323.258,695.435,307.081Z" transform="translate(-141.921 -61.778)"/><path class="m" d="M679.621,375.824c2.668,26.506,12.091,52.339,15.424,60.834-13.567-3.472-111.075,22.193-111.075,22.193s71.214-19.905,105.775-24.174c0,0-12.712-35.841-10.358-67.537l.007.015A59.7,59.7,0,0,0,679.621,375.824Z" transform="translate(-141.918 -85.083)"/><g transform="translate(607.426 686.292)"><path class="n" d="M810.2,920.13" transform="translate(-810.2 -920.13)"/></g><path class="o" d="M575.162,492.61s-10.431,1.645-15.336,6.4a54.323,54.323,0,0,0-8.626,11.871h3.275s4.313-3.194,5.8-4.108l-.3,4.108h10.409s4.934-.885,6.849-4.89Z" transform="translate(-133.103 -118.834)"/><path class="o" d="M528.917,502.18s-10.358.541-16.755,4.781a57.211,57.211,0,0,0-8.253,6.491h25.007V502.18Z" transform="translate(-120.382 -121.409)"/><path class="g" d="M776.672,461.127c.1-.709.175-1.418.249-2.127.015-.183.036-.358.051-.541.066-.694.117-1.382.154-2.069.007-.124.007-.249.015-.373.029-.57.044-1.14.051-1.711,0-.227.007-.453.007-.68,0-.629-.007-1.25-.029-1.871-.007-.256-.022-.512-.037-.768-.022-.409-.044-.811-.073-1.221q-.033-.461-.066-.921c-.044-.541-.1-1.082-.161-1.616-.044-.373-.095-.738-.146-1.1-.036-.249-.073-.49-.11-.738q-.3-1.974-.738-3.9c-.022-.11-.051-.219-.08-.329q-.482-2.061-1.118-4.057c0-.007-.007-.022-.007-.029h0a54.878,54.878,0,0,0-32.361-34.43c5.263,18.18,8.48,36.36,5.841,49.086-1.9,9.145-5.98,16.25-12.515,20.972-.366,11.572-1.308,19.181-2.113,21.638,3.589,7.39,2.485,29.978-8.626,47.347-33.9-.7-56.879,19.554-56.879,19.554v18.9h76.4a18.35,18.35,0,0,0,18.348-18.348v-.548h0l2.953-21.2,10.987-78.9Z" transform="translate(-164.517 -94.632)"/><rect width="320.718" height="0.892" transform="translate(361.525 685.341)"/><rect width="272.282" height="0.892" transform="translate(81.94 685.839)"/><path class="m" d="M694.069,505.142c-20.936.746-73.78,1.82-95.322,2.251l-2.427.051.1.943c51.842.636,80.922,1.038,97.881.775,18.962-.292,21.776-4.8,21.776-4.8.175-2.9.249-5.87.249-5.87l-.051.007C710.707,502.5,703.382,504.813,694.069,505.142Z" transform="translate(-145.24 -120.416)"/><path class="k" d="M492.107,664.723l.08.665c10.526-24.62,21.206-49.92,30.336-72.135,13.326-32.434,31.674-49.065,46.243-57.588-1.637-3.363-3.589-7.244-4.613-9.284l-2.368-.022a152.785,152.785,0,0,0-37.719,50.307c-13.618,29.934-29.9,75.256-32.456,83.875h0C491.778,661.938,491.939,663.327,492.107,664.723Z" transform="translate(-117.073 -127.913)"/><g transform="translate(150.391 397.063)"><rect class="p" width="500.324" height="8.151" transform="translate(500.324 8.151) rotate(180)"/><rect class="p" width="429.162" height="11.718" transform="translate(464.746 19.87) rotate(180)"/><g transform="translate(29.276 19.831)"><path class="p" d="M225.03,823.5,267.2,561.66H278.21L230.856,823.5Z" transform="translate(-225.03 -554.302)"/><path class="k" d="M282.169,561.66l-1.5,9.276,9.912,5.007,2.6-14.284Z" transform="translate(-239.997 -554.302)"/><path class="p" d="M357.54,823.5,315.376,561.66H304.36L351.721,823.5Z" transform="translate(-246.37 -554.302)"/><path class="k" d="M315.376,561.66l1.491,9.276-9.912,5.007-2.6-14.284Z" transform="translate(-246.37 -554.302)"/><rect class="q" width="72.245" height="7.361" transform="translate(91.706 7.361) rotate(180)"/></g><g transform="translate(356.99 19.827)"><path class="p" d="M805.85,823.5,763.679,561.66H752.67L800.024,823.5Z" transform="translate(-694.68 -554.299)"/><path class="k" d="M763.679,561.66l1.491,9.276-9.905,5.007-2.6-14.284Z" transform="translate(-694.68 -554.299)"/><path class="p" d="M673.34,823.5,715.5,561.66h11.009L679.159,823.5Z" transform="translate(-673.34 -554.299)"/><path class="k" d="M730.471,561.66l-1.491,9.276,9.912,5.007,2.588-14.284Z" transform="translate(-688.307 -554.299)"/><rect class="q" width="72.245" height="7.361" transform="translate(19.459)"/></g><path class="q" d="M233.66,535.62H662.822v3.355L233.66,537.63Z" transform="translate(-198.075 -527.467)"/></g><g transform="translate(236.247 233.534)"><path class="r" d="M488.908,434.518H311.275L302.43,300.76H480.063Z" transform="translate(-302.43 -300.76)"/></g><path class="c" d="M398.749,417.77l-9.393,56.206a14.394,14.394,0,0,0,14.2,16.769h25.826V417.77H398.749Z" transform="translate(-89.512 -98.702)"/><rect class="c" width="40.008" height="5.015" transform="translate(312.322 392.043)"/><rect class="c" width="86.112" height="5.015" transform="translate(360.282 392.043)"/><path class="s" d="M406.5,517.6l32.31,5.022h7.7V517.6Z" transform="translate(-94.178 -125.557)"/><path class="o" d="M676.672,229.291l-.526-7.58h0l-.424-6.118c1.864-2.456,1.586-5.7-.066-7.193a5.151,5.151,0,0,0-.461-.373l-.541-7.756-3.83.27v-.007l-24.05,1.681s-3.311,14.364-.154,24.854a20.556,20.556,0,0,0,2.2,5.037c-.673,17.917-5.241,29.73-5.241,29.73s-9.518,15.19,6.542,14.6,31.469-15.256,31.469-15.256A227.336,227.336,0,0,1,676.672,229.291Z" transform="translate(-157.2 -40.194)"/><path class="t" d="M651.216,242.26s5.358,10.512,18.319,3.553c0,0-6.184,17.456-19.934,12.836A98.994,98.994,0,0,0,651.216,242.26Z" transform="translate(-159.573 -51.49)"/><path class="k" d="M679.551,196.268a3.9,3.9,0,0,0-3.282-1.681h-1.36v-.651a2.3,2.3,0,0,0-2.924-2.215c-4.094,1.148-11.345,3.034-14.057,2.866-3.874-.241-2.982-5.819-8.341-6.6-6.513-.958-8.341,8.809-2.719,14.276l.629-3.37s0,6.309,12.354,5.022c4.328-.453,7.953-.168,10.344,1.484.987-.87,3.589-2.675,6.192-.329,2.083,1.879,1.981,6.564-1.864,8.918l2.354,4.393c-.146-2.617.709-4.963,3.165-13.216C681.408,200.574,680.567,197.811,679.551,196.268Z" transform="translate(-157.937 -36.872)"/></g></svg>