<svg xmlns="http://www.w3.org/2000/svg" width="1017.542" height="788.354" viewBox="0 0 1017.542 788.354"><defs><style>.a{fill:#dce9e7;}.b{fill:#db6e36;}.c{fill:#39302a;}.d{fill:#f2f0ef;}.e{fill:#fff;}.f{fill:#d0d7db;}.g{fill:#3080b7;}.h{fill:#3485c7;}.i{fill:#f8b200;}.j{fill:#3c45b2;}.k{fill:#a40000;}.l{fill:#f7603b;}.m{fill:#ff4e00;}.n{fill:#bec2c4;}.o{fill:#de3e00;}.p{fill:#aaaaab;}.q{fill:#dfcd99;}.r{fill:#cdb97d;}.s{fill:#64a489;}.t{fill:#8a4622;}.u{fill:#c9d9e8;}.v{fill:#73371b;}</style></defs><g transform="translate(-28.228 -23.09)"><path class="a" d="M919.2,574.34c-2.69-29.74-21.93-59.75-51.02-66.48-43.97-10.18-80.86,33.3-101.65,73.36q-10.7,20.61-19.97,41.92a711,711,0,0,0,14.52-199.01c-1.77-25.69-5.13-51.89-16.78-74.85s-33.09-42.36-58.66-45.34c-20.23-2.36-40.54,5.72-56.95,17.77-37.99,27.91-57.32,75.68-61.41,122.64s5.15,93.94,14.35,140.17q3.66,18.36,7.31,36.73-5.145-12.825-11.28-25.22c-9.52-19.14-23.08-39.1-43.98-43.59-21.36-4.59-43.55,9.88-53.24,29.46s-9,42.8-4.29,64.13c14.14,64.03,61.68,116.53,106.3,164.59H794.48A544.724,544.724,0,0,0,898.64,660.43C911.29,633.38,921.88,604.08,919.2,574.34Z"/><path class="a" d="M215.99,810.3c-3.73-96.27-22.76-205.06-56.17-295.43-6.54-17.7-14.01-35.77-27.63-48.84s-35.01-19.85-51.85-11.34c-24.94,12.59-25.73,48.38-16.55,74.77,9.99,28.71,27.14,54.26,42.5,80.49,6.53,11.14,12.73,22.44,18.7,33.87A155.984,155.984,0,0,0,97.7,612.44c-13.67-11.8-32.91-20.96-49.4-13.62-14.58,6.49-21.49,24.28-19.83,40.15s10.12,30.17,19.14,43.33a412.194,412.194,0,0,0,141.45,128h26.93Z"/><path d="M999.41,810.62h-1.03V514.06H855.31V810.62h-1.03V513.54a.523.523,0,0,1,.52-.52H998.9a.523.523,0,0,1,.52.52V810.62Z"/><path d="M853.72,810.62h-1.03V434.41H747.41V810.62h-1.03V433.89a.523.523,0,0,1,.52-.52H853.2a.523.523,0,0,1,.52.52V810.62Z"/><rect class="b" width="332.45" height="16.53" transform="translate(700.9 281.85)"/><rect class="b" width="332.45" height="3.75" transform="translate(700.9 112.4)"/><rect class="b" width="332.45" height="3.75" transform="translate(700.9 155.92)"/><path class="c" d="M562.06,810.62H190.49a25.54,25.54,0,0,1-25.54-25.54V98.26a25.54,25.54,0,0,1,25.54-25.54H562.06A25.54,25.54,0,0,1,587.6,98.26V785.08A25.534,25.534,0,0,1,562.06,810.62Z"/><path class="d" d="M560.36,796.99H191.15a14.809,14.809,0,0,1-14.81-14.81V100.81A14.809,14.809,0,0,1,191.15,86H560.36a14.809,14.809,0,0,1,14.81,14.81V782.18A14.809,14.809,0,0,1,560.36,796.99Z"/><path class="c" d="M462.43,106.93H290.12a14.572,14.572,0,0,1-14.57-14.57V83.6a.58.58,0,0,1,.58-.58h200.3a.58.58,0,0,1,.58.58v8.76A14.581,14.581,0,0,1,462.43,106.93Z"/><path class="e" d="M301.46,91.1a3.13,3.13,0,1,1-3.13-3.13A3.128,3.128,0,0,1,301.46,91.1Z"/><rect width="362.26" height="1.03" transform="translate(195.15 306.1)"/><rect width="362.26" height="1.03" transform="translate(195.15 712.95)"/><rect class="f" width="331.95" height="3.83" transform="translate(210.3 736.01)"/><rect class="f" width="331.95" height="57.15" transform="translate(210.3 511.96)"/><rect class="f" width="73.16" height="57.15" transform="translate(210.3 589.61)"/><rect class="f" width="73.16" height="57.15" transform="translate(294.77 589.61)"/><rect class="f" width="73.16" height="57.15" transform="translate(381.93 589.61)"/><rect class="f" width="73.16" height="57.15" transform="translate(469.09 589.61)"/><rect class="f" width="169.52" height="3.83" transform="translate(372.73 405.71)"/><rect class="f" width="169.52" height="3.83" transform="translate(372.73 431.97)"/><rect class="f" width="169.52" height="3.83" transform="translate(372.73 458.24)"/><rect class="f" width="96.49" height="3.83" transform="translate(372.73 360.81)"/><rect class="f" width="134.51" height="138.14" transform="translate(210.3 341.92)"/><rect class="f" width="331.95" height="3.83" transform="translate(210.3 756.3)"/><path class="g" d="M643.84,324.63S572.07,440.2,571.88,514.28c-.16,63.16,103.11,261.22,103.11,261.22h26.7s-52.33-236.7-75.98-253.55c0,0,94.22-112.22,124.58-182.76Z"/><path class="h" d="M773.66,326.95c-4.27,39.05-63.75,194.83-63.75,194.83,16.13,68.57-65.44,253.72-65.44,253.72H618.76s20.56-158.28,32.82-254.09c10.55-103.76,14.43-200.97,14.43-200.97Z"/><path class="c" d="M622.05,775.5l-10.86,18.54s-27.34,10.17-27.72,16.59h50.96a5.306,5.306,0,0,0,3.87-4.68c.37-3.86,4.15-30.45,4.15-30.45Z"/><path class="i" d="M780.1,252.93c.25-42.86,4.85-120.5-24.01-135.09-28.96-14.64-56.41-5.54-56.41-5.54s-19.42,2.28-29.38,23.2c-8.95,18.79-28.5,93.96-30.52,138.55-.84,18.43-1.13,43.37,4.85,51.87,0,0,8.11,15.27,64.72,15.7s59.6-9.45,64.36-14.67C778.23,319.58,779.83,298.41,780.1,252.93Z"/><rect width="505.69" height="1.03" transform="translate(96.47 810.11)"/><rect class="j" width="25.19" height="25.19" transform="translate(213.65 162.85)"/><rect class="f" width="17.86" height="131.01" transform="translate(246.92 162.85)"/><rect class="f" width="17.86" height="108.46" transform="translate(341.77 162.85)"/><rect class="f" width="17.86" height="18.86" transform="translate(341.77 279.57)"/><rect class="j" width="25.19" height="3.5" transform="translate(213.65 193.31)"/><rect class="f" width="25.19" height="3.5" transform="translate(457.84 169.04)"/><rect class="f" width="25.19" height="3.5" transform="translate(457.84 200.3)"/><rect class="f" width="25.19" height="3.5" transform="translate(457.84 231.57)"/><rect class="f" width="25.19" height="3.5" transform="translate(457.84 262.84)"/><rect class="f" width="25.19" height="3.5" transform="translate(457.84 294.11)"/><rect class="j" width="20.62" height="3.5" transform="translate(369.69 162.85)"/><rect class="j" width="13.27" height="111.73" transform="translate(373.36 173.69)"/><rect class="j" width="20.62" height="3.5" transform="translate(369.69 293.17)"/><rect class="k" width="29.94" height="3.5" transform="translate(272.99 193.31)"/><rect class="k" width="25.16" height="10.5" transform="translate(487.55 189.81)"/><rect class="i" width="26.63" height="3.5" transform="translate(305.2 193.31)"/><rect class="k" width="22.16" height="3.5" transform="translate(403.941 176.641) rotate(6.108)"/><rect class="k" width="22.16" height="3.5" transform="translate(403.353 182.158) rotate(6.108)"/><rect class="k" width="22.16" height="3.5" transform="translate(398.099 231.19) rotate(6.108)"/><rect class="k" width="22.16" height="3.5" transform="translate(397.512 236.707) rotate(6.108)"/><rect class="k" width="22.16" height="3.5" transform="translate(392.268 285.738) rotate(6.108)"/><rect class="k" width="22.16" height="3.5" transform="translate(391.678 291.258) rotate(6.108)"/><rect class="i" width="26.63" height="3.5" transform="translate(305.2 244.12)"/><rect class="i" width="26.63" height="3.5" transform="translate(305.2 294.93)"/><rect class="k" width="29.94" height="3.5" transform="translate(272.99 288.47)"/><path d="M238.84,307.13H213.65a.516.516,0,0,1-.52-.52V150.07a.523.523,0,0,1,.52-.52h25.19a.516.516,0,0,1,.52.52V306.62A.514.514,0,0,1,238.84,307.13Zm-24.67-1.03h24.16V150.58H214.17Z"/><rect class="i" width="16.74" height="25.19" transform="translate(432.39 162.85)"/><rect class="j" width="16.74" height="132.08" transform="translate(519.16 162.85)"/><rect class="i" width="16.74" height="101.61" transform="translate(432.39 193.31)"/><path d="M453.35,307.13H428.16a.523.523,0,0,1-.52-.52V150.07a.523.523,0,0,1,.52-.52h25.19a.523.523,0,0,1,.52.52V306.62A.514.514,0,0,1,453.35,307.13Zm-24.67-1.03h24.16V150.58H428.68Z"/><path d="M485.23,307.13H455.64a.523.523,0,0,1-.52-.52V158.79a.523.523,0,0,1,.52-.52h29.59a.523.523,0,0,1,.52.52V306.61A.523.523,0,0,1,485.23,307.13Zm-29.07-1.03h28.55V159.31H456.16Z"/><path d="M512.72,307.13H487.56a.523.523,0,0,1-.52-.52V181.76a.523.523,0,0,1,.52-.52h25.16a.523.523,0,0,1,.52.52V306.61A.529.529,0,0,1,512.72,307.13Zm-24.65-1.03H512.2V182.28H488.07Z"/><path d="M540.11,307.13H514.95a.523.523,0,0,1-.52-.52V150.07a.523.523,0,0,1,.52-.52h25.16a.523.523,0,0,1,.52.52V306.62A.514.514,0,0,1,540.11,307.13Zm-24.64-1.03H539.6V150.58H515.47Z"/><path d="M270.83,307.13H240.89a.516.516,0,0,1-.52-.52V150.07a.523.523,0,0,1,.52-.52h29.94a.516.516,0,0,1,.52.52V306.62A.528.528,0,0,1,270.83,307.13ZM241.4,306.1h28.91V150.58H241.4Z"/><path d="M302.93,307.13H272.99a.516.516,0,0,1-.52-.52V180.01a.523.523,0,0,1,.52-.52h29.94a.516.516,0,0,1,.52.52V306.62A.528.528,0,0,1,302.93,307.13ZM273.5,306.1h28.91V180.53H273.5Z"/><path d="M331.83,307.13H305.2a.516.516,0,0,1-.52-.52V180.01a.523.523,0,0,1,.52-.52h26.63a.516.516,0,0,1,.52.52V306.62A.514.514,0,0,1,331.83,307.13Zm-26.11-1.03h25.59V180.53H305.72Z"/><path d="M412.34,307.13h-.05l-22.04-2.36a.533.533,0,0,1-.35-.19.479.479,0,0,1-.11-.38l14.67-137.15a.522.522,0,0,1,.57-.46l22.04,2.36a.533.533,0,0,1,.35.19.479.479,0,0,1,.11.38L412.86,306.67A.528.528,0,0,1,412.34,307.13Zm-21.46-3.33,21.01,2.25,14.56-136.12-21.01-2.25Z"/><path d="M367.36,307.13H334.03a.516.516,0,0,1-.52-.52V153.82a.523.523,0,0,1,.52-.52h33.33a.516.516,0,0,1,.52.52V306.61A.516.516,0,0,1,367.36,307.13Zm-32.81-1.03h32.3V154.34h-32.3Z"/><path d="M390.31,307.13H369.69a.516.516,0,0,1-.52-.52V153.82a.523.523,0,0,1,.52-.52h20.62a.516.516,0,0,1,.52.52V306.61A.529.529,0,0,1,390.31,307.13Zm-20.1-1.03h19.58V154.34H370.21Z"/><rect class="j" width="56.11" height="23.29" transform="translate(246.81 371.39)"/><rect class="j" width="20.01" height="0.72" transform="translate(264.86 399.35)"/><rect class="j" width="32.59" height="0.72" transform="translate(258.58 447.26)"/><rect class="j" width="32.59" height="0.72" transform="translate(258.58 450.2)"/><rect class="j" width="23.81" height="0.72" transform="translate(262.97 453.14)"/><path d="M310.41,460.58H239.33a.516.516,0,0,1-.52-.52V364.64a.523.523,0,0,1,.52-.52h71.08a.516.516,0,0,1,.52.52v95.42A.516.516,0,0,1,310.41,460.58Zm-70.56-1.03h70.04V365.16H239.85Z"/><path class="i" d="M303.12,670.44l2.39,7.39h7.77L307,682.39l2.4,7.39-6.28-4.57-6.29,4.57,2.4-7.39-6.28-4.56h7.77Z"/><path class="i" d="M339.69,670.44l2.4,7.39h7.77l-6.28,4.56,2.4,7.39-6.29-4.57-6.28,4.57,2.4-7.39-6.28-4.56h7.77Z"/><path class="i" d="M376.27,670.44l2.4,7.39h7.77l-6.28,4.56,2.4,7.39-6.29-4.57-6.28,4.57,2.4-7.39-6.28-4.56h7.77Z"/><path class="i" d="M412.85,670.44l2.4,7.39h7.77l-6.28,4.56,2.4,7.39-6.29-4.57-6.28,4.57,2.4-7.39-6.28-4.56h7.76Z"/><path class="i" d="M449.43,670.44l2.4,7.39h7.77l-6.28,4.56,2.4,7.39-6.29-4.57-6.28,4.57,2.4-7.39-6.28-4.56h7.76Z"/><path class="c" d="M698.29,775.5h-20.4l-.52,18.54s-1.21,1.55-2.71,3.81h0c-9.53.83-10.29,12.78-10.29,12.78h25.67l8.89-6.52a5.306,5.306,0,0,0,3.87-4.68C703.18,795.56,698.29,775.5,698.29,775.5Z"/><path class="l" d="M613.48,69.78l-44.41-.17,17.79,58.82,43.21,1.42Z"/><path class="m" d="M569.07,69.61l20.36-17.25,6.49,17.35Z"/><path class="n" d="M598.3,69.75l-6.5-16.69L571.52,69.71Z"/><path class="f" d="M612.17,69.78l-.47-2.03s-36.58-5.26-39.04,1.96Z"/><path class="o" d="M571.52,69.71l17.53,58.79-2.19-.07L569.07,69.61Z"/><path class="p" d="M591.8,53.06h-2.1L570.1,69.61l1.42.1Z"/><path class="i" d="M609.73,80.46h-29.9l3.57,12.98h29.8Z"/><path class="q" d="M872.04,654.67H789.32l23.29,155.95H912.63l23.3-155.95Z"/><path class="r" d="M794.65,690.39H930.59l-2.87,19.27-131.43-8.33Z"/><g transform="translate(768.377 413.521)"><g transform="translate(0 64.611)"><path class="s" d="M3069.338,661.286s-84.8-59.784-77.88-176.313c0,0,102.109,52.068,96.917,176.313Z" transform="translate(-2991.056 -484.973)"/></g><g transform="translate(97.315 126.337)"><path class="s" d="M3054.634,639.884s-1.73-79.973,77.879-114.586c0,0,2.544,88.123-58,114.586Z" transform="translate(-3054.631 -525.298)"/></g><g transform="translate(69.07 137.49)"><path class="c" d="M3045.391,636.017s-16.645-69.35-5.186-103.433l2.783,5.062S3036.179,590.441,3045.391,636.017Z" transform="translate(-3036.179 -532.584)"/></g><g transform="translate(73.626)"><path class="s" d="M3043.811,683.687s-30-153.237,62.3-240.923c0,0,48.418,142.638-33.478,240.923Z" transform="translate(-3039.156 -442.764)"/></g><g transform="translate(107.106 133.086)"><path class="c" d="M3061.027,637.544s47.456-38.784,54.529-107.837c0,0-8.641,4.94-10.141,6.342C3105.415,536.049,3099.985,589.3,3061.027,637.544Z" transform="translate(-3061.027 -529.707)"/></g></g><path class="c" d="M663.39,371.39S642.88,491.9,649.92,491.94l5.09-6.51Z"/><path class="t" d="M674.69,128s-26.53,32.09-43.58,113.5c-.28-14.64-4.71-45.05-22.41-108.2l-13.16,2.74s-7.87,108.58,17.96,140.6c25.89,32.1,57.44-27.99,65.62-74.13C686.08,163.24,674.69,128,674.69,128Z"/><path class="t" d="M608.71,133.3a8.8,8.8,0,0,0-1.77-4.21l-5.89-.19v.01a19.233,19.233,0,0,0-6.79-3.27c-1.31-10.28-6.28-20.63-5.21-16.14a83.258,83.258,0,0,1,1.21,11.46,63.024,63.024,0,0,0-9.31-12.07s5.27,17.42,5.91,19.54,8.69,7.61,8.69,7.61l9.27-1.93Z"/><path d="M896.5,245.35c.08-4.18-1.55-7.24-4.36-8.18a7.676,7.676,0,0,0-9.07,2.63l1.24-11.51a.526.526,0,0,0-.13-.4.517.517,0,0,0-.38-.17H845.42a.515.515,0,0,0-.51.57l5.35,49.76a.52.52,0,0,0,.52.46h27.68a.511.511,0,0,0,.51-.46l1.39-12.89C890.75,261.98,896.35,252.83,896.5,245.35Zm-13.28-16.6-.67,6.26H846.67l-.67-6.26Zm-31.99,48.73-.17-1.61h27.1l-.17,1.61Zm27.03-2.64H850.94l-4.17-38.79h35.66Zm2.21-10.81,2.35-21.88c.29-.67,2.83-6.06,9-4,2.36.79,3.72,3.47,3.65,7.18C895.33,252.34,890.13,260.88,880.47,264.03Z"/><path d="M886.26,281.85h-1.03v-3.33H844.04v3.33H843V278a.523.523,0,0,1,.52-.52h42.22a.523.523,0,0,1,.52.52Z"/><path d="M980.84,265.3h-65.2a.523.523,0,0,1-.52-.52V247.71a.523.523,0,0,1,.52-.52h65.2a.523.523,0,0,1,.52.52v17.07A.523.523,0,0,1,980.84,265.3Zm-64.68-1.04h64.17V248.23H916.16Z"/><rect class="f" width="39.96" height="12.56" transform="translate(928.26 249.97)"/><path d="M1027.32,265.3H980.84a.523.523,0,0,1-.52-.52V247.71a.523.523,0,0,1,.52-.52h46.48a.523.523,0,0,1,.52.52v17.07A.529.529,0,0,1,1027.32,265.3Zm-45.96-1.04h45.44V248.23H981.36v16.03Z"/><rect class="k" width="6.88" height="17.07" transform="translate(921.38 230.65)"/><rect class="k" width="6.88" height="17.07" transform="translate(957.88 230.65)"/><path d="M1021.45,248.23H974.97a.523.523,0,0,1-.52-.52V230.64a.523.523,0,0,1,.52-.52h46.48a.523.523,0,0,1,.52.52v17.07A.517.517,0,0,1,1021.45,248.23ZM975.5,247.2h45.44V231.17H975.5Z"/><rect class="j" width="3.7" height="17.07" transform="translate(915.64 264.78)"/><rect class="j" width="3.7" height="17.07" transform="translate(923.15 264.78)"/><path d="M1019.74,281.85h-1.03V265.3H908.06v16.55h-1.03V264.78a.523.523,0,0,1,.52-.52h111.68a.523.523,0,0,1,.52.52v17.07Z"/><path d="M974.98,248.23h-65.2a.523.523,0,0,1-.52-.52V230.64a.523.523,0,0,1,.52-.52h65.2a.523.523,0,0,1,.52.52v17.07A.523.523,0,0,1,974.98,248.23ZM910.3,247.2h64.17V231.17H910.3Z"/><rect width="428.04" height="1.03" transform="translate(617.73 810.11)"/><path class="u" d="M780.1,252.93c.25-42.86,4.85-120.5-24.01-135.09-28.96-14.64-56.41-5.54-56.41-5.54s-19.42,2.28-29.38,23.2c-8.95,18.79-28.5,93.96-30.52,138.55-.84,18.43-1.13,43.37,4.85,51.87,0,0,8.11,15.27,64.72,15.7s59.6-9.45,64.36-14.67C778.23,319.58,779.83,298.41,780.1,252.93Z"/><path class="c" d="M715.2,314.28s48.59-3.36,62.94-6.19c0,0,.32-3.23.45-4.97l-.04.01C756.55,308.7,732.2,311.72,715.2,314.28Z"/><path class="c" d="M779.9,270.83l.01-.87c-32.32,9.48-69.38,29.97-69.38,29.97s41.61-21.06,69.37-29.1Z"/><path class="c" d="M780.25,240.56h0a226.708,226.708,0,0,1-18.85-38.77,99.241,99.241,0,0,1-4.25-15.19l-.02-.04s3.3,30.65,23,62.53C780.14,249.1,780.23,241.14,780.25,240.56Z"/><path class="t" d="M830.94,262.8C827.32,216.53,767,128.37,767,128.37c-9.02-4.73-18.78,38.01-5.6,73.42,7.74,20.79,17.9,39.22,36.81,66.04-20.68-1.82-87.68,32.09-87.68,32.09h0s-7.06,5.43-9.64,8.78-.26,21.96,2.03,25.75,6.87-13.85,6.99-17.26c0,0,1.83-.33,5.29-2.91C754.66,308.34,833.84,299.93,830.94,262.8Z"/><path class="t" d="M739.96,80.55l-1.1-19.14v-.16h-.01l-.23-4.04c4.31-2.9,4.42-8.34,1.97-10.6a5.136,5.136,0,0,0-2.66-1.39l-.38-6.64-4.69.27v-.01l-29.44,1.7s-4.26,17.51-.56,30.39a25.126,25.126,0,0,0,2.57,6.12c-.77,22.1-6.42,36.69-6.42,36.69s-6.28,11.73,0,17.78,40.62-4.16,46.48-18.58A199.614,199.614,0,0,1,739.96,80.55Z"/><path class="c" d="M701.6,64.07a5.834,5.834,0,0,0-2.6,7.05s-9.3,4.78-4.99,17.04l10.55.69s.88-7.35.87-11.78A30.867,30.867,0,0,1,701.6,64.07Z"/><path class="v" d="M705.43,77.07s5.26,9.31,16.82,6.1c0,0-4.53,18.19-19.32,15.87A125.984,125.984,0,0,0,705.43,77.07Z"/><path class="c" d="M756.75,61.41s4.52-12.65-5.53-17.06c0,0,.78-10.32-8.08-11.52a11.791,11.791,0,0,0-11.95-8.23s-7.7-4.14-13.99,1.29c0,0-7.5-2.59-11.12,3.36,0,0-5.2,1.03-4.73,6.46,0,0-2.07,7.09,1.72,6.46l.35-1.61s.43,4.2,9.17,2.91c0,0,3.57,4.69,11.59,1.7a8.737,8.737,0,0,0,7.38,5.05,14.7,14.7,0,0,1,.95-2.8s4.1-4.49,8.09-.79c3.22,2.97,2.01,11.47-7.38,12.4.43,4.18,1.9,8.35,6.01,8.82,0,0-10.96,16.64-2.54,25.6l21.86-1.38s3.1-5.69,0-9.82C758.56,82.23,765.41,69.61,756.75,61.41Z"/><g transform="translate(724.377 729.282)"><g transform="translate(0 22.034)"><path class="s" d="M3017.753,545.1s-28.92-20.388-26.559-60.128c0,0,34.822,17.757,33.051,60.128Z" transform="translate(-2991.057 -484.973)"/></g><g transform="translate(33.187 43.085)"><path class="s" d="M3054.632,564.375s-.59-27.273,26.559-39.077c0,0,.868,30.052-19.781,39.077Z" transform="translate(-3054.631 -525.298)"/></g><g transform="translate(23.555 46.888)"><path class="c" d="M3039.321,567.858s-5.677-23.65-1.768-35.274l.949,1.726S3036.179,552.315,3039.321,567.858Z" transform="translate(-3036.179 -532.584)"/></g><g transform="translate(25.109)"><path class="s" d="M3040.743,524.926s-10.23-52.258,21.247-82.162c0,0,16.512,48.644-11.417,82.162Z" transform="translate(-3039.156 -442.764)"/></g><g transform="translate(36.526 45.386)"><path class="c" d="M3061.027,566.482a58.176,58.176,0,0,0,18.6-36.776,40.7,40.7,0,0,0-3.458,2.163A72.722,72.722,0,0,1,3061.027,566.482Z" transform="translate(-3061.027 -529.707)"/></g></g></g></svg>