<svg xmlns="http://www.w3.org/2000/svg" width="24.711" height="16.042" viewBox="0 0 24.711 16.042"><path d="M1179.723,225.257h-24.337a.187.187,0,0,0-.187.187v15.668a.187.187,0,0,0,.187.187h24.337a.187.187,0,0,0,.187-.187V225.444A.187.187,0,0,0,1179.723,225.257Zm-16.175,5.663-7.975,5.535V225.786Zm-7.527-5.29h23.067l-11.534,7.425Zm23.515.156v10.694l-7.995-5.548Zm-23.964,15.139V236.91l8.315-5.771,3.565,2.295a.186.186,0,0,0,.2,0l3.546-2.283,8.335,5.784v3.99Z" transform="translate(-1155.199 -225.257)"/></svg>