<svg xmlns="http://www.w3.org/2000/svg" width="109.817" height="223.605" viewBox="0 0 109.817 223.605"><defs><style>.a{fill:#39302a;}.b{fill:#778d3c;}</style></defs><g transform="translate(-259.141 -536.828)"><g transform="translate(303.531 666.235)"><path d="M1282.669,765.5h-19.035l-.043-.126c-4.93-14.46-10.9-93.078-10.964-93.871l-.015-.2h41.079l-.015.2c-.06.793-6.033,79.411-10.963,93.871Zm-18.767-.374h18.5c4.784-14.373,10.547-89.009,10.886-93.451h-40.274C1253.355,676.119,1259.117,750.755,1263.9,765.128Z" transform="translate(-1252.612 -671.304)"/></g><g transform="translate(304.472 675.736)"><path class="a" d="M1255.868,704.186h39.2l-.311,3.761-38.886-1.88Z" transform="translate(-1255.868 -704.186)"/></g><g transform="translate(259.141 586.352)"><path class="b" d="M1134.15,396.595a52.3,52.3,0,0,1,1.886,12.275,53.164,53.164,0,0,0-3.418-12.836,31.086,31.086,0,0,0-14.985-.568l1.131,3.975-2.538-3.7a66.287,66.287,0,0,0-17.252,6.44c5.657.477,11.465,4.951,18.637,11.446a31.988,31.988,0,0,1,12.356-3.633,49.126,49.126,0,0,0-11,4.869c1.822,1.672,3.732,3.459,5.751,5.335a31.347,31.347,0,0,0,9.308,5.97c1.441-.7,3.033-1.517,3.033-1.517l-1.175,2.227a33.776,33.776,0,0,0,13.059,1.907C1148.851,409.025,1142.393,400.02,1134.15,396.595Z" transform="translate(-1098.976 -394.825)"/></g><g transform="translate(307.968 536.828)"><path class="b" d="M1286.45,273.64l4.261-1.737a70.714,70.714,0,0,0,.479-26.945,67.557,67.557,0,0,0-10.341,4.783,59.323,59.323,0,0,1,10.016-6.6c-.474-2.48-.981-4.482-1.368-5.825a86.681,86.681,0,0,1-2.86-13.9,58.553,58.553,0,0,0-9.664,10.261l1.915,4.762-2.635-3.738a45.737,45.737,0,0,0-8.086,22.2c3.063,1.476,8.144,4.173,10.055,6.647a53.741,53.741,0,0,0-10.153-5.411c-1.289,20.15,10.211,36.953,10.211,36.953a47.682,47.682,0,0,0,12.194-22.233Z" transform="translate(-1267.969 -223.421)"/></g><g transform="translate(332.962 584.085)"><path class="b" d="M1370.054,422.467a1.465,1.465,0,0,1-.528-.038l.528.038c1.332-.019,4.935-.339,7.913-.623a42.825,42.825,0,0,0,8.011-18.074,77.167,77.167,0,0,0-14.025,1.482,67.609,67.609,0,0,1,14.286-2.868c.244-1.408.395-2.593.5-3.455.871-7.4,3.734-10.763,3.734-10.763a38.458,38.458,0,0,0-10.15-1.172c-1.1,1.735-2.375,4.131-2.484,6.028a22.43,22.43,0,0,1,.416-5.9,21.73,21.73,0,0,0-16.077,9.386,94.531,94.531,0,0,1-1.05,16.676,98.636,98.636,0,0,0-.313-14.575c-8.422,14.283-6.021,36.628-6.021,36.628,10.526-2.018,17.545-6.783,22.253-12.275Z" transform="translate(-1354.474 -386.98)"/></g><g transform="translate(291.386 599.686)"><path d="M1242.216,507.724a126.793,126.793,0,0,0-5.209-25.418c-3.989-12.774-11.812-30.261-26.43-41.032l.222-.3c14.7,10.832,22.562,28.4,26.567,41.23a127.086,127.086,0,0,1,5.222,25.493Z" transform="translate(-1210.577 -440.974)"/></g><g transform="translate(318.042 575.282)"><path d="M1304.982,447.664c-.038-.667-3.829-67.029-1.243-91.151l.372.04c-2.583,24.091,1.206,90.421,1.245,91.089Z" transform="translate(-1302.837 -356.513)"/></g><g transform="translate(325.418 603.781)"><path d="M1328.733,517.814l-.369-.053c.062-.44,6.4-44.289,20.951-62.615l.292.232C1335.118,473.625,1328.8,517.374,1328.733,517.814Z" transform="translate(-1328.364 -455.146)"/></g></g></svg>