<svg xmlns="http://www.w3.org/2000/svg" width="75.301" height="127.672" viewBox="0 0 75.301 127.672"><defs><style>.a{fill:#d4e5e0;}.b{fill:#d4eef2;}.c{fill:#e18554;}.d{fill:#008d3d;}.e{fill:#39302a;}.f{fill:#425eaa;}.g{fill:#ffcf62;}.h{fill:#e4dfe5;}.i{fill:#f79673;}.j{fill:#7c3b14;}.k{fill:#0e0654;}.l{fill:#d07c61;}</style></defs><g transform="translate(-20.093 -42.524)"><g transform="translate(38.305 42.524)"><g transform="translate(0.019 31.451)"><rect class="a" width="16.953" height="26.744"/></g><g transform="translate(18.701 31.451)"><rect class="a" width="16.953" height="26.744"/></g><g transform="translate(18.701 3.265)"><rect class="a" width="16.953" height="26.744"/></g><g transform="translate(0.019 3.265)"><rect class="a" width="16.953" height="26.744"/></g><g transform="translate(0 3.265)"><path class="b" d="M143.66,97.71l.178-.226L160.631,76.23v3.307L143.66,101.4" transform="translate(-143.66 -76.23)"/></g><g transform="translate(0.598 8.587)"><path class="b" d="M164.093,112.34,147.72,133.762h1.092l15.281-20.071Z" transform="translate(-147.72 -112.34)"/></g><g transform="translate(18.693 3.265)"><path class="b" d="M270.49,97.71l.178-.226L287.461,76.23v3.307L270.49,101.4" transform="translate(-270.49 -76.23)"/></g><g transform="translate(19.291 8.587)"><path class="b" d="M290.923,112.34,274.55,133.762h1.091l15.282-20.071Z" transform="translate(-274.55 -112.34)"/></g><g transform="translate(0 31.451)"><path class="b" d="M143.66,288.96l.178-.227,16.793-21.253v3.306L143.66,292.654" transform="translate(-143.66 -267.48)"/></g><g transform="translate(0.598 36.773)"><path class="b" d="M164.093,303.59,147.72,325.012h1.092l15.281-20.071Z" transform="translate(-147.72 -303.59)"/></g><g transform="translate(18.693 31.451)"><path class="b" d="M270.49,288.96l.178-.227,16.793-21.253v3.306L270.49,292.654" transform="translate(-270.49 -267.48)"/></g><g transform="translate(19.291 36.773)"><path class="b" d="M290.923,303.59,274.55,325.012h1.091l15.282-20.071Z" transform="translate(-274.55 -303.59)"/></g><g transform="translate(0.019)"><rect class="c" width="35.636" height="1.823"/></g></g><g transform="translate(64.58 61.822)"><g transform="translate(0 13.295)"><path class="d" d="M330.36,300.394s2.933-16.382-7.987-25.164C322.373,275.23,319.122,286.907,330.36,300.394Z" transform="translate(-321.936 -275.23)"/></g><g transform="translate(10.99)"><path class="d" d="M400.011,212.026s-7.664-14.984-.333-27.006C399.678,185.02,409.591,196.9,400.011,212.026Z" transform="translate(-396.504 -185.02)"/></g><g transform="translate(22.437 20.735)"><path class="d" d="M474.933,344.678s-4.279-13.04,7.421-18.968C482.355,325.711,484.438,337.284,474.933,344.678Z" transform="translate(-474.169 -325.71)"/></g><g transform="translate(5.822 14.909)"><g transform="translate(3.004 64.248)"><path d="M392.271,751.326h-7.643l-.007-.071-2.8-29.145h12.945l-.007.084Zm-7.5-.156h7.357l2.467-28.9h-12.6Z" transform="translate(-381.82 -722.11)"/></g><g transform="translate(3.499 68.58)"><path class="e" d="M385.18,751.5h12l-.127,1.478-11.829-1.011Z" transform="translate(-385.18 -751.5)"/></g><g transform="translate(0 13.116)"><path d="M368.8,426.385c-.006-.087-.569-8.868-1.754-19.513-1.094-9.823-2.954-23.289-5.611-31.655l.149-.047c2.662,8.377,4.523,21.854,5.618,31.686,1.185,10.65,1.748,19.432,1.754,19.521Z" transform="translate(-361.44 -375.17)"/></g><g transform="translate(8.264)"><path d="M418.645,350.508c-.007-.545-.672-54.658-1.135-64.321l.156-.007c.463,9.665,1.129,63.78,1.135,64.327Z" transform="translate(-417.51 -286.18)"/></g><g transform="translate(11.228 16.446)"><path d="M437.776,445.656l-.156-.012c.024-.308,2.427-31.015,8.592-47.874l.146.053C440.2,414.662,437.8,445.348,437.776,445.656Z" transform="translate(-437.62 -397.77)"/></g></g></g><g transform="translate(28.967 117.267)"><g transform="translate(0 0)"><path class="f" d="M117.635,561.22s8.137,1.077,5.928,10.8C121.84,579.6,105.675,608.8,105.675,608.8h-3.848s7.6-33.165,13.064-36.051c0,0-21.979.156-24.152,0s-9.5-2.106-10.439-11.222Z" transform="translate(-80.3 -561.22)"/></g></g><g transform="translate(26.347 117.195)"><path class="f" d="M91.561,560.838s9.307-.989,10.4,11.76c.862,10.048,2.078,35.781,2.078,35.781h-4.32s-6.808-24.924-7.039-35.777c0,0-11,3.469-22.336,1.077-7.223-1.524-8.671-10.517-7.416-12.573.444-.728,3.912-.18,7.969-.228C82.278,560.742,91.561,560.838,91.561,560.838Z" transform="translate(-62.527 -560.725)"/></g><g transform="translate(64.091 164.848)"><path class="e" d="M321.68,884.06,323,886.841s5.154,1.525,5.21,2.488h-8.7a.8.8,0,0,1-.579-.7c-.056-.579-.314-4.567-.314-4.567Z" transform="translate(-318.62 -884.06)"/></g><g transform="translate(49.475 164.848)"><path class="e" d="M223.823,884.06l-.305,2.781s1.5,1.525,1.552,2.488h-5.04a.8.8,0,0,1-.579-.7,35,35,0,0,1,1.312-4.567Z" transform="translate(-219.449 -884.06)"/></g><g transform="translate(20.093 84.372)"><path class="g" d="M57.12,343.222s-6.741,10.693-7.522,15.646A74.545,74.545,0,0,0,47.335,344c-.466-1.561-1.652-4.156-4.026-5.117a5.259,5.259,0,0,0-1.539-.513s-6.261-1.229-10.606.968A4.633,4.633,0,0,0,29.54,340.8s0,0,0,0S19.145,355,20.164,362.068c.45,3.119,3.1,4.5,6.146,4.812a24.521,24.521,0,0,0,.439,4.348l21.326-.308c.312-1.629.553-3.241.725-4.859,5.876.478,8.971-12.777,10.529-21.768Zm-30.9,17.539c0,.253,0,.5-.006.749a2.559,2.559,0,0,0-.346.069S26,361.277,26.223,360.761Z" transform="translate(-20.093 -338.025)"/></g><g transform="translate(64.897 97.078)"><path class="h" d="M324.09,439.614H341.2l2.861-15.384H326.951Z" transform="translate(-324.09 -424.23)"/></g><g transform="translate(56.581 112.46)"><g transform="translate(0 0)"><rect class="h" width="25.425" height="0.921" transform="translate(25.425 0.921) rotate(180)"/></g></g><g transform="translate(56.58 112.461)"><rect class="e" width="25.425" height="0.46"/></g><g transform="translate(56.58 112.691)"><path class="e" d="M271.8,530.4v.46H267.66v-.69Z" transform="translate(-267.66 -530.17)"/></g><g transform="translate(41.889 111.097)"><path class="i" d="M168,519.35a23.934,23.934,0,0,1,3.113.579,8.709,8.709,0,0,1,1.9,1.7h-3.042s-1.624.08-1.969-.545C168,521.086,167.957,519.959,168,519.35Z" transform="translate(-167.981 -519.35)"/></g><g transform="translate(35.365 113.381)"><rect class="j" width="60.03" height="3.886"/></g><g transform="translate(27.683 127.511)"><path class="k" d="M74.082,632.483l-.914-1.763h0a1.575,1.575,0,0,0-1.413,2.27l.759,1.545H100.04v-2.05H74.082Z" transform="translate(-71.591 -630.72)"/></g><g transform="translate(56.897 139.45)"><path class="e" d="M270.652,711.74v-.01s-.542,1.512-.84,2.4c0,0,1.854,7.183,3.484,11.78l.228-.435h0C272.519,721.2,271.449,716.291,270.652,711.74Z" transform="translate(-269.81 -711.73)"/></g><g transform="translate(56.24 117.267)"><path class="e" d="M274.894,573.019c.262,3.049.556,7.543.839,12.323h0l.337-.694s.576-14.629-2.065-19a9.565,9.565,0,0,0-5.082-4.432l-3.574.031C267.68,561.369,274,562.648,274.894,573.019Z" transform="translate(-265.35 -561.22)"/></g><g transform="translate(26.311 113.229)"><path class="e" d="M62.771,533.861c-.155-.01-.308-.025-.461-.041H62.28s.019.417.035.7c0,0,5.225-.032,9.018-.164v-.354C68.222,534.017,64.757,533.992,62.771,533.861Z" transform="translate(-62.28 -533.82)"/></g><g transform="translate(26.223 95.337)"><g transform="translate(0 0.164)"><path class="e" d="M66.264,413.53a8.435,8.435,0,0,1-.358,1.257c-1.363,3.652-3.412,8.46-4.225,10.351v.747h0c3.584-.5,15.686,3.157,15.686,3.157s-12.082-3.95-15.2-3.353A65.06,65.06,0,0,0,66.264,413.53Z" transform="translate(-61.68 -413.53)"/></g><g transform="translate(4.587)"><path class="e" d="M92.828,412.42l0,.009c-.009.047-.016.094-.025.141C92.809,412.52,92.819,412.47,92.828,412.42Z" transform="translate(-92.8 -412.42)"/></g></g><g transform="translate(47.104 91.492)"><path class="e" d="M203.36,386.33a111.7,111.7,0,0,1,1.953,17.562A74.514,74.514,0,0,0,203.36,386.33Z" transform="translate(-203.36 -386.33)"/></g><g transform="translate(57.441 85.55)"><g transform="translate(0)"><path class="i" d="M273.5,350.188a13.142,13.142,0,0,1,1.576-3.005,5.18,5.18,0,0,1,1.82-1.161,7.6,7.6,0,0,1-.917,1.313,3.306,3.306,0,0,1,.719,1.353,2.891,2.891,0,0,1-1.561,2.292Z" transform="translate(-273.5 -346.013)"/></g></g><g transform="translate(34.936 73.499)"><path class="i" d="M127.773,275.407l-.013,0a18.676,18.676,0,0,1-.948-5.4v-.246a3.771,3.771,0,0,0,.343-.956,10.709,10.709,0,0,0-.364-4.545l-4.423.016h0l-.7,0,.006,1.634a.92.92,0,0,0-.081.074,1.014,1.014,0,0,0,.085,1.315l.01,2.572a27.751,27.751,0,0,1-.874,5.419H120.8l0,.018s0,.009,0,.015h.007c.753,4.007,6.239,6.013,7.466,4.139S127.773,275.407,127.773,275.407Z" transform="translate(-120.8 -264.25)"/></g><g transform="translate(40.939 79.025)"><path class="e" d="M161.53,301.74s2.641,3.705,2.367,6.2a7.385,7.385,0,0,0-1.328-.472S161.661,306.443,161.53,301.74Z" transform="translate(-161.53 -301.74)"/></g><g transform="translate(37.578 79.025)"><path class="l" d="M142.09,301.74s-.983,1.928-3.36.651c0,0,1.076,3.222,3.6,2.374A23.006,23.006,0,0,1,142.09,301.74Z" transform="translate(-138.73 -301.74)"/></g><g transform="translate(30.922 71.621)"><path class="e" d="M103.592,252.6a4.385,4.385,0,0,0-4.592-.78c-1.931.78-2.085,3.015-2.164,5.382-.066,2-4.315,4.613-3.029,8.364a13.132,13.132,0,0,1,3.77-1.116,8.18,8.18,0,0,0,1.183-4.149c-.009-1.494-.022-2.8.041-3.6a1.07,1.07,0,0,1-.438-1.593c.563-.59,1.219.044,1.219.044.031.057.057.113.083.171a2.856,2.856,0,0,0,.556-.724,19.723,19.723,0,0,0,3.658,0A2.435,2.435,0,0,0,103.592,252.6Z" transform="translate(-93.565 -251.507)"/></g></g></svg>