<svg xmlns="http://www.w3.org/2000/svg" width="49.613" height="47.267" viewBox="0 0 49.613 47.267"><defs><style>.a{fill:#ecebea;}.b{fill:#ff3d1f;}.c{fill:#9bc0be;}.d{fill:#eca72f;}.e{fill:#373535;}.f{fill:#64a489;}.g{fill:#39302a;}.h{fill:#d1beaa;}.i{fill:#ddcdb5;}.j{fill:#f69573;}.k{fill:#ce7c61;}.l{fill:#fff8f5;}.m{fill:#ea8e71;}.n{fill:#d2a481;}.o{fill:#e3dee4;}.p{fill:#cd5a2a;}.q{fill:#b44923;}</style></defs><g transform="translate(-2986.565 -51.834)"><g transform="translate(2986.603 61.312)"><rect class="a" width="29.705" height="22.587"/></g><g transform="translate(2986.603 51.872)"><rect class="a" width="41.581" height="3.069"/></g><g transform="translate(2987.733 52.941)"><path class="b" d="M3001,65.151a.434.434,0,1,1-.433-.466A.45.45,0,0,1,3001,65.151Z" transform="translate(-3000.13 -64.685)"/></g><g transform="translate(2989.587 52.941)"><path class="c" d="M3022.519,65.151a.434.434,0,1,1-.432-.466A.45.45,0,0,1,3022.519,65.151Z" transform="translate(-3021.654 -64.685)"/></g><g transform="translate(2991.441 52.941)"><path class="d" d="M3044.042,65.151a.434.434,0,1,1-.433-.466A.45.45,0,0,1,3044.042,65.151Z" transform="translate(-3043.177 -64.685)"/></g><g transform="translate(2986.603 54.903)"><rect class="e" width="41.581" height="0.077" transform="translate(0 0)"/></g><g transform="translate(3010.395 56.015)"><path class="f" d="M3263.229,100.376v6.748l1.53-2.029h14.852v-4.719Z" transform="translate(-3263.229 -100.376)"/></g><g transform="translate(3012.19 57.076)"><g transform="translate(0 0)"><rect class="e" width="0.077" height="13.244" transform="matrix(0.005, -1, 1, 0.005, 0, 0.077)"/></g><g transform="translate(0 1.252)"><rect class="e" width="0.077" height="13.244" transform="translate(0 0.077) rotate(-89.742)"/></g><g transform="translate(0 2.503)"><rect class="e" width="0.077" height="13.244" transform="matrix(0.005, -1, 1, 0.005, 0, 0.077)"/></g></g><g transform="translate(2986.952 85.506)"><g transform="translate(0 3.636)"><path class="f" d="M2995.461,494.894a11.689,11.689,0,0,1-4.382-9.921,10.85,10.85,0,0,1,5.453,9.921Z" transform="translate(-2991.057 -484.973)"/></g><g transform="translate(5.476 7.109)"><path class="f" d="M3054.632,531.746a7.2,7.2,0,0,1,4.382-6.448s.143,4.959-3.264,6.448Z" transform="translate(-3054.631 -525.298)"/></g><g transform="translate(3.887 7.737)"><path class="g" d="M3036.7,538.4s-.937-3.9-.292-5.82l.156.285A19.806,19.806,0,0,0,3036.7,538.4Z" transform="translate(-3036.179 -532.584)"/></g><g transform="translate(4.143)"><path class="f" d="M3039.417,456.321s-1.688-8.623,3.506-13.557c0,0,2.725,8.026-1.884,13.557Z" transform="translate(-3039.156 -442.764)"/></g><g transform="translate(6.027 7.489)"><path class="g" d="M3061.027,535.775a9.6,9.6,0,0,0,3.068-6.068,6.683,6.683,0,0,0-.571.357A12,12,0,0,1,3061.027,535.775Z" transform="translate(-3061.027 -529.707)"/></g></g><g transform="translate(2989.936 56.478)"><g transform="translate(17.559 8.909)"><path class="h" d="M3241.708,209.639l-1.231-.45s-3.628,6.056-4.28,11.419c-4.547-9.394-6.638-11.081-6.638-11.081.4,1.433,1.291,10.641,1.291,10.641,1.254,2.413,2.527,4.453,5.2,4.241C3236.052,224.409,3241.143,224.424,3241.708,209.639Z" transform="translate(-3229.559 -209.189)"/></g><g transform="translate(5.173 7.842)"><path class="i" d="M3099.378,216.379H3086.36c-.237-.142-.865-2.558-.476-6.421s.683-11.051,3.289-12.368,6.9-.582,6.9-.582a3.643,3.643,0,0,1,2.652,2.094c.808,1.7,2.069,10.051,1.959,12.516C3100.611,213.28,3100.551,214.916,3099.378,216.379Z" transform="translate(-3085.76 -196.801)"/></g><g transform="translate(10.538 0.991)"><g transform="translate(0.525)"><path class="j" d="M3154.684,117.257l3.054.437-.514,3.338-3.09.064Z" transform="translate(-3154.135 -117.257)"/></g><g transform="translate(0 2.469)"><path class="j" d="M3152.238,150.556c-1.184.585-4.195-.073-4.195-.073.39-2.381.524-3.188.524-3.188l3.112-1.371A11.775,11.775,0,0,0,3152.238,150.556Z" transform="translate(-3148.043 -145.924)"/></g><g transform="translate(0.963 0.06)"><path class="j" d="M3159.753,117.95l2.634.378a6.437,6.437,0,0,1-.182,2.737,1.381,1.381,0,0,1-1.383,1.059,1.8,1.8,0,0,1-1.581-1.5A6.243,6.243,0,0,1,3159.753,117.95Z" transform="translate(-3159.222 -117.95)"/></g><g transform="translate(1.842 3.776)"><path class="k" d="M3171.2,161.092a1.352,1.352,0,0,1-1.773.207s.256,1.908,1.939,1.458A11.783,11.783,0,0,1,3171.2,161.092Z" transform="translate(-3169.425 -161.092)"/></g><g transform="translate(0 6.792)"><path class="j" d="M3152.238,196.4a2.269,2.269,0,0,1,.3,2.437c-.741,1.131-4.058-.086-4.5-2.51A9.3,9.3,0,0,1,3152.238,196.4Z" transform="translate(-3148.043 -196.111)"/></g></g><g transform="translate(0 9.677)"><path class="i" d="M3033.079,218.3s-5.165,9.993-7.378,17.54h2.972a72.73,72.73,0,0,0,4.406-8.01C3034.114,225.195,3034.934,216.676,3033.079,218.3Z" transform="translate(-3025.701 -218.096)"/></g><g transform="translate(8.382)"><path class="g" d="M3126.366,108.114s1.1.473,2.589-.857a1.668,1.668,0,0,0,.415.71l0,.324a2.194,2.194,0,0,0,.333-1.548.526.526,0,0,0-.753-.373,4.142,4.142,0,0,0-2.233-.591c-.917.177-1.529.828-1.548,2.779s-2.938,3.492-1.952,5.825a8.977,8.977,0,0,1,1.952-.611s.707-3.257.794-4.638A1.624,1.624,0,0,0,3126.366,108.114Z" transform="translate(-3123.019 -105.752)"/></g><g transform="translate(11.24 1.894)"><path class="j" d="M3157.095,127.985s-.334-.435-.722-.133c-.32.249-.266,1.058.637,1.183a1.239,1.239,0,0,0,.084-1.05" transform="translate(-3156.195 -127.745)"/></g><g transform="translate(10.932 3.382)"><path class="g" d="M3153.024,145.014a3.1,3.1,0,0,1-.391,2.635A6.9,6.9,0,0,1,3153.024,145.014Z" transform="translate(-3152.625 -145.014)"/></g><g transform="translate(14.152 4.451)"><path class="g" d="M3190.211,157.425s2.209,2.4,1.905,3.834a4.637,4.637,0,0,0-1.582-.341,10.066,10.066,0,0,1-.528-3.177A3.434,3.434,0,0,0,3190.211,157.425Z" transform="translate(-3190.006 -157.425)"/></g><g transform="translate(5.175 19.411)"><path class="g" d="M3085.784,335.426c-.007.186.049,1.1.049,1.1.884-.337,2.154-5.418,2.154-5.418a38.794,38.794,0,0,1-2.2,4.317Z" transform="translate(-3085.783 -331.108)"/></g><g transform="translate(18.731 12.152)"><path class="g" d="M3243.162,246.831A88.718,88.718,0,0,1,3244.5,256S3244.915,254.149,3243.162,246.831Z" transform="translate(-3243.162 -246.831)"/></g><g transform="translate(28.477 7.955)"><path class="j" d="M3356.31,199.066a1.737,1.737,0,0,1,1.491-.962,21.462,21.462,0,0,0,2.508.051c.467-.086,0,.4-.875.378,0,0,.893-.18,1.059.042s-1.472,1.324-3.132.875Z" transform="translate(-3356.31 -198.104)"/></g></g><g transform="translate(3005.073 88.23)"><g transform="translate(0.038 0.038)"><rect class="l" width="10.566" height="10.794"/></g><path class="e" d="M3212.089,485.259h-10.643V474.388h10.643Zm-10.566-.077h10.49V474.465h-10.49Z" transform="translate(-3201.446 -474.388)"/></g><g transform="translate(3008.414 92.698)"><g transform="translate(0.038 0.038)"><rect class="l" width="16.682" height="6.327"/></g><path class="e" d="M3256.984,532.659h-16.759v-6.4h16.759Zm-16.682-.077h16.6v-6.25h-16.6Z" transform="translate(-3240.225 -526.255)"/></g><g transform="translate(2986.565 51.834)"><path class="e" d="M3028.223,83.937h-41.658v-32.1h41.658Zm-41.581-.077h41.5V51.911h-41.5Z" transform="translate(-2986.565 -51.834)"/></g><g transform="translate(3011.267 67.487)"><g transform="translate(14.315 9.013)"><path class="m" d="M3443.8,338.2s-3.409,3.418-4.252,4.508l.377.719a24.02,24.02,0,0,0,3.665-2.535Z" transform="translate(-3439.549 -338.198)"/></g><g transform="translate(2.195 14.778)"><path class="n" d="M3315.322,405.134l-16.489,15.628h1.656s7.649-2.67,9.245-6.868c0,0,10.851-4.057,10.982-7.013C3320.78,405.433,3315.322,405.134,3315.322,405.134Z" transform="translate(-3298.833 -405.134)"/></g><g transform="translate(15.268 19.942)"><g transform="translate(0.038 0.038)"><rect class="l" width="9.567" height="11.595"/></g><path class="e" d="M3460.248,476.763H3450.6V465.091h9.644Zm-9.567-.077h9.49V465.168h-9.49Z" transform="translate(-3450.604 -465.091)"/></g><g transform="translate(20.297 0.604)"><path class="j" d="M3510.754,240.584l-1.754-.007.216,2.206,1.529.006Z" transform="translate(-3509 -240.577)"/></g><g transform="translate(20.136 1.737)"><path class="j" d="M3507.132,256.346a4.8,4.8,0,0,0,2.188.043,9.957,9.957,0,0,1-.307-2.661l-1.512.942C3507.606,256.213,3507.132,256.346,3507.132,256.346Z" transform="translate(-3507.132 -253.728)"/></g><g transform="translate(20.128 0.604)"><path class="j" d="M3508.721,240.583l-1.513-.006a3.661,3.661,0,0,0-.125,1.554.785.785,0,0,0,.69.71,1.021,1.021,0,0,0,1.013-.71A3.551,3.551,0,0,0,3508.721,240.583Z" transform="translate(-3507.039 -240.577)"/></g><g transform="translate(21.064 1.109)"><path class="j" d="M3517.984,246.54s.224-.217.417-.015c.16.166.062.617-.456.613a.7.7,0,0,1,.04-.6" transform="translate(-3517.896 -246.439)"/></g><g transform="translate(19.802 4.341)"><path class="j" d="M3505.776,284.015s-1.622,1.048-2.188.9-.305-.792,0-.943A18.949,18.949,0,0,1,3505.776,284.015Z" transform="translate(-3503.254 -283.958)"/></g><g transform="translate(9.882 9.013)"><path class="o" d="M3392.387,343.582h-3.364l-.94-5.384h3.365Z" transform="translate(-3388.083 -338.198)"/></g><g transform="translate(10.816 14.397)"><rect class="o" width="6.102" height="0.302"/></g><g transform="translate(18.353 3.894)"><path class="p" d="M3486.921,289.654l5.236.1a10.16,10.16,0,0,0,.19-3.65c-.156-2.2-.273-6.282-1.315-7.03s-2.76.123-2.76.123a2.109,2.109,0,0,0-1.061,1.19,35.011,35.011,0,0,0-.784,6.661A5.263,5.263,0,0,0,3486.921,289.654Z" transform="translate(-3486.425 -278.77)"/></g><g transform="translate(13.867 4.716)"><path class="j" d="M3442.464,288.828a.63.63,0,0,0-.778-.5c-1.083.224-1.249,1.046-1.313,1.743a23.713,23.713,0,0,0,.373,4.894c-2.92.089-6.4,2.28-6.4,2.28l.079.571c1.544.152,7.078-.423,8.17-2.24C3443.439,294.164,3442.843,290.292,3442.464,288.828Z" transform="translate(-3434.344 -288.311)"/></g><g transform="translate(10.816 14.397)"><rect class="g" width="6.102" height="0.151"/></g><g transform="translate(15.557 14.472)"><path class="g" d="M3453.964,401.658v.151h1.361v-.227Z" transform="translate(-3453.964 -401.583)"/></g><g transform="translate(11.477 20.782)"><path class="g" d="M3407.009,479.523a41.128,41.128,0,0,0,.464-4.689l-.54.512-.333.952.264,3.387Z" transform="translate(-3406.601 -474.834)"/></g><g transform="translate(8.41 14.675)"><path class="n" d="M3374.019,403.966s-3.208.073-3.024,3.863c.161,3.309,1.32,11.845,1.32,11.845h1.419s1.33-7.243.31-11.751c0,0,6.045,2.235,10.166.9,2.262-.732,2.949-3.924,2.446-4.677-.156-.233-1.269-.089-2.6-.134C3380.354,403.889,3374.019,403.966,3374.019,403.966Z" transform="translate(-3370.987 -403.942)"/></g><g transform="translate(13.701 19.356)"><path class="g" d="M3432.415,458.424a15.242,15.242,0,0,0,1.6,1.28v-.8l2.631-.014a25.022,25.022,0,0,1-4.083-.611Z" transform="translate(-3432.415 -458.279)"/></g><g transform="translate(19.69 4.549)"><path class="q" d="M3502.784,286.654s-1.2.391-.721,3.828a6.293,6.293,0,0,0,2.938-.532S3505.156,285.2,3502.784,286.654Z" transform="translate(-3501.951 -286.377)"/></g><g transform="translate(18.743 14.475)"><path class="p" d="M3490.955,401.719s.878.691,5.394.1A29.791,29.791,0,0,0,3490.955,401.719Z" transform="translate(-3490.955 -401.61)"/></g><g transform="translate(18.482 12.206)"><path class="g" d="M3487.919,376.841h0l.027.119a5.992,5.992,0,0,0,3.441-1.689A6.775,6.775,0,0,1,3487.919,376.841Z" transform="translate(-3487.919 -375.271)"/></g><g transform="translate(20.248)"><path class="g" d="M3508.481,234.167a.9.9,0,0,0,.425,1.106.834.834,0,0,0,.447.869s.1,1.014.468,1.327a1.209,1.209,0,0,1,.349,0c.088.033.541,1.463,1.556,1.273,0,0,.587-.463-.241-1.44-.608-.717-.994-1.035-.978-1.759s.3-1.774-.146-1.936S3508.344,233.751,3508.481,234.167Z" transform="translate(-3508.432 -233.563)"/></g><g transform="translate(7.62 30.406)"><path class="j" d="M3364.14,586.577l-.4.331s-1.907.458-1.929.839h3.437a.314.314,0,0,0,.229-.277,4.8,4.8,0,0,0-.128-.892Z" transform="translate(-3361.812 -586.577)"/></g><g transform="translate(0 30.406)"><path class="j" d="M3275.888,586.577l-.609.331s-1.907.458-1.929.839h3.437a.314.314,0,0,0,.229-.277c.022-.229.082-.892.082-.892Z" transform="translate(-3273.35 -586.577)"/></g><g transform="translate(12.3 13.647)"><path class="j" d="M3417.716,392a7.217,7.217,0,0,0-.944.19,2.864,2.864,0,0,0-.624.559h.111l.162-.056,0,.056h.721s.533.026.647-.179A2.1,2.1,0,0,0,3417.716,392Z" transform="translate(-3416.149 -392.001)"/></g></g></g></svg>