<svg xmlns="http://www.w3.org/2000/svg" width="88.189" height="63.499" viewBox="0 0 88.189 63.499"><defs><style>.a{fill:#39302a;}.b{fill:#3485c7;}.c{fill:#51a9e5;}.d{fill:#90e3f7;}.e{fill:#e3ded9;}.f{fill:#ff684d;}.g{fill:#db9e70;}.h{fill:#2c3b4f;}.i{fill:#324058;}.j{fill:#4475b0;}.k{fill:#4baf96;}.l{fill:#e4dfe5;}.m{fill:#c6885d;}</style></defs><g transform="translate(-90.226 -193.033)"><g transform="translate(137.438 198.732)"><path class="a" d="M1015.792,280.9s-2.295,3.875-.965,4.167a5.013,5.013,0,0,1,.7-.27A10.4,10.4,0,0,0,1015.792,280.9Z" transform="translate(-1014.413 -280.898)"/></g><g transform="translate(105.498 238.225)"><g transform="translate(0 0)"><rect class="b" width="59.397" height="7.919" rx="3.959"/></g></g><g transform="translate(118.663 239.611)"><rect class="c" width="32.576" height="5.143" transform="translate(32.576 5.143) rotate(180)"/></g><g transform="translate(105.973 246.143)"><g transform="translate(0)"><path class="d" d="M737.608,779.988H684.631a1.643,1.643,0,0,0-1.438.848h49.2a4.346,4.346,0,0,1,0,8.693h-49.2a1.643,1.643,0,0,0,1.438.848h52.977a5.194,5.194,0,0,0,0-10.388Z" transform="translate(-683.193 -779.988)"/></g></g><g transform="translate(106.486 246.991)"><g transform="translate(0)"><path class="e" d="M688.591,789.707a1.636,1.636,0,0,1,.206-.8h48.476a4.346,4.346,0,0,1,4.346,4.346h0a4.346,4.346,0,0,1-4.346,4.346H688.8a1.636,1.636,0,0,1-.206-.8Z" transform="translate(-688.591 -788.911)"/></g></g><g transform="translate(120.178 249.886)"><path class="f" d="M834.576,819.391h1.856v4.3l-1.856-1.221-1.856,1.221v-4.3Z" transform="translate(-832.72 -819.391)"/></g><g transform="translate(134.518 238.222)"><path class="a" d="M983.676,696.6l.469.912h9.324s3.172-.053,3.663-.912Z" transform="translate(-983.676 -696.602)"/></g><g transform="translate(108.435 246.143)"><path class="a" d="M763.422,779.988s-28.064.848-30.5.848l-21.157.031-2.664-.879Z" transform="translate(-709.103 -779.988)"/></g><g transform="translate(131.117 206.113)"><path class="g" d="M952,358.6s-4.405,11.475-4.116,21.48h1.86Z" transform="translate(-947.873 -358.597)"/></g><g transform="translate(123.74 228.239)"><path class="h" d="M871.738,592.451a4.582,4.582,0,0,1,2.717-.929h0l6.17-.013.333,9.9c3.783,7.376,6.849,12.916,6.849,12.916l-2.783,1.451s-11.124-13.152-13.088-15.608S869.433,594.132,871.738,592.451Z" transform="translate(-870.224 -591.508)"/></g><g transform="translate(112.883 228.13)"><path class="i" d="M766.788,595.668c3.725-5.619,7.829-5.2,7.829-5.2s1.845.032,12.358.032c3.194,0,5.922-.393,6.272.179.955,1.566-.033,8.49-5.289,9.783H777.884a67.848,67.848,0,0,0-6.759-.676c-.346,3.806-13.029,15.232-13.029,15.232l-2.165-2.213S762.167,602.639,766.788,595.668Z" transform="translate(-755.931 -590.368)"/></g><g transform="translate(133.122 202.266)"><g transform="translate(0 0)"><path class="j" d="M969.277,344.067l16.777.21c.225-.689.36-4.189.022-9.258-.441-6.6-.9-14.2-4.308-15.919a11.1,11.1,0,0,0-7.2-.686,4.841,4.841,0,0,0-3.2,2.824c-1.057,2.219-2.389,12.006-2.389,16.345C968.983,339.76,968.907,343.153,969.277,344.067Z" transform="translate(-968.977 -318.101)"/></g></g><g transform="translate(141.471 226.6)"><path class="a" d="M1063.5,574.9c-2.44.227-4.723.334-6.586.38l-.045.005.79.181s7.208.2,8.1-.572c0,0,.022-.507.033-.63h-.006A6.248,6.248,0,0,1,1063.5,574.9Z" transform="translate(-1056.871 -574.263)"/></g><g transform="translate(136.614 212.225)"><path class="a" d="M1014.523,422.934c.6,2.368,2.869,10.856,2.869,10.856-4.766.282-11.649,3.028-11.649,3.028s8.273-2.886,12.24-2.886C1017.983,433.931,1015.568,426.7,1014.523,422.934Z" transform="translate(-1005.743 -422.934)"/></g><g transform="translate(133.099 210.274)"><path class="a" d="M969.957,402.394a88.13,88.13,0,0,0-1.2,13.7A62.908,62.908,0,0,1,969.957,402.394Z" transform="translate(-968.736 -402.394)"/></g><g transform="translate(136.535 251.094)"><path class="a" d="M1005.785,836.609a10.054,10.054,0,0,1,1.8-1.987l-.379-1.262,2.422-1.262.87,1.359a14.784,14.784,0,0,1,1.139,1.781l-1.459.724-.235-.474-.725.973-1.136.945h-3.177A1.3,1.3,0,0,1,1005.785,836.609Z" transform="translate(-1004.908 -832.098)"/></g><g transform="translate(90.226 247.568)"><path class="k" d="M522.441,920.856c-.82.19-1.321,1.086-1.627,2.15-.591-2.49-1.8-4.062-2.451-2.763-.624,1.248.348,3.754,1.138,5.412-.5-.806-1.156-1.61-1.786-1.6-1.261.011,1.945,3.223,1.945,3.223h1.418S524.7,920.331,522.441,920.856Z" transform="translate(-517.421 -918.442)"/><path class="k" d="M1392.791,907.982c-.942,0-1.8,1.511-2.436,3.085-.014-3.588-1.09-6.346-2.162-4.988-1.405,1.78,1.037,8.479,1.037,8.479h.8S1394.755,907.982,1392.791,907.982Z" transform="translate(-1305.079 -905.727)"/></g><path class="g" d="M982.429,336.757a8.992,8.992,0,0,0-1.809-2.574,11.918,11.918,0,0,0-.425,11.352h0c1.14,3.712,2.6,8.076,2.6,8.076-3.967,0-12.24,2.886-12.24,2.886a8.2,8.2,0,0,0-1.778.686c-.4.307-1.93.533-1.916.854,0,0,3.758,0,3.957-.041l0,.013a98.169,98.169,0,0,0,11.222-.386c2.648-.246,4.514-1.792,4.764-4.393C987.418,346.818,982.429,336.757,982.429,336.757Z" transform="translate(-833.938 -130.389)"/><path class="g" d="M1018.452,237.438a37.82,37.82,0,0,1-1.053-4.2l-.3-1.752h0l-.492-2.845-.547.095h0l-3.431.594a8.422,8.422,0,0,0,.342,3.572,2.941,2.941,0,0,0,.4.7l.057.326a15.5,15.5,0,0,1-.324,3.572l-.3.091s-1.727,2.353-.786,4.092,6.316.31,6.933-4.142Z" transform="translate(-874.549 -34.876)"/><path class="a" d="M1026.4,228.052c-1.653-1.75-2.469-5.09-2.736-6.321s-2.879-1.142-4.628.567h0l-.011.011-.018.017h0v0s-.015.015-.036.04h0a.6.6,0,0,0-.02.836,2.142,2.142,0,0,0,.063-.82h0l.036-.026a7.228,7.228,0,0,0,2.929,1.312,1.671,1.671,0,0,1,.006-.518s.328-.639.9-.342a.812.812,0,0,1,.225,1.1c.06,1.873.348,6.538,1.727,6.525a9.021,9.021,0,0,1,2.779,1.232A4.169,4.169,0,0,0,1026.4,228.052Z" transform="translate(-880.926 -27.869)"/><g transform="translate(119.999 215.514)"><g transform="translate(0)"><path class="l" d="M846.559,469.669H833.093l-2.252-12.107h13.466Z" transform="translate(-830.842 -457.562)"/></g><g transform="translate(2.252 12.107)"><rect class="l" width="20.01" height="0.724"/></g><g transform="translate(2.252 12.107)"><rect class="a" width="20.01" height="0.362"/></g><g transform="translate(15.717 12.288)"><path class="a" d="M996.294,587.094v.362l6.545.006v-.543Z" transform="translate(-996.294 -586.919)"/></g></g><g transform="translate(138.805 198.732)"><path class="m" d="M1028.817,280.9s1.057,1.421,2.736.022c0,0-.29,2.849-2.748,2.2A9.683,9.683,0,0,0,1028.817,280.9Z" transform="translate(-1028.805 -280.898)"/></g><g transform="translate(105.498 239.134)"><rect class="e" width="10.855" height="6.098"/></g><g transform="translate(105.351 250.771)"><path class="a" d="M684.373,828.7l-2.073,2.338s-5.251-1.149-5.657-.252l5.676,2.567,1.156-.059-.218.483,1.484.671a14.774,14.774,0,0,0,.658-2.009l.941-1.728Z" transform="translate(-676.643 -828.698)"/></g></g></svg>