<svg xmlns="http://www.w3.org/2000/svg" width="33.044" height="33.044" viewBox="0 0 33.044 33.044"><defs><style>.a{fill:#0d9412;}</style></defs><g transform="translate(-3.375 -4.375)"><path class="a" d="M27.449,13.739l-1.4-1.438a.3.3,0,0,0-.222-.1h0a.288.288,0,0,0-.222.1l-9.691,9.762-3.527-3.527a.307.307,0,0,0-.445,0L10.53,19.951a.316.316,0,0,0,0,.453l4.448,4.448a1.407,1.407,0,0,0,.929.453,1.474,1.474,0,0,0,.921-.437h.008l10.62-10.676A.34.34,0,0,0,27.449,13.739Z" transform="translate(0.916 1.397)"/><path class="a" d="M19.9,5.6A14.292,14.292,0,1,1,9.785,9.785,14.2,14.2,0,0,1,19.9,5.6m0-2.224A16.522,16.522,0,1,0,36.419,19.9,16.52,16.52,0,0,0,19.9,3.375Z" transform="translate(0 1)"/></g></svg>