<svg xmlns="http://www.w3.org/2000/svg" width="25.726" height="25.726" viewBox="0 0 25.726 25.726"><defs><style>.a{fill:#103d6b;}</style></defs><path class="a" d="M13.426.563A12.863,12.863,0,1,0,26.289,13.426,12.861,12.861,0,0,0,13.426.563Zm7.469,14.315a.624.624,0,0,1-.622.622H15.5v4.772a.624.624,0,0,1-.622.622h-2.9a.624.624,0,0,1-.622-.622V15.5H6.579a.624.624,0,0,1-.622-.622v-2.9a.624.624,0,0,1,.622-.622h4.772V6.579a.624.624,0,0,1,.622-.622h2.9a.624.624,0,0,1,.622.622v4.772h4.772a.624.624,0,0,1,.622.622Z" transform="translate(-0.563 -0.563)"/></svg>