<svg xmlns="http://www.w3.org/2000/svg" width="33.04" height="33.04" viewBox="0 0 33.04 33.04"><defs><style>.a{fill:#b44923;}</style></defs><g transform="translate(-3.375 -3.375)"><path class="a" d="M24.869,23.052,20.63,18.813l4.239-4.239a1.285,1.285,0,0,0-1.818-1.818L18.812,17l-4.239-4.239a1.285,1.285,0,1,0-1.818,1.818l4.239,4.239-4.239,4.239a1.243,1.243,0,0,0,0,1.818,1.277,1.277,0,0,0,1.818,0l4.239-4.239,4.239,4.239a1.291,1.291,0,0,0,1.818,0A1.277,1.277,0,0,0,24.869,23.052Z" transform="translate(1.016 1.021)"/><path class="a" d="M19.9,5.6A14.291,14.291,0,1,1,9.784,9.784,14.2,14.2,0,0,1,19.9,5.6m0-2.224A16.52,16.52,0,1,0,36.415,19.9,16.517,16.517,0,0,0,19.9,3.375Z" transform="translate(0 0)"/></g></svg>