<svg xmlns="http://www.w3.org/2000/svg" width="55.31" height="113.633" viewBox="0 0 55.31 113.633"><defs><style>.a{fill:#b44923;}.b{fill:#dfcd99;}.c{fill:#cdb97d;}</style></defs><g transform="translate(0 24.832)"><path class="a" d="M1118.265,395.8a28.677,28.677,0,0,1,1.034,6.731,29.151,29.151,0,0,0-1.874-7.039,17.047,17.047,0,0,0-8.217-.312l.62,2.18-1.392-2.031a36.347,36.347,0,0,0-9.46,3.531c3.1.261,6.287,2.715,10.22,6.277a17.542,17.542,0,0,1,6.775-1.992,26.94,26.94,0,0,0-6.031,2.67c1,.917,2.047,1.9,3.154,2.925a17.189,17.189,0,0,0,5.1,3.274c.79-.386,1.663-.832,1.663-.832l-.644,1.221a18.522,18.522,0,0,0,7.161,1.046C1126.326,402.611,1122.784,397.674,1118.265,395.8Z" transform="translate(-1098.976 -394.825)"/></g><g transform="translate(23.972)"><path class="a" d="M1278.1,250.959l2.336-.953a38.773,38.773,0,0,0,.263-14.776,37.045,37.045,0,0,0-5.671,2.623,32.525,32.525,0,0,1,5.492-3.618c-.26-1.36-.538-2.458-.75-3.194a47.536,47.536,0,0,1-1.568-7.62,32.122,32.122,0,0,0-5.3,5.627l1.05,2.611-1.445-2.05a25.082,25.082,0,0,0-4.434,12.176c1.68.809,4.466,2.289,5.514,3.645a29.472,29.472,0,0,0-5.568-2.967c-.707,11.049,5.6,20.264,5.6,20.264a26.148,26.148,0,0,0,6.687-12.192Z" transform="translate(-1267.969 -223.421)"/></g><g transform="translate(35.571 23.515)"><path class="a" d="M1363.018,406.44a.806.806,0,0,1-.29-.021l.29.021c.73-.01,2.706-.186,4.339-.342a23.484,23.484,0,0,0,4.393-9.911,42.316,42.316,0,0,0-7.691.813,37.075,37.075,0,0,1,7.834-1.573c.134-.772.216-1.422.272-1.895.478-4.058,2.048-5.9,2.048-5.9a21.088,21.088,0,0,0-5.566-.643,8.012,8.012,0,0,0-1.362,3.306,12.3,12.3,0,0,1,.228-3.233,11.916,11.916,0,0,0-8.816,5.147,51.848,51.848,0,0,1-.576,9.145,54.088,54.088,0,0,0-.172-7.993c-4.619,7.832-3.3,20.085-3.3,20.085a20.583,20.583,0,0,0,12.2-6.731Z" transform="translate(-1354.474 -386.98)"/></g><g transform="translate(15.647 30.901)"><path d="M1227.927,477.578a69.527,69.527,0,0,0-2.856-13.938c-2.187-7-6.477-16.594-14.493-22.5l.122-.165c8.061,5.94,12.372,15.574,14.568,22.609a69.684,69.684,0,0,1,2.864,13.979Z" transform="translate(-1210.577 -440.974)"/></g><g transform="translate(29.604 18.502)"><path d="M1304.013,406.5c-.021-.366-2.1-36.756-.682-49.984l.2.022c-1.416,13.211.661,49.584.683,49.95Z" transform="translate(-1302.836 -356.513)"/></g><g transform="translate(32.67 33.011)"><path d="M1328.566,489.511l-.2-.029c.034-.241,3.509-24.286,11.489-34.336l.16.127C1332.068,465.28,1328.6,489.27,1328.566,489.511Z" transform="translate(-1328.364 -455.146)"/></g><g transform="translate(21.173 62.185)"><path class="b" d="M24.342,71.08h22.5s-1.7,21.077-3.233,33.939-2.892,17.509-2.892,17.509H30.312s-.982-2.269-2.474-15.131S24.342,71.08,24.342,71.08Z" transform="translate(-24.342 -71.08)"/></g><g transform="translate(21.706 70.548)"><path class="c" d="M1255.868,704.186h21.495l-.17,2.062-21.324-1.031Z" transform="translate(-1255.868 -704.186)"/></g></svg>