<svg xmlns="http://www.w3.org/2000/svg" width="66.086" height="114.179" viewBox="0 0 66.086 114.179"><defs><style>.a{fill:#103d6b;}.b{fill:#39302a;}.c{fill:#b44923;}.d{fill:#e4dfe5;}.e{fill:#f79673;}.f{fill:#0e0654;}.g{fill:#d07c61;}</style></defs><g transform="translate(0 0)"><g transform="translate(5.208 52.914)"><path class="a" d="M87.612,561.22s-9.433,1.249-6.872,12.522c2,8.785,20.736,42.635,20.736,42.635h4.461s-8.816-38.446-15.144-41.791c0,0,25.479.181,28,0s11.016-2.442,12.1-13.009Z" transform="translate(-80.3 -561.22)"/></g><g transform="translate(10.711 52.83)"><path class="a" d="M76.994,560.855S66.2,559.709,64.936,574.487c-1,11.648-2.409,41.479-2.409,41.479h5.008s7.892-28.892,8.16-41.474c0,0,12.75,4.022,25.892,1.249,8.373-1.766,10.051-12.192,8.6-14.575-.514-.844-4.534-.208-9.238-.265C87.756,560.744,76.994,560.855,76.994,560.855Z" transform="translate(-62.527 -560.725)"/></g><g transform="translate(3.966 108.071)"><path class="b" d="M326.19,884.06l-1.531,3.224s-5.975,1.768-6.039,2.884H328.7a.922.922,0,0,0,.671-.813c.065-.671.364-5.295.364-5.295Z" transform="translate(-318.62 -884.06)"/></g><g transform="translate(25.51 108.071)"><path class="b" d="M220.894,884.06l.354,3.224s-1.734,1.768-1.8,2.884h5.843a.922.922,0,0,0,.671-.813,40.582,40.582,0,0,0-1.521-5.295Z" transform="translate(-219.449 -884.06)"/></g><g transform="translate(20.603 14.782)"><path class="c" d="M22.654,344.05s7.815,12.4,8.72,18.137c0,0,.449-9.954,2.623-17.239.54-1.809,1.915-4.818,4.668-5.932a6.1,6.1,0,0,1,1.784-.595s7.258-1.425,12.294,1.122a5.37,5.37,0,0,1,1.883,1.7s0-.005,0-.005S66.675,357.7,65.495,365.9c-.521,3.615-3.593,5.214-7.124,5.578a28.426,28.426,0,0,1-.509,5.04l-24.722-.357c-.362-1.888-.641-3.757-.841-5.633-6.812.554-10.4-14.811-12.205-25.234Zm35.817,20.331c0,.294.005.583.007.868a2.975,2.975,0,0,1,.4.08S58.729,364.979,58.471,364.381Z" transform="translate(-20.093 -338.025)"/></g><g transform="translate(0 33.51)"><path class="d" d="M347.238,442.063H327.406L324.09,424.23h19.832Z" transform="translate(-324.09 -424.23)"/></g><g transform="translate(3.316 51.342)"><g transform="translate(0)"><rect class="d" width="29.473" height="1.068"/></g></g><g transform="translate(3.316 51.343)"><g transform="translate(0)"><rect class="b" width="29.473" height="0.533"/></g></g><g transform="translate(27.985 51.609)"><path class="b" d="M267.66,530.437v.533h4.8v-.8Z" transform="translate(-267.66 -530.17)"/></g><g transform="translate(34.989 45.761)"><g transform="translate(0)"><path class="e" d="M173.79,519.35a27.725,27.725,0,0,0-3.608.672,10.1,10.1,0,0,0-2.2,1.975h3.526s1.883.092,2.283-.632C173.79,521.363,173.84,520.056,173.79,519.35Z" transform="translate(-167.981 -519.35)"/></g></g><g transform="translate(24.309 64.788)"><path class="f" d="M101.683,632.763l1.059-2.043h0a1.826,1.826,0,0,1,1.638,2.631l-.88,1.79H71.591v-2.377h30.092Z" transform="translate(-71.591 -630.72)"/></g><g transform="translate(19.119 78.629)"><path class="b" d="M273.138,711.742l0-.012s.629,1.753.974,2.783c0,0-2.149,8.327-4.039,13.656l-.265-.5v0C270.973,722.705,272.214,717.018,273.138,711.742Z" transform="translate(-269.81 -711.73)"/></g><g transform="translate(11.695 52.914)"><path class="b" d="M266.775,574.9c-.3,3.535-.644,8.744-.972,14.285h0l-.391-.8s-.668-16.958,2.394-22.021c2.571-4.254,5.891-5.137,5.891-5.137l4.143.036C275.138,561.393,267.807,562.875,266.775,574.9Z" transform="translate(-265.35 -561.22)"/></g><g transform="translate(48.383 48.233)"><path class="b" d="M72.206,533.868c.179-.012.357-.029.535-.048h.034s-.022.484-.041.815c0,0-6.057-.038-10.454-.19v-.41C65.887,534.049,69.9,534.02,72.206,533.868Z" transform="translate(-62.28 -533.82)"/></g><g transform="translate(40.798 27.492)"><g transform="translate(0 0.19)"><path class="b" d="M74.55,413.53a9.78,9.78,0,0,0,.415,1.457c1.58,4.234,3.955,9.807,4.9,12v.866h0c-4.155-.577-18.183,3.66-18.183,3.66s14.006-4.579,17.623-3.887C79.3,427.625,75.734,419.8,74.55,413.53Z" transform="translate(-61.68 -413.53)"/></g><g transform="translate(12.834)"><path class="b" d="M92.8,412.42l0,.01c.01.055.019.109.029.164C92.822,412.536,92.81,412.478,92.8,412.42Z" transform="translate(-92.8 -412.42)"/></g></g><g transform="translate(32.493 23.034)"><path class="b" d="M205.642,386.33a129.487,129.487,0,0,0-2.264,20.358A86.378,86.378,0,0,1,205.642,386.33Z" transform="translate(-203.36 -386.33)"/></g><g transform="translate(18.854 16.146)"><g transform="translate(0)"><path class="e" d="M277.438,350.853a15.235,15.235,0,0,0-1.826-3.484,6.005,6.005,0,0,0-2.11-1.346,8.8,8.8,0,0,0,1.063,1.522,3.832,3.832,0,0,0-.834,1.568,3.351,3.351,0,0,0,1.809,2.657Z" transform="translate(-273.5 -346.013)"/></g></g><g transform="translate(39.705 2.177)"><path class="e" d="M121.893,277.183l.015-.005a21.649,21.649,0,0,0,1.1-6.265l0-.285a4.371,4.371,0,0,1-.4-1.109,12.414,12.414,0,0,1,.422-5.269l5.127.019h0l.817,0-.007,1.895a1.059,1.059,0,0,1,.094.085,1.175,1.175,0,0,1-.1,1.524l-.012,2.981a32.17,32.17,0,0,0,1.013,6.282l.01,0-.005.021c0,.005,0,.01.005.017l-.009,0c-.873,4.645-7.232,6.971-8.655,4.8S121.893,277.183,121.893,277.183Z" transform="translate(-120.8 -264.25)"/></g><g transform="translate(39.155 8.582)"><path class="b" d="M164.3,301.74s-3.062,4.3-2.744,7.186a8.558,8.558,0,0,1,1.539-.547S164.145,307.192,164.3,301.74Z" transform="translate(-161.53 -301.74)"/></g><g transform="translate(41.645 8.582)"><path class="g" d="M139.007,301.74s1.14,2.235,3.9.755c0,0-1.247,3.735-4.172,2.752A26.669,26.669,0,0,0,139.007,301.74Z" transform="translate(-138.73 -301.74)"/></g><g transform="translate(41.461 0)"><path class="b" d="M94.013,252.777c.75-.965,3.2-1.763,5.324-.9,2.238.9,2.418,3.5,2.508,6.239.077,2.313,5,5.348,3.511,9.7a15.223,15.223,0,0,0-4.37-1.293,9.482,9.482,0,0,1-1.372-4.809c.01-1.732.026-3.241-.048-4.17a1.24,1.24,0,0,0,.507-1.847c-.653-.683-1.413.051-1.413.051-.036.067-.067.132-.1.2a3.311,3.311,0,0,1-.644-.839,22.862,22.862,0,0,1-4.24,0A2.822,2.822,0,0,1,94.013,252.777Z" transform="translate(-93.565 -251.507)"/></g></g></svg>