<svg xmlns="http://www.w3.org/2000/svg" width="67.253" height="139.657" viewBox="0 0 67.253 139.657"><defs><style>.a{fill:#97bcdf;}.b{fill:#39302a;}.c{fill:#d0d7db;}.d{fill:#f7603b;}.e{fill:#ff4e00;}.f{fill:#bec2c4;}.g{fill:#de3e00;}.h{fill:#aaaaab;}.i{fill:#f8b200;}.j{fill:#8a4622;}.k{fill:#64a489;}.l{fill:#73371b;}</style></defs><g transform="translate(0)"><path class="a" d="M584.641,324.63s-12.727,20.494-12.761,33.631c-.028,11.2,18.285,46.323,18.285,46.323H594.9s-9.28-41.975-13.474-44.963c0,0,16.708-19.9,22.092-32.41Z" transform="translate(-550.581 -271.157)"/><path class="a" d="M646.229,321.594c-.757,6.925-11.305,34.55-11.305,34.55,2.86,12.16-11.6,44.993-11.6,44.993H618.76s3.646-28.068,5.82-45.059c1.871-18.4,2.559-35.639,2.559-35.639Z" transform="translate(-589.148 -267.71)"/><path class="b" d="M590.312,775.5l-1.926,3.288s-4.848,1.8-4.916,2.942h9.037a.941.941,0,0,0,.686-.83c.066-.685.736-5.4.736-5.4Z" transform="translate(-560.116 -642.072)"/><rect class="c" width="4.711" height="0.655" transform="translate(0 19.678)"/><path class="b" d="M670.385,775.5h-3.618l-.092,3.288s-.215.275-.481.676h0c-1.69.147-1.825,2.266-1.825,2.266h4.552l1.576-1.156a.941.941,0,0,0,.686-.83A31.746,31.746,0,0,0,670.385,775.5Z" transform="translate(-626.669 -642.072)"/><g transform="translate(20.8 5.191)"><path class="d" d="M576.945,69.64l-7.875-.03,3.155,10.431,7.663.252Z" transform="translate(-569.07 -66.551)"/><path class="e" d="M569.07,55.419l3.611-3.059,1.151,3.077Z" transform="translate(-569.07 -52.36)"/><path class="f" d="M576.269,56.02l-1.153-2.96-3.6,2.953Z" transform="translate(-571.086 -52.936)"/><path class="c" d="M579.666,66.588l-.083-.36s-6.487-.933-6.923.348Z" transform="translate(-572.023 -63.499)"/><path class="g" d="M569.5,69.628l3.109,10.425-.388-.012L569.07,69.61Z" transform="translate(-569.07 -66.551)"/><path class="h" d="M573.948,53.06h-.372L570.1,55.995l.252.018Z" transform="translate(-569.917 -52.936)"/><path class="i" d="M585.132,80.46h-5.3l.633,2.3h5.284Z" transform="translate(-577.922 -75.477)"/></g><path class="b" d="M651.1,371.39s-3.637,21.37-2.389,21.378l.9-1.154Z" transform="translate(-613.572 -309.624)"/><g transform="translate(22.907 15.132)"><path class="j" d="M608.648,128s-4.7,5.691-7.728,20.127c-.05-2.6-.835-7.989-3.974-19.188l-2.334.486s-1.4,19.255,3.185,24.933,10.186-4.964,11.637-13.146A30.521,30.521,0,0,0,608.648,128Z" transform="translate(-592.024 -124.528)"/><path class="j" d="M585.873,112.834a1.56,1.56,0,0,0-.314-.747l-1.044-.034v0a3.411,3.411,0,0,0-1.2-.58c-.232-1.823-1.114-3.658-.924-2.862a14.772,14.772,0,0,1,.215,2.032,11.18,11.18,0,0,0-1.651-2.14L582,111.971c.113.376,1.541,1.35,1.541,1.35l1.644-.342Z" transform="translate(-580.95 -108.423)"/></g><path class="k" d="M664.291,134.939c.044-7.6.86-21.369-4.258-23.956a14.12,14.12,0,0,0-10-.982,7.159,7.159,0,0,0-5.21,4.114c-1.587,3.332-5.054,16.662-5.412,24.57-.149,3.268-.2,7.691.86,9.2,0,0,1.438,2.708,11.477,2.784s10.569-1.676,11.413-2.6C663.959,146.758,664.243,143,664.291,134.939Z" transform="translate(-606.067 -94.181)"/><path class="b" d="M715.2,305.207s9.086-.628,11.77-1.158c0,0,.06-.6.084-.929l-.007,0C722.933,304.164,718.379,304.728,715.2,305.207Z" transform="translate(-667.073 -258.368)"/><path class="b" d="M723.5,270.123l0-.163a77.2,77.2,0,0,0-12.974,5.6,97.545,97.545,0,0,1,12.972-5.442Z" transform="translate(-663.276 -231.409)"/><path class="b" d="M761.23,196.136h0a40.192,40.192,0,0,1-3.343-6.875,17.588,17.588,0,0,1-.754-2.694l0-.007a29.423,29.423,0,0,0,4.079,11.089S761.226,196.239,761.23,196.136Z" transform="translate(-702.98 -157.571)"/><path class="j" d="M723.02,151.912c-.642-8.205-11.339-23.839-11.339-23.839-1.6-.839-3.33,6.74-.993,13.02a49.209,49.209,0,0,0,6.528,11.711c-3.667-.323-15.549,5.691-15.549,5.691h0a12.838,12.838,0,0,0-1.71,1.557c-.458.594-.046,3.894.36,4.566s1.218-2.456,1.24-3.061a2.645,2.645,0,0,0,.938-.516C709.493,159.988,723.534,158.5,723.02,151.912Z" transform="translate(-655.781 -109.404)"/><g transform="translate(42.754)"><path class="j" d="M703.976,46.023l-.2-3.394V42.6h0l-.041-.716a1.258,1.258,0,0,0,.349-1.88.911.911,0,0,0-.472-.246l-.067-1.177-.832.048v0l-5.221.3a12.645,12.645,0,0,0-.1,5.389,4.45,4.45,0,0,0,.456,1.085,21.806,21.806,0,0,1-1.138,6.506s-1.114,2.08,0,3.153,7.2-.738,8.242-3.295A35.409,35.409,0,0,1,703.976,46.023Z" transform="translate(-695.625 -35.833)"/><path class="b" d="M694.418,64.07a1.034,1.034,0,0,0-.461,1.25,2.33,2.33,0,0,0-.885,3.022l1.871.122s.156-1.3.154-2.089A5.472,5.472,0,0,1,694.418,64.07Z" transform="translate(-692.87 -56.803)"/><path class="l" d="M703.373,77.07a2.578,2.578,0,0,0,2.983,1.082s-.8,3.226-3.426,2.814A22.331,22.331,0,0,0,703.373,77.07Z" transform="translate(-701.146 -67.498)"/><path class="b" d="M710.71,29.885s.8-2.243-.981-3.025c0,0,.138-1.83-1.433-2.043a2.091,2.091,0,0,0-2.119-1.459,2.306,2.306,0,0,0-2.481.229,1.713,1.713,0,0,0-1.972.6,1.055,1.055,0,0,0-.839,1.146s-.367,1.257.305,1.146l.062-.286s.076.745,1.626.516a1.724,1.724,0,0,0,2.055.3,1.55,1.55,0,0,0,1.309.9,2.607,2.607,0,0,1,.168-.5s.727-.8,1.435-.14c.571.527.356,2.034-1.309,2.2.076.741.337,1.481,1.066,1.564,0,0-1.944,2.951-.451,4.54l3.877-.245a1.78,1.78,0,0,0,0-1.741S712.246,31.34,710.71,29.885Z" transform="translate(-699.382 -23.09)"/></g></g></svg>