<svg xmlns="http://www.w3.org/2000/svg" width="66.07" height="104.347" viewBox="0 0 66.07 104.347"><defs><style>.a{fill:#dfcd99;}.b{fill:#cdb97d;}.c{fill:#64a489;}.d{fill:#39302a;}</style></defs><g transform="translate(0)"><path class="a" d="M820.512,654.67H789.32l8.782,40.979h37.716L844.6,654.67Z" transform="translate(-781.423 -591.303)"/><path class="b" d="M794.65,690.39h51.261l-1.082,5.064-49.561-2.189Z" transform="translate(-784.743 -617.636)"/><g transform="translate(0)"><g transform="translate(0 16.978)"><path class="c" d="M3020.576,531.3s-31.978-15.71-29.369-46.33c0,0,38.5,13.682,36.546,46.33Z" transform="translate(-2991.056 -484.973)"/></g><g transform="translate(36.696 33.198)"><path class="c" d="M3054.632,555.408s-.653-21.015,29.367-30.11c0,0,.959,23.156-21.872,30.11Z" transform="translate(-3054.631 -525.298)"/></g><g transform="translate(26.045 36.129)"><path class="d" d="M3039.653,559.763s-6.277-18.223-1.956-27.179l1.049,1.33S3036.179,547.787,3039.653,559.763Z" transform="translate(-3036.179 -532.584)"/></g><g transform="translate(27.763)"><path class="c" d="M3040.911,506.072s-11.312-40.266,23.494-63.308c0,0,18.258,37.481-12.624,63.308Z" transform="translate(-3039.155 -442.764)"/></g><g transform="translate(40.388 34.971)"><path class="d" d="M3061.027,558.044s17.895-10.192,20.562-28.337c0,0-3.258,1.3-3.824,1.667C3077.765,531.373,3075.717,545.366,3061.027,558.044Z" transform="translate(-3061.027 -529.707)"/></g></g></g></svg>