<svg xmlns="http://www.w3.org/2000/svg" width="64.68" height="193.454" viewBox="0 0 64.68 193.454"><defs><style>.a{fill:#3080b7;}.b{fill:#3485c7;}.c{fill:#39302a;}.d{fill:#f8b200;}.e{fill:#f7603b;}.f{fill:#ff4e00;}.g{fill:#bec2c4;}.h{fill:#d0d7db;}.i{fill:#de3e00;}.j{fill:#aaaaab;}.k{fill:#8a4622;}.l{fill:#c9d9e8;}.m{fill:#73371b;}.n{fill:#64a489;}</style></defs><g transform="translate(-569.07 -23.09)"><path class="a" d="M598,324.63s17.612,28.36,17.658,46.538c.039,15.5-25.3,64.1-25.3,64.1h-6.552s12.841-58.084,18.645-62.218c0,0-23.121-27.538-30.571-44.847Z" transform="translate(17.401 -227.545)"/><path class="b" d="M618.76,322.038c1.048,9.582,15.644,47.809,15.644,47.809-3.958,16.826,16.058,62.26,16.058,62.26h6.309s-5.045-38.84-8.054-62.351c-2.589-25.462-3.541-49.316-3.541-49.316Z" transform="translate(-35.4 -224.384)"/><path class="c" d="M588.476,775.5l2.665,4.55s6.709,2.5,6.8,4.071H585.438a1.3,1.3,0,0,1-.95-1.148c-.091-.947-1.018-7.472-1.018-7.472Z" transform="translate(32.273 -567.777)"/><path class="d" d="M639.428,144.7c-.061-10.517-1.19-29.569,5.892-33.15a19.538,19.538,0,0,1,13.842-1.359,9.907,9.907,0,0,1,7.21,5.693c2.2,4.611,6.994,23.057,7.489,34,.206,4.523.277,10.643-1.19,12.728,0,0-1.99,3.747-15.882,3.853s-14.625-2.319-15.793-3.6C639.887,161.055,639.494,155.86,639.428,144.7Z" transform="translate(-57.696 -65.21)"/><path class="c" d="M665.482,775.5h5.006l.128,4.55s.3.38.665.935h0c2.339.2,2.525,3.136,2.525,3.136h-6.3l-2.182-1.6a1.3,1.3,0,0,1-.95-1.148A43.953,43.953,0,0,1,665.482,775.5Z" transform="translate(-63.612 -567.777)"/><g transform="translate(618.781 30.273)"><path class="e" d="M573.141,69.652l10.9-.042-4.365,14.434-10.6.348Z" transform="translate(-569.07 -65.377)"/><path class="f" d="M575.659,56.593l-5-4.233-1.593,4.258Z" transform="translate(-560.69 -52.36)"/><path class="g" d="M571.52,57.156l1.6-4.1,4.976,4.086Z" transform="translate(-563.724 -52.888)"/><path class="h" d="M572.66,66.852l.115-.5s8.976-1.291,9.58.481Z" transform="translate(-568.268 -62.578)"/><path class="i" d="M573.372,69.635l-4.3,14.426.537-.017,4.365-14.434Z" transform="translate(-559.004 -65.377)"/><path class="j" d="M570.1,53.06h.515l4.81,4.061-.348.025Z" transform="translate(-560.709 -52.888)"/><path class="d" d="M580.682,80.46h7.337l-.876,3.185H579.83Z" transform="translate(-575.69 -73.565)"/></g><path class="c" d="M648.449,371.39s5.033,29.572,3.305,29.582l-1.249-1.6Z" transform="translate(-37.973 -262.831)"/><g transform="translate(606.192 44.03)"><path class="k" d="M596.052,128s6.51,7.875,10.694,27.852c.069-3.592,1.156-11.055,5.5-26.551l3.229.672s1.931,26.644-4.407,34.5c-6.353,7.877-14.1-6.868-16.1-18.191A42.234,42.234,0,0,1,596.052,128Z" transform="translate(-594.412 -123.196)"/><path class="k" d="M580.95,114.527a2.158,2.158,0,0,1,.434-1.033l1.445-.047v0a4.719,4.719,0,0,1,1.666-.8c.322-2.523,1.541-5.062,1.279-3.961a20.436,20.436,0,0,0-.3,2.812,15.466,15.466,0,0,1,2.285-2.962s-1.293,4.275-1.45,4.795-2.132,1.867-2.132,1.867l-2.275-.474Z" transform="translate(-563.119 -108.423)"/></g><path class="l" d="M639.428,144.7c-.061-10.517-1.19-29.569,5.892-33.15a19.538,19.538,0,0,1,13.842-1.359,9.907,9.907,0,0,1,7.21,5.693c2.2,4.611,6.994,23.057,7.489,34,.206,4.523.277,10.643-1.19,12.728,0,0-1.99,3.747-15.882,3.853s-14.625-2.319-15.793-3.6C639.887,161.055,639.494,155.86,639.428,144.7Z" transform="translate(-57.696 -65.21)"/><path class="c" d="M730.755,305.859s-11.924-.824-15.445-1.519c0,0-.079-.793-.11-1.22l.01,0C720.608,304.489,726.584,305.23,730.755,305.859Z" transform="translate(-133.159 -211.314)"/><path class="c" d="M710.533,270.173l0-.214a101.3,101.3,0,0,1,17.025,7.354s-10.211-5.168-17.023-7.141Z" transform="translate(-128.812 -186.291)"/><path class="c" d="M757.13,199.811h0a55.627,55.627,0,0,0,4.626-9.514,24.351,24.351,0,0,0,1.043-3.727l0-.01a40.713,40.713,0,0,1-5.644,15.344S757.135,199.953,757.13,199.811Z" transform="translate(-175.517 -123.356)"/><path class="k" d="M699.775,161.086c.888-11.354,15.69-32.988,15.69-32.988,2.213-1.161,4.608,9.327,1.374,18.016-1.9,5.1-4.392,9.624-9.033,16.206,5.075-.447,21.516,7.875,21.516,7.875h0a17.767,17.767,0,0,1,2.366,2.155c.633.822.064,5.389-.5,6.319s-1.686-3.4-1.715-4.235a3.659,3.659,0,0,1-1.3-.714C718.494,172.261,699.064,170.2,699.775,161.086Z" transform="translate(-130.686 -79.173)"/><g transform="translate(586.364 23.09)"><path class="k" d="M697.576,48.879l.27-4.7v-.039h0l.056-.991a1.741,1.741,0,0,1-.483-2.6,1.261,1.261,0,0,1,.653-.341l.093-1.629,1.151.066v0l7.224.417s1.045,4.3.137,7.457a6.165,6.165,0,0,1-.631,1.5,30.173,30.173,0,0,0,1.575,9s1.541,2.878,0,4.363-9.968-1.021-11.406-4.559A48.978,48.978,0,0,0,697.576,48.879Z" transform="translate(-692.381 -34.779)"/><path class="c" d="M693.81,64.07a1.432,1.432,0,0,1,.638,1.73s2.282,1.173,1.224,4.181l-2.589.169s-.216-1.8-.214-2.891A7.575,7.575,0,0,0,693.81,64.07Z" transform="translate(-679.202 -54.014)"/><path class="m" d="M707.057,77.07a3.567,3.567,0,0,1-4.127,1.5s1.112,4.464,4.741,3.894A30.911,30.911,0,0,1,707.057,77.07Z" transform="translate(-693.389 -63.824)"/><path class="c" d="M701.861,32.493s-1.109-3.1,1.357-4.186c0,0-.191-2.532,1.983-2.827a2.893,2.893,0,0,1,2.932-2.02,3.191,3.191,0,0,1,3.433.317,2.371,2.371,0,0,1,2.729.825,1.46,1.46,0,0,1,1.161,1.585s.508,1.74-.422,1.585l-.086-.4s-.106,1.031-2.25.714c0,0-.876,1.151-2.844.417a2.144,2.144,0,0,1-1.811,1.239,3.6,3.6,0,0,0-.233-.687s-1.006-1.1-1.985-.194c-.79.729-.493,2.815,1.811,3.043-.106,1.026-.466,2.049-1.475,2.164,0,0,2.689,4.083.623,6.282l-5.364-.339a2.463,2.463,0,0,1,0-2.41S699.736,34.505,701.861,32.493Z" transform="translate(-700.786 -23.09)"/></g><g transform="translate(580.669 196.382)"><g transform="translate(6.502 5.407)"><path class="n" d="M2992.666,499.728a17.383,17.383,0,0,0,6.517-14.755,16.136,16.136,0,0,0-8.11,14.755Z" transform="translate(-2991.057 -484.973)"/></g><g transform="translate(0 10.573)"><path class="n" d="M3061.15,534.887a10.7,10.7,0,0,0-6.517-9.589s-.213,7.375,4.854,9.589Z" transform="translate(-3054.631 -525.298)"/></g><g transform="translate(8.112 11.506)"><path class="c" d="M3036.179,541.24s1.393-5.8.434-8.656l-.233.424A29.463,29.463,0,0,1,3036.179,541.24Z" transform="translate(-3036.179 -532.584)"/></g><g transform="translate(1.708)"><path class="n" d="M3045.559,462.926s2.51-12.824-5.214-20.162c0,0-4.052,11.937,2.8,20.162Z" transform="translate(-3039.156 -442.764)"/></g><g transform="translate(1.136 11.137)"><path class="c" d="M3065.591,538.731a14.276,14.276,0,0,1-4.563-9.024,9.987,9.987,0,0,1,.849.531A17.845,17.845,0,0,0,3065.591,538.731Z" transform="translate(-3061.028 -529.707)"/></g></g></g></svg>