<?xml version="1.0"?>
<svg xmlns="http://www.w3.org/2000/svg" xmlns:xlink="http://www.w3.org/1999/xlink" xmlns:svgjs="http://svgjs.com/svgjs" version="1.1" width="512" height="512" x="0" y="0" viewBox="0 0 497 497" style="enable-background:new 0 0 512 512" xml:space="preserve" class=""><g><g xmlns="http://www.w3.org/2000/svg"><g><g><path d="m415.021 390.595h-333.042c-4.143 0-7.5-3.358-7.5-7.5s3.357-7.5 7.5-7.5h333.041c4.143 0 7.5 3.358 7.5 7.5s-3.357 7.5-7.499 7.5z" fill="#456b93" data-original="#456b93" style=""/></g></g><g><g><path d="m415.021 286.956h-333.042c-4.143 0-7.5-3.358-7.5-7.5s3.357-7.5 7.5-7.5h333.041c4.143 0 7.5 3.358 7.5 7.5s-3.357 7.5-7.499 7.5z" fill="#456b93" data-original="#456b93" style=""/></g></g><g><g><path d="m415.021 183.317h-333.042c-4.143 0-7.5-3.358-7.5-7.5s3.357-7.5 7.5-7.5h333.041c4.143 0 7.5 3.358 7.5 7.5s-3.357 7.5-7.499 7.5z" fill="#456b93" data-original="#456b93" style=""/></g></g><g><g><g><path d="m415.021 79.677h-333.042c-4.143 0-7.5-3.358-7.5-7.5s3.357-7.5 7.5-7.5h333.041c4.143 0 7.5 3.358 7.5 7.5s-3.357 7.5-7.499 7.5z" fill="#456b93" data-original="#456b93" style=""/></g></g></g><g fill="#e29e7a"><path d="m81.979 25.511v430.982h-50v-430.982c0-13.807 11.193-25 25-25 13.807 0 25 11.193 25 25z" fill="#e29e7a" data-original="#e29e7a" style=""/><path d="m465.021 25.511v430.982h-50v-430.982c0-13.807 11.193-25 25-25 13.807 0 25 11.193 25 25z" fill="#e29e7a" data-original="#e29e7a" style=""/></g><g fill="#ce8a6b"><path d="m71.98 5.508c-6.07 4.56-10 11.82-10 20v420.98h-30v-420.98c0-13.8 11.19-25 25-25 5.62 0 10.82 1.859 15 5z" fill="#ce8a6b" data-original="#ce8a6b" style=""/><path d="m455.02 5.508c-6.07 4.56-10 11.82-10 20v420.98h-30v-420.98c0-13.8 11.19-25 25-25 5.62 0 10.82 1.859 15 5z" fill="#ce8a6b" data-original="#ce8a6b" style=""/></g><path d="m490 446.492h-483c-3.866 0-7 3.134-7 7v36c0 3.866 3.134 7 7 7h483c3.866 0 7-3.134 7-7v-36c0-3.866-3.134-7-7-7z" fill="#456b93" data-original="#456b93" style=""/><path d="m7 446.487c-3.866 0-7 3.134-7 7v36c0 3.866 3.134 7 7 7h43v-50z" fill="#3b4f66" data-original="#3b4f66" style=""/><path d="m203.75 37.677c-10.593 0-19.181 8.588-19.181 19.181v29.202c0 10.593 8.588 19.181 19.181 19.181s19.181-8.588 19.181-19.181v-29.201c0-10.594-8.588-19.182-19.181-19.182z" fill="#ffe378" data-original="#ffe378" style=""/><path d="m213.75 102.427c-2.91 1.78-6.34 2.81-10 2.81-10.59 0-19.18-8.58-19.18-19.18v-29.2c0-10.59 8.59-19.18 19.18-19.18 3.66 0 7.09 1.03 10 2.82-5.51 3.37-9.18 9.44-9.18 16.36v29.2c0 6.93 3.67 13 9.18 16.37z" fill="#ffc85e" data-original="#ffc85e" style=""/><path d="m242.112 37.677c-10.593 0-19.181 8.588-19.181 19.181v29.202c0 10.593 8.588 19.181 19.181 19.181s19.181-8.588 19.181-19.181v-29.201c0-10.594-8.588-19.182-19.181-19.182z" fill="#ffe177" data-original="#ffe177" style=""/><path d="m252.12 102.427c-2.92 1.78-6.34 2.81-10.01 2.81-10.59 0-19.18-8.58-19.18-19.18v-29.2c0-10.59 8.59-19.18 19.18-19.18 3.67 0 7.09 1.03 10.01 2.82-5.51 3.36-9.19 9.43-9.19 16.36v29.2c0 6.94 3.68 13.011 9.19 16.37z" fill="#ffc85e" data-original="#ffc85e" style=""/><path d="m280.474 37.677c-10.593 0-19.181 8.588-19.181 19.181v29.202c0 10.593 8.588 19.181 19.181 19.181s19.181-8.588 19.181-19.181v-29.201c0-10.594-8.587-19.182-19.181-19.182z" fill="#ffe177" data-original="#ffe177" style=""/><path d="m290.48 102.427c-2.91 1.78-6.34 2.81-10.01 2.81-10.59 0-19.18-8.58-19.18-19.18v-29.2c0-10.59 8.59-19.18 19.18-19.18 3.67 0 7.1 1.03 10.01 2.82-5.51 3.36-9.19 9.43-9.19 16.36v29.2c0 6.94 3.68 13.011 9.19 16.37z" fill="#ffc85e" data-original="#ffc85e" style=""/><path d="m318.836 37.677c-10.593 0-19.181 8.588-19.181 19.181v29.202c0 10.593 8.588 19.181 19.181 19.181s19.181-8.588 19.181-19.181v-29.201c0-10.594-8.587-19.182-19.181-19.182z" fill="#ffe177" data-original="#ffe177" style=""/><path d="m328.84 102.427c-2.91 1.79-6.33 2.81-10 2.81-10.6 0-19.18-8.58-19.18-19.18v-29.2c0-10.59 8.58-19.18 19.18-19.18 3.67 0 7.09 1.03 10 2.82-5.51 3.36-9.18 9.43-9.18 16.36v29.2c0 6.94 3.67 13.011 9.18 16.37z" fill="#ffc85e" data-original="#ffc85e" style=""/><path d="m357.198 37.677c-10.593 0-19.181 8.588-19.181 19.181v29.202c0 10.593 8.588 19.181 19.181 19.181s19.181-8.588 19.181-19.181v-29.201c0-10.594-8.587-19.182-19.181-19.182z" fill="#ffe177" data-original="#ffe177" style=""/><path d="m367.2 102.427c-2.91 1.79-6.33 2.81-10 2.81-10.6 0-19.18-8.58-19.18-19.18v-29.2c0-10.59 8.58-19.18 19.18-19.18 3.67 0 7.09 1.03 10 2.82-5.51 3.36-9.18 9.43-9.18 16.36v29.2c0 6.94 3.67 13.011 9.18 16.37z" fill="#ffc85e" data-original="#ffc85e" style=""/><path d="m101.161 143.729c-10.593 0-19.181 8.588-19.181 19.181v29.201c0 10.593 8.588 19.181 19.181 19.181s19.181-8.588 19.181-19.181v-29.201c0-10.593-8.587-19.181-19.181-19.181z" fill="#fc5a36" data-original="#fc5a36" style=""/><path d="m111.169 208.477c-2.92 1.78-6.34 2.81-10.01 2.81-10.59 0-19.18-8.58-19.18-19.18v-29.2c0-10.59 8.59-19.18 19.18-19.18 3.67 0 7.09 1.03 10.01 2.82-5.51 3.36-9.19 9.43-9.19 16.36v29.2c0 6.94 3.68 13.01 9.19 16.37z" fill="#db3915" data-original="#db3915" style=""/><path d="m139.523 143.729c-10.593 0-19.181 8.588-19.181 19.181v29.201c0 10.593 8.588 19.181 19.181 19.181s19.181-8.588 19.181-19.181v-29.201c0-10.593-8.587-19.181-19.181-19.181z" fill="#fc5a36" data-original="#fc5a36" style=""/><path d="m149.529 208.477c-2.91 1.78-6.34 2.81-10.01 2.81-10.59 0-19.18-8.58-19.18-19.18v-29.2c0-10.59 8.59-19.18 19.18-19.18 3.67 0 7.1 1.03 10.01 2.82-5.51 3.36-9.19 9.43-9.19 16.36v29.2c0 6.94 3.68 13.01 9.19 16.37z" fill="#db3915" data-original="#db3915" style=""/><path d="m177.886 143.729c-10.593 0-19.181 8.588-19.181 19.181v29.201c0 10.593 8.588 19.181 19.181 19.181s19.181-8.588 19.181-19.181v-29.201c0-10.593-8.588-19.181-19.181-19.181z" fill="#fc5a36" data-original="#fc5a36" style=""/><path d="m187.889 208.477c-2.91 1.78-6.33 2.81-10 2.81-10.6 0-19.18-8.58-19.18-19.18v-29.2c0-10.59 8.58-19.18 19.18-19.18 3.67 0 7.09 1.03 10 2.82-5.51 3.36-9.18 9.43-9.18 16.36v29.2c0 6.94 3.67 13.01 9.18 16.37z" fill="#db3915" data-original="#db3915" style=""/><path d="m216.248 143.729c-10.593 0-19.181 8.588-19.181 19.181v29.201c0 10.593 8.588 19.181 19.181 19.181s19.181-8.588 19.181-19.181v-29.201c0-10.593-8.588-19.181-19.181-19.181z" fill="#fc5a36" data-original="#fc5a36" style=""/><path d="m226.249 208.477c-2.91 1.78-6.33 2.81-10 2.81-10.6 0-19.18-8.58-19.18-19.18v-29.2c0-10.59 8.58-19.18 19.18-19.18 3.67 0 7.09 1.03 10 2.82-5.51 3.36-9.18 9.43-9.18 16.36v29.2c0 6.94 3.67 13.01 9.18 16.37z" fill="#db3915" data-original="#db3915" style=""/><path d="m254.61 143.729c-10.593 0-19.181 8.588-19.181 19.181v29.201c0 10.593 8.588 19.181 19.181 19.181s19.181-8.588 19.181-19.181v-29.201c0-10.593-8.588-19.181-19.181-19.181z" fill="#fc5a36" data-original="#fc5a36" style=""/><path d="m264.609 208.467c-2.91 1.79-6.33 2.82-10 2.82-10.59 0-19.18-8.58-19.18-19.18v-29.2c0-10.59 8.59-19.18 19.18-19.18 3.67 0 7.09 1.03 10 2.82-5.51 3.36-9.18 9.43-9.18 16.36v29.2c0 6.93 3.67 13 9.18 16.36z" fill="#db3915" data-original="#db3915" style=""/><path d="m242.391 245.675c-10.593 0-19.181 8.588-19.181 19.181v29.201c0 10.593 8.588 19.181 19.181 19.181s19.181-8.588 19.181-19.181v-29.201c0-10.594-8.588-19.181-19.181-19.181z" fill="#64b9fc" data-original="#64b9fc" style=""/><path d="m252.399 310.417c-2.92 1.79-6.34 2.82-10.01 2.82-10.59 0-19.18-8.59-19.18-19.18v-29.2c0-10.6 8.59-19.18 19.18-19.18 3.67 0 7.09 1.03 10.01 2.81-5.51 3.36-9.19 9.43-9.19 16.37v29.2c0 6.93 3.68 13 9.19 16.36z" fill="#31a7fb" data-original="#31a7fb" style=""/><path d="m280.753 245.675c-10.593 0-19.181 8.588-19.181 19.181v29.201c0 10.593 8.588 19.181 19.181 19.181s19.181-8.588 19.181-19.181v-29.201c0-10.594-8.588-19.181-19.181-19.181z" fill="#64b9fc" data-original="#64b9fc" style=""/><path d="m290.759 310.417c-2.91 1.79-6.34 2.82-10.01 2.82-10.59 0-19.18-8.59-19.18-19.18v-29.2c0-10.6 8.59-19.18 19.18-19.18 3.67 0 7.1 1.03 10.01 2.81-5.51 3.36-9.19 9.43-9.19 16.37v29.2c0 6.93 3.68 13 9.19 16.36z" fill="#31a7fb" data-original="#31a7fb" style=""/><path d="m319.115 245.675c-10.593 0-19.181 8.588-19.181 19.181v29.201c0 10.593 8.588 19.181 19.181 19.181s19.181-8.588 19.181-19.181v-29.201c0-10.594-8.588-19.181-19.181-19.181z" fill="#64b9fc" data-original="#64b9fc" style=""/><path d="m329.119 310.417c-2.91 1.79-6.33 2.82-10 2.82-10.6 0-19.18-8.59-19.18-19.18v-29.2c0-10.6 8.58-19.18 19.18-19.18 3.67 0 7.09 1.02 10 2.81-5.51 3.36-9.18 9.43-9.18 16.37v29.2c0 6.93 3.67 13 9.18 16.36z" fill="#31a7fb" data-original="#31a7fb" style=""/><path d="m357.477 245.675c-10.593 0-19.181 8.588-19.181 19.181v29.201c0 10.593 8.588 19.181 19.181 19.181s19.181-8.588 19.181-19.181v-29.201c0-10.594-8.588-19.181-19.181-19.181z" fill="#64b9fc" data-original="#64b9fc" style=""/><path d="m367.479 310.417c-2.91 1.79-6.33 2.82-10 2.82-10.6 0-19.18-8.59-19.18-19.18v-29.2c0-10.6 8.58-19.18 19.18-19.18 3.67 0 7.09 1.02 10 2.81-5.51 3.36-9.18 9.43-9.18 16.37v29.2c0 6.93 3.67 13 9.18 16.36z" fill="#31a7fb" data-original="#31a7fb" style=""/><path d="m395.839 245.675c-10.593 0-19.181 8.588-19.181 19.181v29.201c0 10.593 8.588 19.181 19.181 19.181s19.181-8.588 19.181-19.181v-29.201c0-10.594-8.588-19.181-19.181-19.181z" fill="#64b9fc" data-original="#64b9fc" style=""/><path d="m405.839 310.417c-2.91 1.79-6.33 2.82-10 2.82-10.59 0-19.18-8.59-19.18-19.18v-29.2c0-10.6 8.59-19.18 19.18-19.18 3.67 0 7.09 1.02 10 2.81-5.51 3.37-9.18 9.44-9.18 16.37v29.2c0 6.93 3.67 13 9.18 16.36z" fill="#31a7fb" data-original="#31a7fb" style=""/><path d="m101.161 349.314c-10.593 0-19.181 8.588-19.181 19.181v29.201c0 10.593 8.588 19.181 19.181 19.181s19.181-8.588 19.181-19.181v-29.201c0-10.593-8.587-19.181-19.181-19.181z" fill="#76fca3" data-original="#76fca3" style=""/><path d="m111.169 414.057c-2.92 1.79-6.34 2.82-10.01 2.82-10.59 0-19.18-8.59-19.18-19.18v-29.2c0-10.6 8.59-19.18 19.18-19.18 3.67 0 7.09 1.03 10.01 2.81-5.51 3.36-9.19 9.43-9.19 16.37v29.2c0 6.931 3.68 13.001 9.19 16.36z" fill="#5ede8b" data-original="#5ede8b" style=""/><path d="m139.523 349.314c-10.593 0-19.181 8.588-19.181 19.181v29.201c0 10.593 8.588 19.181 19.181 19.181s19.181-8.588 19.181-19.181v-29.201c0-10.593-8.587-19.181-19.181-19.181z" fill="#76fca3" data-original="#76fca3" style=""/><path d="m149.529 414.057c-2.91 1.79-6.34 2.82-10.01 2.82-10.59 0-19.18-8.59-19.18-19.18v-29.2c0-10.6 8.59-19.18 19.18-19.18 3.67 0 7.1 1.03 10.01 2.81-5.51 3.36-9.19 9.43-9.19 16.37v29.2c0 6.931 3.68 13.001 9.19 16.36z" fill="#5ede8b" data-original="#5ede8b" style=""/><path d="m177.886 349.314c-10.593 0-19.181 8.588-19.181 19.181v29.201c0 10.593 8.588 19.181 19.181 19.181s19.181-8.588 19.181-19.181v-29.201c0-10.593-8.588-19.181-19.181-19.181z" fill="#76fca3" data-original="#76fca3" style=""/><path d="m187.889 414.057c-2.91 1.79-6.33 2.82-10 2.82-10.6 0-19.18-8.59-19.18-19.18v-29.2c0-10.6 8.58-19.18 19.18-19.18 3.67 0 7.09 1.02 10 2.81-5.51 3.36-9.18 9.43-9.18 16.37v29.2c0 6.931 3.67 13.001 9.18 16.36z" fill="#5ede8b" data-original="#5ede8b" style=""/><path d="m216.248 349.314c-10.593 0-19.181 8.588-19.181 19.181v29.201c0 10.593 8.588 19.181 19.181 19.181s19.181-8.588 19.181-19.181v-29.201c0-10.593-8.588-19.181-19.181-19.181z" fill="#76fca3" data-original="#76fca3" style=""/><path d="m226.249 414.057c-2.91 1.79-6.33 2.82-10 2.82-10.6 0-19.18-8.59-19.18-19.18v-29.2c0-10.6 8.58-19.18 19.18-19.18 3.67 0 7.09 1.02 10 2.81-5.51 3.36-9.18 9.43-9.18 16.37v29.2c0 6.931 3.67 13.001 9.18 16.36z" fill="#5ede8b" data-original="#5ede8b" style=""/><path d="m254.61 349.314c-10.593 0-19.181 8.588-19.181 19.181v29.201c0 10.593 8.588 19.181 19.181 19.181s19.181-8.588 19.181-19.181v-29.201c0-10.593-8.588-19.181-19.181-19.181z" fill="#76fca3" data-original="#76fca3" style=""/><path d="m264.609 414.057c-2.91 1.79-6.33 2.82-10 2.82-10.59 0-19.18-8.59-19.18-19.18v-29.2c0-10.6 8.59-19.18 19.18-19.18 3.67 0 7.09 1.02 10 2.81-5.51 3.37-9.18 9.44-9.18 16.37v29.2c0 6.931 3.67 13.001 9.18 16.36z" fill="#5ede8b" data-original="#5ede8b" style=""/></g></g></svg>
